<svg width="15" height="16" viewBox="0 0 15 16" fill="none" xmlns="http://www.w3.org/2000/svg">
<path d="M14.6862 4.23399L11.2662 0.813851C11.1667 0.714349 11.0486 0.635419 10.9186 0.581568C10.7886 0.527717 10.6493 0.5 10.5086 0.5C10.3679 0.5 10.2286 0.527717 10.0986 0.581568C9.96858 0.635419 9.85047 0.714349 9.75098 0.813851L0.31376 10.2508C0.214072 10.3501 0.135028 10.4682 0.0811785 10.5983C0.0273294 10.7283 -0.000259326 10.8677 1.83696e-06 11.0084V14.4286C1.83696e-06 14.7127 0.112878 14.9853 0.313798 15.1862C0.514719 15.3871 0.787225 15.5 1.07137 15.5H13.9278C14.0496 15.5 14.1664 15.4516 14.2525 15.3655C14.3386 15.2794 14.3869 15.1626 14.3869 15.0408C14.3869 14.919 14.3386 14.8022 14.2525 14.7161C14.1664 14.63 14.0496 14.5816 13.9278 14.5816H5.8535L14.6862 5.74928C14.7857 5.64979 14.8646 5.53167 14.9184 5.40168C14.9723 5.27168 15 5.13235 15 4.99164C15 4.85093 14.9723 4.71159 14.9184 4.58159C14.8646 4.4516 14.7857 4.33348 14.6862 4.23399ZM3.2516 12.898L9.94842 6.20005L11.4422 7.69392L4.74463 14.3911L3.2516 12.898ZM2.6019 12.249L1.10887 10.7551L7.80568 4.05797L9.29948 5.55107L2.6019 12.249ZM0.918317 14.4286V11.8633L3.63653 14.5816H1.07137C1.03078 14.5816 0.991848 14.5655 0.963145 14.5368C0.934442 14.5081 0.918317 14.4692 0.918317 14.4286ZM14.0365 5.09954L12.0912 7.04494L8.45539 3.40823L10.3999 1.46359C10.4141 1.44936 10.431 1.43807 10.4496 1.43037C10.4682 1.42267 10.4881 1.4187 10.5082 1.4187C10.5283 1.4187 10.5482 1.42267 10.5668 1.43037C10.5854 1.43807 10.6023 1.44936 10.6165 1.46359L14.0365 4.88296C14.0507 4.89718 14.062 4.91406 14.0697 4.93264C14.0774 4.95122 14.0813 4.97114 14.0813 4.99125C14.0813 5.01137 14.0774 5.03129 14.0697 5.04987C14.062 5.06845 14.0507 5.08533 14.0365 5.09954Z" fill="#3A3886"/>
</svg>
