<svg width="13" height="12" viewBox="0 0 13 12" fill="none" xmlns="http://www.w3.org/2000/svg">
<path d="M5 0.666672L7.66667 11.3333M6.33333 6.00001L1 7.33334M1 2.00001C1 1.64638 1.14048 1.30724 1.39052 1.0572C1.64057 0.807147 1.97971 0.666672 2.33333 0.666672H10.3333C10.687 0.666672 11.0261 0.807147 11.2761 1.0572C11.5262 1.30724 11.6667 1.64638 11.6667 2.00001V10C11.6667 10.3536 11.5262 10.6928 11.2761 10.9428C11.0261 11.1929 10.687 11.3333 10.3333 11.3333H2.33333C1.97971 11.3333 1.64057 11.1929 1.39052 10.9428C1.14048 10.6928 1 10.3536 1 10V2.00001Z" stroke="#3A3886" stroke-width="1.25" stroke-linecap="round" stroke-linejoin="round"/>
</svg>
