<svg width="5" height="15" viewBox="0 0 5 15" fill="none" xmlns="http://www.w3.org/2000/svg">
<path d="M4.25 7.5C4.25 7.84612 4.14736 8.18446 3.95507 8.47225C3.76278 8.76003 3.48947 8.98434 3.1697 9.11679C2.84993 9.24924 2.49806 9.2839 2.15859 9.21638C1.81913 9.14885 1.50731 8.98218 1.26256 8.73744C1.01782 8.4927 0.851151 8.18088 0.783627 7.84141C0.716102 7.50194 0.750758 7.15008 0.883212 6.83031C1.01566 6.51053 1.23997 6.23722 1.52775 6.04493C1.81554 5.85264 2.15388 5.75 2.5 5.75C2.96413 5.75 3.40925 5.93438 3.73744 6.26256C4.06563 6.59075 4.25 7.03587 4.25 7.5ZM2.5 4.25C2.84612 4.25 3.18446 4.14737 3.47225 3.95507C3.76004 3.76278 3.98434 3.48947 4.11679 3.1697C4.24924 2.84993 4.2839 2.49806 4.21638 2.15859C4.14885 1.81913 3.98218 1.50731 3.73744 1.26256C3.4927 1.01782 3.18088 0.851151 2.84141 0.783627C2.50194 0.716102 2.15008 0.750758 1.83031 0.883212C1.51053 1.01566 1.23722 1.23997 1.04493 1.52775C0.852637 1.81554 0.750001 2.15388 0.750001 2.5C0.750001 2.96413 0.934376 3.40925 1.26256 3.73744C1.59075 4.06563 2.03587 4.25 2.5 4.25ZM2.5 10.75C2.15388 10.75 1.81554 10.8526 1.52775 11.0449C1.23997 11.2372 1.01566 11.5105 0.883212 11.8303C0.750758 12.1501 0.716102 12.5019 0.783627 12.8414C0.851151 13.1809 1.01782 13.4927 1.26256 13.7374C1.50731 13.9822 1.81913 14.1489 2.15859 14.2164C2.49806 14.2839 2.84993 14.2492 3.1697 14.1168C3.48947 13.9843 3.76278 13.76 3.95507 13.4722C4.14736 13.1845 4.25 12.8461 4.25 12.5C4.25 12.0359 4.06563 11.5908 3.73744 11.2626C3.40925 10.9344 2.96413 10.75 2.5 10.75Z" fill="#979797"/>
</svg>
