<svg width="12" height="12" viewBox="0 0 12 12" fill="none" xmlns="http://www.w3.org/2000/svg">
<rect y="0.5" width="12" height="11" rx="5.5" fill="#8280FF"/>
<path d="M8.5 6C8.50019 6.09141 8.4804 6.18132 8.44257 6.26099C8.40473 6.34066 8.35014 6.40737 8.28409 6.45464L4.19091 9.42075C4.1219 9.47081 4.04286 9.49813 3.96195 9.49991C3.88105 9.50168 3.80121 9.47784 3.73068 9.43084C3.66083 9.38458 3.60264 9.31711 3.56209 9.23537C3.52155 9.15363 3.50012 9.06057 3.5 8.96577V3.03423C3.50012 2.93943 3.52155 2.84637 3.56209 2.76463C3.60264 2.68289 3.66083 2.61542 3.73068 2.56916C3.80121 2.52216 3.88105 2.49832 3.96195 2.50009C4.04286 2.50187 4.1219 2.52919 4.19091 2.57925L8.28409 5.54536C8.35014 5.59263 8.40473 5.65934 8.44257 5.73901C8.4804 5.81868 8.50019 5.90859 8.5 6Z" fill="white"/>
</svg>
