<svg width="12" height="12" viewBox="0 0 12 12" fill="none" xmlns="http://www.w3.org/2000/svg">
<rect width="12" height="12" rx="6" fill="white"/>
<path d="M2.20165 5.66128L3.80973 7.09966L3.3198 9.25074C3.29277 9.36751 3.29973 9.48997 3.3398 9.60264C3.37988 9.71532 3.45127 9.81315 3.54495 9.88379C3.63864 9.95443 3.75042 9.9947 3.86617 9.99951C3.98193 10.0043 4.09646 9.97347 4.19531 9.91085L5.99993 8.75955L7.80562 9.91085C7.90445 9.97311 8.01885 10.0037 8.13441 9.99868C8.24996 9.99369 8.36151 9.95336 8.455 9.88279C8.54849 9.81221 8.61975 9.71454 8.65979 9.60207C8.69984 9.4896 8.70689 9.36736 8.68006 9.25074L8.18834 7.09966L9.79642 5.66128C9.88387 5.58293 9.94711 5.47962 9.97825 5.36425C10.0094 5.24887 10.007 5.12654 9.97152 5.01253C9.93599 4.89852 9.86884 4.79789 9.77847 4.72321C9.6881 4.64852 9.5785 4.60309 9.46337 4.59259L7.355 4.41626L6.54167 2.37593C6.49765 2.26474 6.42272 2.16962 6.32641 2.10268C6.23011 2.03574 6.11677 2 6.00082 2C5.88487 2 5.77154 2.03574 5.67523 2.10268C5.57892 2.16962 5.50399 2.26474 5.45997 2.37593L4.647 4.41626L2.53863 4.59259C2.42327 4.6027 2.31335 4.64788 2.22265 4.72246C2.13195 4.79704 2.0645 4.89771 2.02875 5.01186C1.993 5.126 1.99054 5.24855 2.02167 5.36414C2.05281 5.47972 2.11616 5.58322 2.20379 5.66165L2.20165 5.66128Z" fill="#FFA500"/>
</svg>
