<svg width="35" height="35" viewBox="0 0 35 35" fill="none" xmlns="http://www.w3.org/2000/svg">
<rect x="0.5625" y="0.9375" width="34" height="34" rx="17" fill="white"/>
<path d="M24.3125 13.4375C24.3125 13.5867 24.2532 13.7298 24.1477 13.8352C24.0423 13.9407 23.8992 14 23.75 14H23.1875V24.125C23.1875 24.4234 23.069 24.7095 22.858 24.9205C22.647 25.1315 22.3609 25.25 22.0625 25.25H13.0625C12.7641 25.25 12.478 25.1315 12.267 24.9205C12.056 24.7095 11.9375 24.4234 11.9375 24.125V14H11.375C11.2258 14 11.0827 13.9407 10.9773 13.8352C10.8718 13.7298 10.8125 13.5867 10.8125 13.4375C10.8125 13.2883 10.8718 13.1452 10.9773 13.0398C11.0827 12.9343 11.2258 12.875 11.375 12.875H23.75C23.8992 12.875 24.0423 12.9343 24.1477 13.0398C24.2532 13.1452 24.3125 13.2883 24.3125 13.4375ZM14.75 11.75H20.375C20.5242 11.75 20.6673 11.6907 20.7727 11.5852C20.8782 11.4798 20.9375 11.3367 20.9375 11.1875C20.9375 11.0383 20.8782 10.8952 20.7727 10.7898C20.6673 10.6843 20.5242 10.625 20.375 10.625H14.75C14.6008 10.625 14.4577 10.6843 14.3523 10.7898C14.2468 10.8952 14.1875 11.0383 14.1875 11.1875C14.1875 11.3367 14.2468 11.4798 14.3523 11.5852C14.4577 11.6907 14.6008 11.75 14.75 11.75Z" fill="#979797"/>
</svg>
