<svg width="36" height="36" viewBox="0 0 36 36" fill="none" xmlns="http://www.w3.org/2000/svg">
<rect x="0.5625" y="0.9375" width="35" height="35" rx="17.5" fill="#8280FF"/>
<path d="M24.0625 18.4375C24.0629 18.6203 24.0155 18.8001 23.9247 18.9595C23.8339 19.1188 23.7028 19.2522 23.5443 19.3468L13.7207 25.279C13.5551 25.3791 13.3654 25.4338 13.1712 25.4373C12.977 25.4409 12.7854 25.3932 12.6161 25.2992C12.4485 25.2067 12.3088 25.0717 12.2115 24.9082C12.1142 24.7448 12.0628 24.5586 12.0625 24.369V12.506C12.0628 12.3164 12.1142 12.1302 12.2115 11.9668C12.3088 11.8033 12.4485 11.6683 12.6161 11.5758C12.7854 11.4818 12.977 11.4341 13.1712 11.4377C13.3654 11.4412 13.5551 11.4959 13.7207 11.596L23.5443 17.5282C23.7028 17.6228 23.8339 17.7562 23.9247 17.9155C24.0155 18.0749 24.0629 18.2547 24.0625 18.4375Z" fill="white"/>
</svg>
