<svg width="14" height="22" viewBox="0 0 14 22" fill="none" xmlns="http://www.w3.org/2000/svg">
<path d="M7 14.8684C8.09443 14.867 9.14363 14.4201 9.91751 13.6259C10.6914 12.8316 11.1268 11.7548 11.1282 10.6316V4.73684C11.1282 3.61316 10.6933 2.5355 9.91908 1.74094C9.14489 0.94638 8.09487 0.5 7 0.5C5.90513 0.5 4.85511 0.94638 4.08092 1.74094C3.30673 2.5355 2.87179 3.61316 2.87179 4.73684V10.6316C2.87322 11.7548 3.30861 12.8316 4.08249 13.6259C4.85637 14.4201 5.90557 14.867 7 14.8684ZM3.94872 4.73684C3.94872 3.9063 4.27019 3.10977 4.84242 2.52248C5.41464 1.9352 6.19075 1.60526 7 1.60526C7.80925 1.60526 8.58536 1.9352 9.15758 2.52248C9.72981 3.10977 10.0513 3.9063 10.0513 4.73684V10.6316C10.0513 11.4621 9.72981 12.2587 9.15758 12.8459C8.58536 13.4332 7.80925 13.7632 7 13.7632C6.19075 13.7632 5.41464 13.4332 4.84242 12.8459C4.27019 12.2587 3.94872 11.4621 3.94872 10.6316V4.73684ZM7.53846 17.7928V20.9474C7.53846 21.0939 7.48173 21.2345 7.38075 21.3381C7.27977 21.4418 7.14281 21.5 7 21.5C6.85719 21.5 6.72023 21.4418 6.61925 21.3381C6.51827 21.2345 6.46154 21.0939 6.46154 20.9474V17.7928C4.70444 17.6517 3.06364 16.8363 1.86612 15.5091C0.668608 14.182 0.00230601 12.4404 0 10.6316C0 10.485 0.0567305 10.3444 0.157712 10.2408C0.258693 10.1372 0.395653 10.0789 0.538462 10.0789C0.68127 10.0789 0.81823 10.1372 0.919211 10.2408C1.02019 10.3444 1.07692 10.485 1.07692 10.6316C1.07692 12.2438 1.70096 13.79 2.81175 14.93C3.92254 16.0701 5.4291 16.7105 7 16.7105C8.5709 16.7105 10.0775 16.0701 11.1882 14.93C12.299 13.79 12.9231 12.2438 12.9231 10.6316C12.9231 10.485 12.9798 10.3444 13.0808 10.2408C13.1818 10.1372 13.3187 10.0789 13.4615 10.0789C13.6043 10.0789 13.7413 10.1372 13.8423 10.2408C13.9433 10.3444 14 10.485 14 10.6316C13.9977 12.4404 13.3314 14.182 12.1339 15.5091C10.9364 16.8363 9.29556 17.6517 7.53846 17.7928Z" fill="#3A3886"/>
</svg>
