<svg width="19" height="14" viewBox="0 0 19 14" fill="none" xmlns="http://www.w3.org/2000/svg">
<path d="M16.951 0H2.04902C1.50559 0 0.98441 0.208012 0.600144 0.578276C0.215878 0.94854 0 1.45073 0 1.97436V12.0256C0 12.5493 0.215878 13.0515 0.600144 13.4217C0.98441 13.792 1.50559 14 2.04902 14H16.951C17.4944 14 18.0156 13.792 18.3999 13.4217C18.7841 13.0515 19 12.5493 19 12.0256V1.97436C19 1.45073 18.7841 0.94854 18.3999 0.578276C18.0156 0.208012 17.4944 0 16.951 0ZM1.11765 3.94872H17.8824V5.74359H12.4804C12.3322 5.74359 12.19 5.80032 12.0852 5.9013C11.9804 6.00228 11.9216 6.13924 11.9216 6.28205C11.9216 6.90089 11.6664 7.49438 11.2123 7.93197C10.7582 8.36955 10.1422 8.61539 9.5 8.61539C8.85776 8.61539 8.24183 8.36955 7.78769 7.93197C7.33356 7.49438 7.07843 6.90089 7.07843 6.28205C7.07843 6.13924 7.01956 6.00228 6.91476 5.9013C6.80996 5.80032 6.66782 5.74359 6.51961 5.74359H1.11765V3.94872ZM2.04902 1.07692H16.951C17.198 1.07692 17.4349 1.17147 17.6096 1.33978C17.7842 1.50808 17.8824 1.73634 17.8824 1.97436V2.87179H1.11765V1.97436C1.11765 1.73634 1.21577 1.50808 1.39044 1.33978C1.56511 1.17147 1.802 1.07692 2.04902 1.07692ZM16.951 12.9231H2.04902C1.802 12.9231 1.56511 12.8285 1.39044 12.6602C1.21577 12.4919 1.11765 12.2637 1.11765 12.0256V6.82051H6.00456C6.13665 7.62225 6.56123 8.35229 7.20195 8.87939C7.84268 9.40649 8.65752 9.69607 9.5 9.69607C10.3425 9.69607 11.1573 9.40649 11.798 8.87939C12.4388 8.35229 12.8633 7.62225 12.9954 6.82051H17.8824V12.0256C17.8824 12.2637 17.7842 12.4919 17.6096 12.6602C17.4349 12.8285 17.198 12.9231 16.951 12.9231Z" fill="#3A3886"/>
</svg>
