<svg width="16" height="18" viewBox="0 0 16 18" fill="none" xmlns="http://www.w3.org/2000/svg">
<path d="M7.42857 10.7225C7.38389 10.6537 7.32324 10.5973 7.25202 10.5583C7.1808 10.5193 7.10123 10.4989 7.02041 10.4989C6.93958 10.4989 6.86001 10.5193 6.78879 10.5583C6.71758 10.5973 6.65692 10.6537 6.61224 10.7225L4.77225 13.5417L3.84082 12.0633C3.79649 11.9928 3.7355 11.9348 3.66347 11.8946C3.59144 11.8544 3.51066 11.8333 3.42857 11.8333C3.34648 11.8333 3.26571 11.8544 3.19367 11.8946C3.12164 11.9348 3.06066 11.9928 3.01633 12.0633L0.0775519 16.73C0.0300735 16.8055 0.00339019 16.8927 0.000302237 16.9824C-0.00278571 17.0721 0.0178355 17.161 0.0600019 17.2398C0.102168 17.3186 0.164325 17.3843 0.239948 17.4301C0.315572 17.4758 0.401874 17.5 0.489797 17.5H10.9388C11.0275 17.5001 11.1146 17.4757 11.1908 17.4292C11.2669 17.3827 11.3293 17.316 11.3712 17.2362C11.4131 17.1563 11.433 17.0664 11.4287 16.9759C11.4245 16.8854 11.3962 16.7978 11.3469 16.7225L7.42857 10.7225ZM1.38776 16.5L3.42857 13.2583L4.35265 14.725C4.39679 14.7941 4.457 14.851 4.52791 14.8906C4.59883 14.9302 4.67824 14.9513 4.75906 14.952C4.83989 14.9526 4.91962 14.9328 4.99115 14.8944C5.06267 14.856 5.12376 14.8001 5.16898 14.7317L7.01714 11.8983L10.0237 16.5H1.38776ZM15.8563 5.31333L11.2849 0.646667C11.1931 0.552872 11.0686 0.500117 10.9388 0.5H3.10204C2.79894 0.5 2.50825 0.622916 2.29392 0.841709C2.07959 1.0605 1.95918 1.35725 1.95918 1.66667V9C1.95918 9.13261 2.01079 9.25979 2.10264 9.35355C2.1945 9.44732 2.31908 9.5 2.44898 9.5C2.57888 9.5 2.70346 9.44732 2.79532 9.35355C2.88717 9.25979 2.93878 9.13261 2.93878 9V1.66667C2.93878 1.62246 2.95598 1.58007 2.9866 1.54882C3.01721 1.51756 3.05874 1.5 3.10204 1.5H10.449V5.66667C10.449 5.79927 10.5006 5.92645 10.5924 6.02022C10.6843 6.11399 10.8089 6.16667 10.9388 6.16667H15.0204V16.3333C15.0204 16.3775 15.0032 16.4199 14.9726 16.4512C14.942 16.4824 14.9004 16.5 14.8571 16.5H14.2041C14.0742 16.5 13.9496 16.5527 13.8577 16.6464C13.7659 16.7402 13.7143 16.8674 13.7143 17C13.7143 17.1326 13.7659 17.2598 13.8577 17.3536C13.9496 17.4473 14.0742 17.5 14.2041 17.5H14.8571C15.1602 17.5 15.4509 17.3771 15.6653 17.1583C15.8796 16.9395 16 16.6428 16 16.3333V5.66667C15.9999 5.5341 15.9482 5.40701 15.8563 5.31333ZM11.4286 2.20667L14.3282 5.16667H11.4286V2.20667Z" fill="#3A3886"/>
</svg>
