<svg width="16" height="16" viewBox="0 0 16 16" fill="none" xmlns="http://www.w3.org/2000/svg">
<path d="M5.26087 7.08696H10.4348M5.26087 9.52174H10.4348M8 15H1.6087C1.44726 15 1.29244 14.9359 1.17828 14.8217C1.06413 14.7076 1 14.5527 1 14.3913V8C1 6.14348 1.7375 4.36301 3.05025 3.05025C4.36301 1.7375 6.14348 1 8 1C8.91925 1 9.8295 1.18106 10.6788 1.53284C11.5281 1.88463 12.2997 2.40024 12.9497 3.05025C13.5998 3.70026 14.1154 4.47194 14.4672 5.32122C14.8189 6.17049 15 7.08075 15 8C15 8.91925 14.8189 9.8295 14.4672 10.6788C14.1154 11.5281 13.5998 12.2997 12.9497 12.9497C12.2997 13.5998 11.5281 14.1154 10.6788 14.4672C9.8295 14.8189 8.91925 15 8 15Z" stroke="#3A3886" stroke-linecap="round" stroke-linejoin="round"/>
</svg>
