<svg width="16" height="16" viewBox="0 0 16 16" fill="none" xmlns="http://www.w3.org/2000/svg">
<path d="M15.4119 12.3064C15.8175 11.4775 16.0187 10.5617 15.9986 9.63719C15.9785 8.71266 15.7376 7.80675 15.2964 6.99671C14.8552 6.18666 14.2268 5.49651 13.4647 4.9851C12.7027 4.47368 11.8297 4.15617 10.9201 4.05963C10.6312 3.34711 10.2034 2.70072 9.66208 2.159C9.12079 1.61728 8.47715 1.19133 7.76954 0.906559C7.06193 0.621785 6.30484 0.484018 5.54343 0.501474C4.78203 0.51893 4.0319 0.691252 3.33778 1.00816C2.64366 1.32507 2.01977 1.78008 1.50332 2.34605C0.986866 2.91202 0.588432 3.57735 0.331776 4.30238C0.07512 5.0274 -0.0344997 5.79727 0.00945421 6.56605C0.0534082 7.33484 0.250036 8.0868 0.58761 8.77709L0.0429513 10.6461C-0.00957261 10.824 -0.013544 11.0129 0.0314578 11.1929C0.0764595 11.3729 0.168759 11.5372 0.298583 11.6685C0.428407 11.7998 0.590923 11.8931 0.768921 11.9386C0.946919 11.9841 1.13377 11.9801 1.3097 11.927L3.1611 11.3763C3.76292 11.6766 4.41267 11.8665 5.08013 11.9373C5.37508 12.6659 5.81527 13.3254 6.37327 13.8746C6.93127 14.4238 7.59513 14.8509 8.3235 15.1294C9.05187 15.4078 9.82914 15.5316 10.6069 15.4931C11.3847 15.4546 12.1463 15.2546 12.8442 14.9055L14.6898 15.4562C14.8657 15.5093 15.0526 15.5134 15.2306 15.4679C15.4086 15.4224 15.5711 15.329 15.7009 15.1978C15.8308 15.0665 15.9231 14.9022 15.9681 14.7222C16.0131 14.5422 16.0091 14.3533 15.9566 14.1754L15.4119 12.3064ZM3.20037 10.4623C3.15879 10.4623 3.11741 10.4682 3.07748 10.48L1.0581 11.0807C1.03307 11.0881 1.00654 11.0885 0.981279 11.082C0.956023 11.0754 0.93297 11.0621 0.914534 11.0435C0.896099 11.0248 0.882958 11.0015 0.876487 10.976C0.870017 10.9505 0.870454 10.9236 0.877755 10.8983L1.47186 8.8565C1.50381 8.74521 1.49155 8.62571 1.43768 8.52343C0.894976 7.49721 0.735062 6.30797 0.987093 5.17249C1.23912 4.03702 1.88632 3.03093 2.81069 2.33763C3.73506 1.64432 4.87506 1.30998 6.02287 1.39554C7.17068 1.4811 8.24986 1.98087 9.06368 2.80374C9.87751 3.62662 10.3718 4.71779 10.4564 5.87836C10.541 7.03893 10.2104 8.1916 9.52467 9.12625C8.83899 10.0609 7.84397 10.7153 6.72098 10.9701C5.59799 11.225 4.42182 11.0633 3.40689 10.5145C3.34337 10.4801 3.27242 10.4622 3.20037 10.4623ZM14.5233 12.3858L15.1174 14.4276C15.1247 14.4529 15.1251 14.4797 15.1187 14.5053C15.1122 14.5308 15.0991 14.5541 15.0806 14.5728C15.0622 14.5914 15.0391 14.6047 15.0139 14.6112C14.9886 14.6178 14.9621 14.6173 14.9371 14.6099L12.9177 14.0092C12.8076 13.977 12.6895 13.9894 12.5883 14.0438C12.0245 14.3485 11.4062 14.5363 10.7696 14.5961C10.1331 14.6558 9.49112 14.5864 8.88147 14.3919C8.27182 14.1974 7.70674 13.8817 7.21942 13.4633C6.7321 13.045 6.33235 12.5324 6.04365 11.9556C6.85949 11.902 7.65419 11.6704 8.37317 11.2769C9.09215 10.8833 9.71839 10.3371 10.2089 9.67575C10.6994 9.01439 11.0425 8.25353 11.2148 7.44542C11.387 6.6373 11.3842 5.80108 11.2066 4.99415C11.948 5.13431 12.6462 5.44914 13.2447 5.91312C13.8432 6.3771 14.3252 6.97717 14.6515 7.66467C14.9778 8.35217 15.1392 9.10775 15.1228 9.87013C15.1063 10.6325 14.9124 11.3802 14.5567 12.0527C14.5039 12.1554 14.4926 12.2749 14.5255 12.3858H14.5233Z" fill="#3A3886"/>
</svg>
