<svg width="16" height="16" viewBox="0 0 16 16" fill="none" xmlns="http://www.w3.org/2000/svg">
<path d="M15.6652 3.98292L12.0173 0.334775C11.9112 0.228639 11.7852 0.144447 11.6465 0.0870056C11.5079 0.0295647 11.3593 0 11.2092 0C11.0591 0 10.9105 0.0295647 10.7718 0.0870056C10.6332 0.144447 10.5072 0.228639 10.401 0.334775L0.334677 10.4008C0.228344 10.5068 0.144029 10.6328 0.0865904 10.7715C0.0291514 10.9102 -0.000276615 11.0589 1.95942e-06 11.209V14.8571C1.95942e-06 15.1602 0.120403 15.4509 0.334718 15.6653C0.549033 15.8796 0.839707 16 1.14279 16H4.79075C4.94087 16.0003 5.08956 15.9708 5.22825 15.9134C5.36695 15.856 5.4929 15.7716 5.59887 15.6653L12.6319 8.63187L13.0082 10.1355L9.93903 13.2049C9.89297 13.2503 9.85635 13.3043 9.83128 13.3639C9.80622 13.4235 9.79319 13.4875 9.79297 13.5521C9.79274 13.6168 9.80532 13.6809 9.82998 13.7406C9.85463 13.8004 9.89088 13.8547 9.93662 13.9004C9.98236 13.9461 10.0367 13.9823 10.0965 14.0068C10.1563 14.0314 10.2204 14.0439 10.285 14.0436C10.3497 14.0433 10.4136 14.0302 10.4732 14.0051C10.5327 13.98 10.5867 13.9433 10.6321 13.8972L13.8972 10.6319C13.957 10.5721 14.0004 10.4978 14.023 10.4162C14.0456 10.3347 14.0467 10.2487 14.0262 10.1666L13.4401 7.82371L15.6652 5.59924C15.7714 5.49311 15.8556 5.36712 15.913 5.22845C15.9704 5.08979 16 4.94117 16 4.79108C16 4.64099 15.9704 4.49236 15.913 4.3537C15.8556 4.21504 15.7714 4.08904 15.6652 3.98292ZM0.979539 14.8571V12.1217L3.87897 15.0204H1.14279C1.0995 15.0204 1.05797 15.0032 1.02736 14.9726C0.996739 14.942 0.979539 14.9004 0.979539 14.8571ZM5.06094 14.8171L1.18198 10.9388L8.32606 3.79516L12.205 7.67351L5.06094 14.8171ZM14.9722 4.90618L12.8972 6.98127L9.01909 3.10211L11.0933 1.02783C11.1084 1.01265 11.1264 1.00061 11.1462 0.992394C11.1661 0.984178 11.1873 0.979949 11.2088 0.979949C11.2302 0.979949 11.2515 0.984178 11.2713 0.992394C11.2911 1.00061 11.3091 1.01265 11.3243 1.02783L14.9722 4.67516C14.9874 4.69032 14.9994 4.70833 15.0077 4.72815C15.0159 4.74797 15.0201 4.76921 15.0201 4.79067C15.0201 4.81212 15.0159 4.83337 15.0077 4.85319C14.9994 4.87301 14.9874 4.89102 14.9722 4.90618Z" fill="#3A3886"/>
</svg>
