<svg width="16" height="12" viewBox="0 0 16 12" fill="none" xmlns="http://www.w3.org/2000/svg">
<path d="M8.48807 8.6625C9.40069 8.18039 10.1247 7.40909 10.545 6.4713C10.9653 5.53352 11.0577 4.48312 10.8075 3.48719C10.5572 2.49127 9.97881 1.60703 9.16416 0.975138C8.34952 0.343247 7.34546 0 6.31172 0C5.27797 0 4.27392 0.343247 3.45927 0.975138C2.64463 1.60703 2.06619 2.49127 1.81598 3.48719C1.56576 4.48312 1.65815 5.53352 2.07843 6.4713C2.49871 7.40909 3.22275 8.18039 4.13537 8.6625C2.59086 9.09609 1.19519 9.99743 0.0908691 11.3031C0.0229145 11.3884 -0.00890642 11.4966 0.00215448 11.6048C0.0132154 11.713 0.0662882 11.8127 0.150118 11.8827C0.233947 11.9527 0.341941 11.9875 0.451195 11.9798C0.56045 11.972 0.662373 11.9223 0.735349 11.8412C2.17736 10.1396 4.15713 9.20205 6.31172 9.20205C8.4663 9.20205 10.4468 10.1396 11.8867 11.8412C11.9217 11.8851 11.9652 11.9216 12.0146 11.9485C12.064 11.9754 12.1184 11.9922 12.1745 11.9979C12.2306 12.0035 12.2873 11.9979 12.3411 11.9814C12.395 11.9649 12.445 11.9379 12.4882 11.9019C12.5313 11.8658 12.5667 11.8216 12.5923 11.7717C12.6179 11.7218 12.6332 11.6673 12.6372 11.6115C12.6412 11.5557 12.6339 11.4996 12.6157 11.4466C12.5975 11.3936 12.5687 11.3448 12.5312 11.3031C11.4268 9.99743 10.0326 9.09609 8.48807 8.6625ZM2.52066 4.60126C2.52066 3.85675 2.743 3.12897 3.15957 2.50993C3.57613 1.8909 4.16822 1.40842 4.86094 1.12351C5.55367 0.8386 6.31592 0.764054 7.05132 0.9093C7.78671 1.05455 8.46221 1.41306 8.9924 1.9395C9.52259 2.46595 9.88365 3.13668 10.0299 3.86688C10.1762 4.59708 10.1011 5.35395 9.8142 6.04179C9.52726 6.72962 9.04135 7.31752 8.41792 7.73115C7.79448 8.14477 7.06152 8.36554 6.31172 8.36554C5.30661 8.36444 4.34298 7.96749 3.63226 7.26179C2.92154 6.55609 2.52177 5.59927 2.52066 4.60126ZM13.1581 1.70066C13.5509 2.61795 13.7534 3.60448 13.7534 4.60126C13.7534 5.59803 13.5509 6.58457 13.1581 7.50185C13.109 7.59541 13.0262 7.66712 12.9262 7.70261C12.8261 7.7381 12.7163 7.73475 12.6186 7.69323C12.521 7.65172 12.4427 7.5751 12.3996 7.47872C12.3564 7.38235 12.3515 7.27333 12.3858 7.17352C12.7342 6.36007 12.9138 5.48521 12.9138 4.60126C12.9138 3.71731 12.7342 2.84244 12.3858 2.02899C12.3515 1.92918 12.3564 1.82017 12.3996 1.72379C12.4427 1.62742 12.521 1.5508 12.6186 1.50928C12.7163 1.46776 12.8261 1.46441 12.9262 1.4999C13.0262 1.53539 13.109 1.6071 13.1581 1.70066ZM16 4.60126C16.0026 5.90424 15.7369 7.19399 15.2193 8.39134C15.1709 8.48642 15.0879 8.5596 14.987 8.59594C14.8862 8.63228 14.7751 8.62904 14.6766 8.58688C14.5781 8.54473 14.4995 8.46683 14.4568 8.36909C14.4142 8.27135 14.4107 8.16113 14.4471 8.06092C14.9172 6.96725 15.1596 5.79041 15.1596 4.60126C15.1596 3.41211 14.9172 2.23526 14.4471 1.1416C14.4107 1.04139 14.4142 0.931166 14.4568 0.833425C14.4995 0.735684 14.5781 0.657789 14.6766 0.615634C14.7751 0.573478 14.8862 0.570239 14.987 0.606578C15.0879 0.642916 15.1709 0.716093 15.2193 0.811178C15.7369 2.00852 16.0026 3.29828 16 4.60126Z" fill="#3A3886"/>
</svg>
