<svg width="12" height="16" viewBox="0 0 12 16" fill="none" xmlns="http://www.w3.org/2000/svg">
<path d="M12 6.25455C12 6.37028 11.9559 6.48127 11.8774 6.5631C11.7989 6.64493 11.6924 6.69091 11.5814 6.69091C11.4704 6.69091 11.3639 6.64493 11.2854 6.5631C11.2069 6.48127 11.1628 6.37028 11.1628 6.25455C11.1628 4.8272 10.6189 3.45831 9.65064 2.44903C8.68243 1.43974 7.36926 0.872727 6 0.872727C4.63074 0.872727 3.31757 1.43974 2.34936 2.44903C1.38114 3.45831 0.837209 4.8272 0.837209 6.25455C0.837209 8.25818 1.45326 8.87709 2.10558 9.53309C2.40628 9.83491 2.71744 10.1476 2.95395 10.5855C3.21977 11.0771 3.34884 11.6582 3.34884 12.3636C3.34884 13.0966 3.62816 13.7995 4.12535 14.3178C4.62253 14.8361 5.29687 15.1273 6 15.1273C6.7493 15.1273 7.37372 14.7985 7.90953 14.1222C7.94453 14.078 7.98755 14.0414 8.03611 14.0145C8.08468 13.9876 8.13786 13.9709 8.1926 13.9655C8.24734 13.96 8.30258 13.9658 8.35517 13.9826C8.40775 13.9994 8.45665 14.0268 8.49907 14.0633C8.54149 14.0998 8.5766 14.1446 8.6024 14.1952C8.6282 14.2458 8.64418 14.3013 8.64942 14.3583C8.65467 14.4154 8.64908 14.473 8.63298 14.5278C8.61688 14.5826 8.59058 14.6336 8.55558 14.6778C7.86 15.5549 7.00047 16 6 16C5.07517 15.9988 4.18853 15.6154 3.53457 14.9337C2.88062 14.252 2.51274 13.3277 2.51163 12.3636C2.51163 11.1535 2.07628 10.7156 1.52442 10.1607C0.845581 9.47855 0 8.62836 0 6.25455C0 4.59574 0.632141 3.00487 1.75736 1.83191C2.88258 0.658959 4.4087 0 6 0C7.5913 0 9.11742 0.658959 10.2426 1.83191C11.3679 3.00487 12 4.59574 12 6.25455ZM9.40884 10.5316C9.31278 10.4739 9.19866 10.4582 9.09154 10.4881C8.98441 10.5179 8.89302 10.5909 8.83744 10.6909C8.7608 10.8299 8.64225 10.9386 8.50022 11.0001C8.35819 11.0616 8.20064 11.0725 8.05207 11.031C7.90351 10.9895 7.77225 10.8981 7.67872 10.7708C7.58519 10.6435 7.53462 10.4876 7.53488 10.3273C7.53488 9.6 7.88372 9.11491 8.28837 8.55273C8.72093 7.95273 9.2093 7.27273 9.2093 6.25455C9.2093 5.36728 8.87118 4.51635 8.26932 3.88895C7.66746 3.26156 6.85116 2.90909 6 2.90909C5.14884 2.90909 4.33254 3.26156 3.73068 3.88895C3.12882 4.51635 2.7907 5.36728 2.7907 6.25455C2.7907 6.37028 2.8348 6.48127 2.9133 6.5631C2.99181 6.64493 3.09828 6.69091 3.2093 6.69091C3.32032 6.69091 3.4268 6.64493 3.5053 6.5631C3.5838 6.48127 3.62791 6.37028 3.62791 6.25455C3.62791 5.59874 3.87782 4.96979 4.32268 4.50606C4.76753 4.04234 5.37088 3.78182 6 3.78182C6.62912 3.78182 7.23247 4.04234 7.67732 4.50606C8.12218 4.96979 8.37209 5.59874 8.37209 6.25455C8.37209 6.98182 8.02326 7.46691 7.6186 8.02909C7.18605 8.62909 6.69767 9.30909 6.69767 10.3273C6.69774 10.6794 6.80926 11.0217 7.01494 11.3011C7.22062 11.5805 7.50897 11.7813 7.83528 11.8724C8.16159 11.9636 8.50763 11.94 8.81976 11.8052C9.13188 11.6705 9.39265 11.4322 9.56163 11.1273C9.61704 11.0271 9.63207 10.9082 9.60343 10.7965C9.57478 10.6848 9.5048 10.5896 9.40884 10.5316Z" fill="#3A3886"/>
</svg>
