<svg width="16" height="16" viewBox="0 0 16 16" fill="none" xmlns="http://www.w3.org/2000/svg">
<path d="M14.8085 0H3.91489C3.59889 0 3.29583 0.125532 3.07238 0.348979C2.84894 0.572427 2.7234 0.875487 2.7234 1.19149V2.7234H1.19149C0.875487 2.7234 0.572427 2.84894 0.348979 3.07238C0.125532 3.29583 0 3.59889 0 3.91489V14.8085C0 15.1245 0.125532 15.4276 0.348979 15.651C0.572427 15.8745 0.875487 16 1.19149 16H12.0851C12.4011 16 12.7042 15.8745 12.9276 15.651C13.1511 15.4276 13.2766 15.1245 13.2766 14.8085V13.2766H14.8085C15.1245 13.2766 15.4276 13.1511 15.651 12.9276C15.8745 12.7042 16 12.4011 16 12.0851V1.19149C16 0.875487 15.8745 0.572427 15.651 0.348979C15.4276 0.125532 15.1245 0 14.8085 0ZM3.74468 1.19149C3.74468 1.14635 3.76261 1.10305 3.79453 1.07113C3.82646 1.03921 3.86975 1.02128 3.91489 1.02128H14.8085C14.8537 1.02128 14.8969 1.03921 14.9289 1.07113C14.9608 1.10305 14.9787 1.14635 14.9787 1.19149V7.50638L13.2681 5.79574C13.1574 5.68509 13.0261 5.59732 12.8815 5.53743C12.737 5.47755 12.582 5.44672 12.4255 5.44672C12.2691 5.44672 12.1141 5.47755 11.9695 5.53743C11.825 5.59732 11.6936 5.68509 11.583 5.79574L5.1234 12.2553H3.91489C3.86975 12.2553 3.82646 12.2374 3.79453 12.2055C3.76261 12.1735 3.74468 12.1302 3.74468 12.0851V1.19149ZM12.2553 14.8085C12.2553 14.8537 12.2374 14.8969 12.2055 14.9289C12.1735 14.9608 12.1302 14.9787 12.0851 14.9787H1.19149C1.14635 14.9787 1.10305 14.9608 1.07113 14.9289C1.03921 14.8969 1.02128 14.8537 1.02128 14.8085V3.91489C1.02128 3.86975 1.03921 3.82646 1.07113 3.79453C1.10305 3.76261 1.14635 3.74468 1.19149 3.74468H2.7234V12.0851C2.7234 12.4011 2.84894 12.7042 3.07238 12.9276C3.29583 13.1511 3.59889 13.2766 3.91489 13.2766H12.2553V14.8085ZM14.8085 12.2553H6.56766L12.3047 6.5183C12.3205 6.50247 12.3393 6.48992 12.3599 6.48135C12.3806 6.47279 12.4027 6.46838 12.4251 6.46838C12.4475 6.46838 12.4696 6.47279 12.4903 6.48135C12.511 6.48992 12.5297 6.50247 12.5455 6.5183L14.9787 8.95064V12.0851C14.9787 12.1302 14.9608 12.1735 14.9289 12.2055C14.8969 12.2374 14.8537 12.2553 14.8085 12.2553ZM7.31915 6.46808C7.68946 6.46808 8.05146 6.35827 8.35937 6.15254C8.66727 5.9468 8.90725 5.65438 9.04897 5.31226C9.19068 4.97013 9.22776 4.59367 9.15551 4.23047C9.08327 3.86727 8.90495 3.53365 8.64309 3.2718C8.38124 3.00995 8.04762 2.83163 7.68442 2.75938C7.32123 2.68714 6.94476 2.72421 6.60263 2.86593C6.26051 3.00764 5.96809 3.24762 5.76235 3.55553C5.55662 3.86343 5.44681 4.22543 5.44681 4.59574C5.44681 5.09232 5.64407 5.56856 5.9952 5.91969C6.34634 6.27082 6.82257 6.46808 7.31915 6.46808ZM7.31915 3.74468C7.48747 3.74468 7.65202 3.79459 7.79197 3.88811C7.93193 3.98163 8.04101 4.11454 8.10543 4.27006C8.16984 4.42557 8.1867 4.59669 8.15386 4.76178C8.12102 4.92687 8.03996 5.07851 7.92094 5.19754C7.80192 5.31656 7.65027 5.39762 7.48518 5.43046C7.32009 5.46329 7.14897 5.44644 6.99346 5.38202C6.83795 5.31761 6.70503 5.20853 6.61152 5.06857C6.518 4.92861 6.46808 4.76407 6.46808 4.59574C6.46808 4.37003 6.55775 4.15356 6.71736 3.99395C6.87696 3.83435 7.09343 3.74468 7.31915 3.74468Z" fill="#3A3886"/>
</svg>
