<svg width="4" height="14" viewBox="0 0 4 14" fill="none" xmlns="http://www.w3.org/2000/svg">
<path d="M3.5 7C3.5 7.34612 3.39736 7.68446 3.20507 7.97225C3.01278 8.26003 2.73947 8.48434 2.4197 8.61679C2.09993 8.74924 1.74806 8.7839 1.40859 8.71638C1.06913 8.64885 0.757306 8.48218 0.512564 8.23744C0.267822 7.9927 0.101151 7.68088 0.0336265 7.34141C-0.0338976 7.00194 0.000758246 6.65008 0.133212 6.33031C0.265665 6.01053 0.489967 5.73722 0.777753 5.54493C1.06554 5.35264 1.40388 5.25 1.75 5.25C2.21413 5.25 2.65925 5.43438 2.98744 5.76256C3.31563 6.09075 3.5 6.53587 3.5 7ZM1.75 3.75C2.09612 3.75 2.43446 3.64737 2.72225 3.45507C3.01004 3.26278 3.23434 2.98947 3.36679 2.6697C3.49924 2.34993 3.5339 1.99806 3.46638 1.65859C3.39885 1.31913 3.23218 1.00731 2.98744 0.762564C2.7427 0.517822 2.43088 0.351151 2.09141 0.283627C1.75194 0.216102 1.40008 0.250758 1.08031 0.383212C0.760534 0.515665 0.487221 0.739967 0.294929 1.02775C0.102637 1.31554 9.42654e-07 1.65388 9.42654e-07 2C9.42654e-07 2.46413 0.184376 2.90925 0.512564 3.23744C0.840753 3.56563 1.28587 3.75 1.75 3.75ZM1.75 10.25C1.40388 10.25 1.06554 10.3526 0.777753 10.5449C0.489967 10.7372 0.265665 11.0105 0.133212 11.3303C0.000758246 11.6501 -0.0338976 12.0019 0.0336265 12.3414C0.101151 12.6809 0.267822 12.9927 0.512564 13.2374C0.757306 13.4822 1.06913 13.6489 1.40859 13.7164C1.74806 13.7839 2.09993 13.7492 2.4197 13.6168C2.73947 13.4843 3.01278 13.26 3.20507 12.9722C3.39736 12.6845 3.5 12.3461 3.5 12C3.5 11.5359 3.31563 11.0908 2.98744 10.7626C2.65925 10.4344 2.21413 10.25 1.75 10.25Z" fill="#979797"/>
</svg>
