<svg width="16" height="16" viewBox="0 0 16 16" fill="none" xmlns="http://www.w3.org/2000/svg">
<path d="M14.8085 0H1.19149C0.875487 0 0.572427 0.125532 0.348979 0.348979C0.125532 0.572427 0 0.875487 0 1.19149V14.8085C0 15.1245 0.125532 15.4276 0.348979 15.651C0.572427 15.8745 0.875487 16 1.19149 16H14.8085C15.1245 16 15.4276 15.8745 15.651 15.651C15.8745 15.4276 16 15.1245 16 14.8085V1.19149C16 0.875487 15.8745 0.572427 15.651 0.348979C15.4276 0.125532 15.1245 0 14.8085 0ZM14.9787 14.8085C14.9787 14.8537 14.9608 14.8969 14.9289 14.9289C14.8969 14.9608 14.8537 14.9787 14.8085 14.9787H1.19149C1.14635 14.9787 1.10305 14.9608 1.07113 14.9289C1.03921 14.8969 1.02128 14.8537 1.02128 14.8085V1.19149C1.02128 1.14635 1.03921 1.10305 1.07113 1.07113C1.10305 1.03921 1.14635 1.02128 1.19149 1.02128H14.8085C14.8537 1.02128 14.8969 1.03921 14.9289 1.07113C14.9608 1.10305 14.9787 1.14635 14.9787 1.19149V14.8085ZM10.7234 4.76596H5.2766C5.14117 4.76596 5.01128 4.81976 4.91552 4.91552C4.81976 5.01128 4.76596 5.14117 4.76596 5.2766V10.7234C4.76596 10.8588 4.81976 10.9887 4.91552 11.0845C5.01128 11.1802 5.14117 11.234 5.2766 11.234H10.7234C10.8588 11.234 10.9887 11.1802 11.0845 11.0845C11.1802 10.9887 11.234 10.8588 11.234 10.7234V5.2766C11.234 5.14117 11.1802 5.01128 11.0845 4.91552C10.9887 4.81976 10.8588 4.76596 10.7234 4.76596ZM10.2128 10.2128H5.78723V5.78723H10.2128V10.2128Z" fill="#3A3886"/>
</svg>
