<svg width="16" height="16" viewBox="0 0 16 16" fill="none" xmlns="http://www.w3.org/2000/svg">
<path d="M5.16277 10.8372C5.76932 11.4405 6.25018 12.1581 6.57751 12.9485C6.90484 13.7389 7.07215 14.5864 7.06974 15.4419C7.06974 15.5899 7.01094 15.7319 6.90627 15.8365C6.8016 15.9412 6.65963 16 6.51161 16C6.36358 16 6.22161 15.9412 6.11694 15.8365C6.01227 15.7319 5.95347 15.5899 5.95347 15.4419C5.95347 14.0109 5.38503 12.6386 4.37321 11.6268C3.36139 10.615 1.98907 10.0465 0.558138 10.0465C0.410111 10.0465 0.268146 9.98773 0.163475 9.88306C0.058804 9.77839 5.02138e-07 9.63642 5.02138e-07 9.48839C5.02138e-07 9.34037 0.058804 9.1984 0.163475 9.09373C0.268146 8.98906 0.410111 8.93026 0.558138 8.93026C1.41362 8.92785 2.26109 9.09516 3.05148 9.42249C3.84187 9.74982 4.55948 10.2307 5.16277 10.8372ZM0.558138 4.46516C0.410111 4.46516 0.268146 4.52396 0.163475 4.62863C0.058804 4.7333 5.02138e-07 4.87527 5.02138e-07 5.02329C5.02138e-07 5.17132 0.058804 5.31329 0.163475 5.41796C0.268146 5.52263 0.410111 5.58143 0.558138 5.58143C3.17329 5.58143 5.68133 6.6203 7.53052 8.46949C9.3797 10.3187 10.4186 12.8267 10.4186 15.4419C10.4186 15.5899 10.4774 15.7319 10.582 15.8365C10.6867 15.9412 10.8287 16 10.9767 16C11.1247 16 11.2667 15.9412 11.3714 15.8365C11.476 15.7319 11.5348 15.5899 11.5348 15.4419C11.5348 14.0004 11.2509 12.573 10.6993 11.2413C10.1477 9.9095 9.33912 8.69944 8.31984 7.68016C7.30056 6.66088 6.0905 5.85234 4.75874 5.30071C3.42699 4.74908 1.99962 4.46516 0.558138 4.46516ZM11.4772 4.52283C10.0466 3.08446 8.34491 1.94411 6.47066 1.16777C4.59641 0.39144 2.5868 -0.00545599 0.558138 5.66461e-05C0.410111 5.66461e-05 0.268146 0.0588602 0.163475 0.163531C0.058804 0.268202 5.02138e-07 0.410167 5.02138e-07 0.558194C5.02138e-07 0.706222 0.058804 0.848186 0.163475 0.952857C0.268146 1.05753 0.410111 1.11633 0.558138 1.11633C2.44011 1.11134 4.30438 1.47965 6.04306 2.19994C7.78174 2.92022 9.36031 3.97818 10.6874 5.3126C12.0218 6.63969 13.0798 8.21826 13.8001 9.95694C14.5204 11.6956 14.8887 13.5599 14.8837 15.4419C14.8837 15.5899 14.9425 15.7319 15.0471 15.8365C15.1518 15.9412 15.2938 16 15.4418 16C15.5898 16 15.7318 15.9412 15.8365 15.8365C15.9411 15.7319 15.9999 15.5899 15.9999 15.4419C16.0055 13.4132 15.6086 11.4036 14.8322 9.52934C14.0559 7.65509 12.9155 5.95342 11.4772 4.52283ZM0.93023 14.1395C0.746248 14.1395 0.566397 14.1941 0.413422 14.2963C0.260447 14.3985 0.141217 14.5438 0.0708099 14.7138C0.000403055 14.8838 -0.0180186 15.0708 0.0178745 15.2512C0.0537676 15.4317 0.142363 15.5974 0.272458 15.7275C0.402553 15.8576 0.568304 15.9462 0.748751 15.9821C0.929198 16.018 1.11624 15.9996 1.28621 15.9292C1.45619 15.8588 1.60147 15.7396 1.70369 15.5866C1.8059 15.4336 1.86046 15.2538 1.86046 15.0698C1.86046 14.8231 1.76245 14.5865 1.588 14.412C1.41355 14.2375 1.17694 14.1395 0.93023 14.1395Z" fill="#3A3886"/>
</svg>
