<svg width="16" height="16" viewBox="0 0 16 16" fill="none" xmlns="http://www.w3.org/2000/svg">
<path d="M3.53488 1.55346e-06C2.83575 1.55346e-06 2.15232 0.207319 1.57101 0.595737C0.9897 0.984155 0.536626 1.53623 0.269079 2.18214C0.0015316 2.82806 -0.0684709 3.53881 0.0679234 4.22451C0.204318 4.91021 0.540983 5.54006 1.03535 6.03442C1.52971 6.52879 2.15956 6.86545 2.84526 7.00185C3.53096 7.13824 4.24171 7.06824 4.88763 6.80069C5.53354 6.53314 6.08561 6.08007 6.47403 5.49876C6.86245 4.91745 7.06977 4.23402 7.06977 3.53488C7.06977 2.59738 6.69734 1.69826 6.03442 1.03535C5.37151 0.372426 4.47239 1.55346e-06 3.53488 1.55346e-06ZM3.53488 5.95349C3.05653 5.95349 2.58892 5.81164 2.19118 5.54588C1.79344 5.28012 1.48344 4.90239 1.30039 4.46044C1.11733 4.0185 1.06943 3.5322 1.16275 3.06304C1.25608 2.59387 1.48643 2.16292 1.82467 1.82467C2.16292 1.48643 2.59387 1.25608 3.06304 1.16275C3.5322 1.06943 4.0185 1.11733 4.46044 1.30039C4.90239 1.48344 5.28012 1.79344 5.54588 2.19118C5.81164 2.58892 5.95349 3.05653 5.95349 3.53488C5.95349 3.8525 5.89093 4.16701 5.76938 4.46044C5.64784 4.75388 5.46968 5.02051 5.2451 5.2451C5.02051 5.46968 4.75388 5.64784 4.46044 5.76938C4.16701 5.89093 3.8525 5.95349 3.53488 5.95349ZM12.4651 7.06977C13.1642 7.06977 13.8477 6.86245 14.429 6.47403C15.0103 6.08561 15.4634 5.53354 15.7309 4.88763C15.9985 4.24171 16.0685 3.53096 15.9321 2.84526C15.7957 2.15956 15.459 1.52971 14.9647 1.03535C14.4703 0.540983 13.8404 0.204318 13.1547 0.0679234C12.469 -0.0684709 11.7583 0.0015316 11.1124 0.269079C10.4665 0.536626 9.91439 0.9897 9.52597 1.57101C9.13755 2.15232 8.93023 2.83575 8.93023 3.53488C8.93023 4.47239 9.30266 5.37151 9.96558 6.03442C10.6285 6.69734 11.5276 7.06977 12.4651 7.06977ZM12.4651 1.11628C12.9435 1.11628 13.4111 1.25813 13.8088 1.52389C14.2066 1.78965 14.5166 2.16738 14.6996 2.60933C14.8827 3.05127 14.9306 3.53757 14.8372 4.00673C14.7439 4.47589 14.5136 4.90685 14.1753 5.2451C13.8371 5.58334 13.4061 5.81369 12.937 5.90702C12.4678 6.00034 11.9815 5.95244 11.5396 5.76938C11.0976 5.58633 10.7199 5.27633 10.4541 4.87859C10.1884 4.48085 10.0465 4.01324 10.0465 3.53488C10.0465 2.89343 10.3013 2.27825 10.7549 1.82467C11.2085 1.3711 11.8237 1.11628 12.4651 1.11628ZM3.53488 8.93023C2.83575 8.93023 2.15232 9.13755 1.57101 9.52597C0.9897 9.91439 0.536626 10.4665 0.269079 11.1124C0.0015316 11.7583 -0.0684709 12.469 0.0679234 13.1547C0.204318 13.8404 0.540983 14.4703 1.03535 14.9647C1.52971 15.459 2.15956 15.7957 2.84526 15.9321C3.53096 16.0685 4.24171 15.9985 4.88763 15.7309C5.53354 15.4634 6.08561 15.0103 6.47403 14.429C6.86245 13.8477 7.06977 13.1642 7.06977 12.4651C7.06977 11.5276 6.69734 10.6285 6.03442 9.96558C5.37151 9.30266 4.47239 8.93023 3.53488 8.93023ZM3.53488 14.8837C3.05653 14.8837 2.58892 14.7419 2.19118 14.4761C1.79344 14.2104 1.48344 13.8326 1.30039 13.3907C1.11733 12.9487 1.06943 12.4624 1.16275 11.9933C1.25608 11.5241 1.48643 11.0932 1.82467 10.7549C2.16292 10.4167 2.59387 10.1863 3.06304 10.093C3.5322 9.99966 4.0185 10.0476 4.46044 10.2306C4.90239 10.4137 5.28012 10.7237 5.54588 11.1214C5.81164 11.5191 5.95349 11.9868 5.95349 12.4651C5.95349 12.7827 5.89093 13.0972 5.76938 13.3907C5.64784 13.6841 5.46968 13.9507 5.2451 14.1753C5.02051 14.3999 4.75388 14.5781 4.46044 14.6996C4.16701 14.8212 3.8525 14.8837 3.53488 14.8837ZM12.4651 8.93023C11.766 8.93023 11.0825 9.13755 10.5012 9.52597C9.91993 9.91439 9.46686 10.4665 9.19931 11.1124C8.93176 11.7583 8.86176 12.469 8.99815 13.1547C9.13455 13.8404 9.47121 14.4703 9.96558 14.9647C10.4599 15.459 11.0898 15.7957 11.7755 15.9321C12.4612 16.0685 13.1719 15.9985 13.8179 15.7309C14.4638 15.4634 15.0158 15.0103 15.4043 14.429C15.7927 13.8477 16 13.1642 16 12.4651C16 11.5276 15.6276 10.6285 14.9647 9.96558C14.3017 9.30266 13.4026 8.93023 12.4651 8.93023ZM12.4651 14.8837C11.9868 14.8837 11.5191 14.7419 11.1214 14.4761C10.7237 14.2104 10.4137 13.8326 10.2306 13.3907C10.0476 12.9487 9.99966 12.4624 10.093 11.9933C10.1863 11.5241 10.4167 11.0932 10.7549 10.7549C11.0932 10.4167 11.5241 10.1863 11.9933 10.093C12.4624 9.99966 12.9487 10.0476 13.3907 10.2306C13.8326 10.4137 14.2104 10.7237 14.4761 11.1214C14.7419 11.5191 14.8837 11.9868 14.8837 12.4651C14.8837 13.1066 14.6289 13.7218 14.1753 14.1753C13.7218 14.6289 13.1066 14.8837 12.4651 14.8837Z" fill="#3A3886"/>
</svg>
