<svg width="18" height="12" viewBox="0 0 18 12" fill="none" xmlns="http://www.w3.org/2000/svg">
<path d="M17.0824 5.83441C17.0577 5.78127 16.4542 4.52406 15.1063 3.258C13.8557 2.08461 11.7069 0.684998 8.56 0.684998C5.41307 0.684998 3.26434 2.08461 2.0137 3.258C0.665841 4.52406 0.0622813 5.77922 0.0376166 5.83441C0.0128158 5.88675 0 5.94339 0 6.00068C0 6.05796 0.0128158 6.11461 0.0376166 6.16694C0.0622813 6.21941 0.665841 7.47661 2.0137 8.74267C3.26434 9.91606 5.41307 11.315 8.56 11.315C11.7069 11.315 13.8557 9.91606 15.1063 8.74267C16.4542 7.47661 17.0577 6.22146 17.0824 6.16694C17.1072 6.11461 17.12 6.05796 17.12 6.00068C17.12 5.94339 17.1072 5.88675 17.0824 5.83441ZM8.56 10.4973C6.28359 10.4973 4.29591 9.71914 2.65135 8.18528C1.96195 7.54172 1.37858 6.80519 0.920468 6C1.37845 5.19493 1.96184 4.45861 2.65135 3.8154C4.29591 2.28086 6.28359 1.50269 8.56 1.50269C10.8364 1.50269 12.8241 2.28086 14.4687 3.8154C15.1582 4.45861 15.7416 5.19493 16.1995 6C15.7374 6.832 13.4204 10.4973 8.56 10.4973ZM8.56 2.86551C7.90001 2.86551 7.25483 3.04934 6.70607 3.39377C6.1573 3.73819 5.72959 4.22773 5.47702 4.80048C5.22445 5.37323 5.15837 6.00347 5.28713 6.61151C5.41589 7.21954 5.73371 7.77805 6.20039 8.21642C6.66708 8.65478 7.26167 8.95331 7.90899 9.07426C8.5563 9.1952 9.22726 9.13313 9.83701 8.89589C10.4468 8.65864 10.9679 8.25689 11.3346 7.74143C11.7013 7.22596 11.897 6.61994 11.897 6C11.8958 5.16901 11.5439 4.37237 10.9183 3.78478C10.2928 3.19718 9.44467 2.86659 8.56 2.86551ZM8.56 8.31679C8.07218 8.31679 7.59531 8.18092 7.1897 7.92634C6.78409 7.67177 6.46796 7.30994 6.28128 6.8866C6.0946 6.46326 6.04575 5.99743 6.14092 5.54801C6.23609 5.0986 6.471 4.68579 6.81594 4.36178C7.16088 4.03777 7.60037 3.81711 8.07882 3.72772C8.55727 3.63833 9.05319 3.68421 9.50388 3.85956C9.95457 4.03491 10.3398 4.33186 10.6108 4.71286C10.8818 5.09385 11.0265 5.54178 11.0265 6C11.0265 6.61445 10.7666 7.20374 10.3041 7.63822C9.84151 8.0727 9.21415 8.31679 8.56 8.31679Z" fill="#3A3886"/>
</svg>
