<svg width="16" height="16" viewBox="0 0 16 16" fill="none" xmlns="http://www.w3.org/2000/svg">
<path d="M7.69811 4.92308H15.5472C15.6673 4.92308 15.7824 4.98791 15.8674 5.10332C15.9523 5.21873 16 5.37525 16 5.53846C16 5.70167 15.9523 5.8582 15.8674 5.9736C15.7824 6.08901 15.6673 6.15385 15.5472 6.15385H7.69811C7.57802 6.15385 7.46284 6.08901 7.37791 5.9736C7.29299 5.8582 7.24528 5.70167 7.24528 5.53846C7.24528 5.37525 7.29299 5.21873 7.37791 5.10332C7.46284 4.98791 7.57802 4.92308 7.69811 4.92308ZM15.5472 8.20513H7.69811C7.57802 8.20513 7.46284 8.26996 7.37791 8.38537C7.29299 8.50078 7.24528 8.6573 7.24528 8.82051C7.24528 8.98372 7.29299 9.14025 7.37791 9.25566C7.46284 9.37106 7.57802 9.4359 7.69811 9.4359H15.5472C15.6673 9.4359 15.7824 9.37106 15.8674 9.25566C15.9523 9.14025 16 8.98372 16 8.82051C16 8.6573 15.9523 8.50078 15.8674 8.38537C15.7824 8.26996 15.6673 8.20513 15.5472 8.20513ZM15.5472 11.4872H4.07547C3.95537 11.4872 3.84019 11.552 3.75527 11.6674C3.67035 11.7828 3.62264 11.9394 3.62264 12.1026C3.62264 12.2658 3.67035 12.4223 3.75527 12.5377C3.84019 12.6531 3.95537 12.7179 4.07547 12.7179H15.5472C15.6673 12.7179 15.7824 12.6531 15.8674 12.5377C15.9523 12.4223 16 12.2658 16 12.1026C16 11.9394 15.9523 11.7828 15.8674 11.6674C15.7824 11.552 15.6673 11.4872 15.5472 11.4872ZM15.5472 14.7692H4.07547C3.95537 14.7692 3.84019 14.8341 3.75527 14.9495C3.67035 15.0649 3.62264 15.2214 3.62264 15.3846C3.62264 15.5478 3.67035 15.7044 3.75527 15.8198C3.84019 15.9352 3.95537 16 4.07547 16H15.5472C15.6673 16 15.7824 15.9352 15.8674 15.8198C15.9523 15.7044 16 15.5478 16 15.3846C16 15.2214 15.9523 15.0649 15.8674 14.9495C15.7824 14.8341 15.6673 14.7692 15.5472 14.7692ZM5.28302 9.4359C5.40312 9.4359 5.5183 9.37106 5.60322 9.25566C5.68814 9.14025 5.73585 8.98372 5.73585 8.82051C5.73585 8.6573 5.68814 8.50078 5.60322 8.38537C5.5183 8.26996 5.40312 8.20513 5.28302 8.20513H4.5283V1.23077H7.24528V2.25641C7.24528 2.41962 7.29299 2.57615 7.37791 2.69155C7.46284 2.80696 7.57802 2.87179 7.69811 2.87179C7.81821 2.87179 7.93339 2.80696 8.01831 2.69155C8.10324 2.57615 8.15094 2.41962 8.15094 2.25641V0.615385C8.15094 0.452174 8.10324 0.295649 8.01831 0.180242C7.93339 0.0648349 7.81821 0 7.69811 0H0.45283C0.332732 0 0.217553 0.0648349 0.132631 0.180242C0.0477087 0.295649 0 0.452174 0 0.615385V2.25641C0 2.41962 0.0477087 2.57615 0.132631 2.69155C0.217553 2.80696 0.332732 2.87179 0.45283 2.87179C0.572928 2.87179 0.688107 2.80696 0.77303 2.69155C0.857952 2.57615 0.90566 2.41962 0.90566 2.25641V1.23077H3.62264V8.20513H2.86792C2.74783 8.20513 2.63265 8.26996 2.54773 8.38537C2.4628 8.50078 2.41509 8.6573 2.41509 8.82051C2.41509 8.98372 2.4628 9.14025 2.54773 9.25566C2.63265 9.37106 2.74783 9.4359 2.86792 9.4359H5.28302Z" fill="#3A3886"/>
</svg>
