<svg width="16" height="16" viewBox="0 0 16 16" fill="none" xmlns="http://www.w3.org/2000/svg">
<path d="M8 0C6.41775 0 4.87103 0.469192 3.55544 1.34824C2.23985 2.22729 1.21447 3.47672 0.608967 4.93853C0.00346614 6.40034 -0.15496 8.00887 0.153721 9.56072C0.462403 11.1126 1.22433 12.538 2.34315 13.6569C3.46197 14.7757 4.88743 15.5376 6.43928 15.8463C7.99113 16.155 9.59966 15.9965 11.0615 15.391C12.5233 14.7855 13.7727 13.7602 14.6518 12.4446C15.5308 11.129 16 9.58225 16 8C15.9975 5.87903 15.1539 3.84565 13.6541 2.3459C12.1544 0.846145 10.121 0.00249086 8 0ZM14.3976 5.01961H11.2306C10.8531 3.56461 10.1646 2.20876 9.21255 1.04549C10.3324 1.24295 11.3882 1.70717 12.2908 2.39891C13.1933 3.09065 13.9159 3.98955 14.3976 5.01961ZM15.0588 8C15.0594 8.6908 14.9581 9.37791 14.7584 10.0392H11.4361C11.6651 8.68938 11.6651 7.31061 11.4361 5.96078H14.7584C14.9581 6.62209 15.0594 7.3092 15.0588 8ZM8 14.8886C7.54691 14.4264 7.14727 13.9147 6.80863 13.3631C6.35163 12.6197 5.99656 11.8183 5.75294 10.9804H10.2471C10.0034 11.8183 9.64837 12.6197 9.19137 13.3631C8.85273 13.9147 8.45309 14.4264 8 14.8886ZM5.52549 10.0392C5.26928 8.69181 5.26928 7.30819 5.52549 5.96078H10.4745C10.7307 7.30819 10.7307 8.69181 10.4745 10.0392H5.52549ZM0.94118 8C0.940652 7.3092 1.04187 6.62209 1.24157 5.96078H4.56392C4.3349 7.31061 4.3349 8.68938 4.56392 10.0392H1.24157C1.04187 9.37791 0.940652 8.6908 0.94118 8ZM8 1.11137C8.45309 1.57357 8.85273 2.08529 9.19137 2.63686C9.64837 3.38026 10.0034 4.18167 10.2471 5.01961H5.75294C5.99656 4.18167 6.35163 3.38026 6.80863 2.63686C7.14727 2.08529 7.54691 1.57357 8 1.11137ZM6.78745 1.04549C5.83543 2.20876 5.14694 3.56461 4.76941 5.01961H1.60236C2.08406 3.98955 2.80673 3.09065 3.70925 2.39891C4.61177 1.70717 5.66761 1.24295 6.78745 1.04549ZM1.60236 10.9804H4.76941C5.14694 12.4354 5.83543 13.7912 6.78745 14.9545C5.66761 14.757 4.61177 14.2928 3.70925 13.6011C2.80673 12.9093 2.08406 12.0104 1.60236 10.9804ZM9.2102 14.9545C10.1631 13.7914 10.8524 12.4356 11.2306 10.9804H14.3976C13.9159 12.0104 13.1933 12.9093 12.2908 13.6011C11.3882 14.2928 10.3324 14.757 9.21255 14.9545H9.2102Z" fill="#3A3886"/>
</svg>
