<svg width="16" height="12" viewBox="0 0 16 12" fill="none" xmlns="http://www.w3.org/2000/svg">
<path d="M0 0.971429C0 0.846398 0.0495809 0.726488 0.137836 0.638078C0.22609 0.549668 0.345789 0.5 0.4706 0.5H14.2749C14.3997 0.5 14.5194 0.549668 14.6076 0.638078C14.6959 0.726488 14.7455 0.846398 14.7455 0.971429C14.7455 1.09646 14.6959 1.21637 14.6076 1.30478C14.5194 1.39319 14.3997 1.44286 14.2749 1.44286H0.4706C0.345789 1.44286 0.22609 1.39319 0.137836 1.30478C0.0495809 1.21637 0 1.09646 0 0.971429ZM0.4706 6.47143H6.11781C6.24262 6.47143 6.36232 6.42176 6.45057 6.33335C6.53882 6.24494 6.58841 6.12503 6.58841 6C6.58841 5.87497 6.53882 5.75506 6.45057 5.66665C6.36232 5.57824 6.24262 5.52857 6.11781 5.52857H0.4706C0.345789 5.52857 0.22609 5.57824 0.137836 5.66665C0.0495809 5.75506 0 5.87497 0 6C0 6.12503 0.0495809 6.24494 0.137836 6.33335C0.22609 6.42176 0.345789 6.47143 0.4706 6.47143ZM7.37274 10.5571H0.4706C0.345789 10.5571 0.22609 10.6068 0.137836 10.6952C0.0495809 10.7836 0 10.9035 0 11.0286C0 11.1536 0.0495809 11.2735 0.137836 11.3619C0.22609 11.4503 0.345789 11.5 0.4706 11.5H7.37274C7.49755 11.5 7.61725 11.4503 7.7055 11.3619C7.79376 11.2735 7.84334 11.1536 7.84334 11.0286C7.84334 10.9035 7.79376 10.7836 7.7055 10.6952C7.61725 10.6068 7.49755 10.5571 7.37274 10.5571ZM15.8624 11.3617C15.7741 11.45 15.6545 11.4996 15.5298 11.4996C15.4051 11.4996 15.2855 11.45 15.1973 11.3617L13.5117 9.674C12.9037 10.1153 12.152 10.3109 11.4065 10.2217C10.6609 10.1326 9.97629 9.76528 9.48904 9.19302C9.00179 8.62075 8.7477 7.88556 8.77742 7.134C8.80715 6.38243 9.1185 5.66969 9.64942 5.13783C10.1803 4.60598 10.8918 4.29407 11.6421 4.2643C12.3923 4.23452 13.1262 4.48906 13.6975 4.97717C14.2687 5.46528 14.6354 6.15111 14.7244 6.89797C14.8134 7.64482 14.6182 8.39784 14.1776 9.00693L15.8624 10.6954C15.9505 10.7838 16 10.9036 16 11.0286C16 11.1535 15.9505 11.2733 15.8624 11.3617ZM11.765 9.3C12.1683 9.3 12.5626 9.18019 12.898 8.95572C13.2333 8.73125 13.4947 8.41219 13.649 8.03891C13.8034 7.66563 13.8438 7.25488 13.7651 6.8586C13.6864 6.46233 13.4922 6.09832 13.207 5.81262C12.9218 5.52693 12.5584 5.33236 12.1629 5.25354C11.7673 5.17471 11.3572 5.21517 10.9846 5.36979C10.612 5.52441 10.2935 5.78625 10.0694 6.12219C9.84534 6.45814 9.72574 6.8531 9.72574 7.25714C9.72574 7.79894 9.94059 8.31855 10.323 8.70166C10.7055 9.08477 11.2242 9.3 11.765 9.3Z" fill="#3A3886"/>
</svg>
