<svg width="15" height="16" viewBox="0 0 15 16" fill="none" xmlns="http://www.w3.org/2000/svg">
<path d="M14.0741 6.37727C13.8082 6.09977 13.5334 5.81341 13.423 5.54682C13.3207 5.29932 13.3152 4.93318 13.3091 4.54591C13.2995 3.90636 13.2886 3.18227 12.8032 2.69682C12.3177 2.21136 11.5909 2.20045 10.9541 2.19091C10.5668 2.18477 10.2041 2.17932 9.95318 2.07705C9.68659 1.96659 9.40023 1.69182 9.12273 1.42591C8.67 0.992273 8.15727 0.5 7.5 0.5C6.84273 0.5 6.33 0.992273 5.87727 1.42591C5.59977 1.69182 5.31341 1.96659 5.04682 2.07705C4.79932 2.17932 4.43318 2.18477 4.04591 2.19091C3.40636 2.20045 2.68227 2.21136 2.19682 2.69682C1.71136 3.18227 1.70045 3.90909 1.69091 4.54591C1.68477 4.93318 1.67932 5.29591 1.57705 5.54682C1.46659 5.81341 1.19182 6.09977 0.925909 6.37727C0.492273 6.83 0 7.34273 0 8C0 8.65727 0.492273 9.17 0.925909 9.62273C1.19182 9.90023 1.46659 10.1866 1.57705 10.4532C1.67932 10.7007 1.68477 11.0668 1.69091 11.4541C1.70045 12.0936 1.71136 12.8177 2.19682 13.3032C2.68227 13.7886 3.40909 13.7995 4.04591 13.8091C4.43318 13.8152 4.79591 13.8207 5.04682 13.923C5.31341 14.0334 5.59977 14.3082 5.87727 14.5741C6.33 15.0077 6.84273 15.5 7.5 15.5C8.15727 15.5 8.67 15.0077 9.12273 14.5741C9.40023 14.3082 9.68659 14.0334 9.95318 13.923C10.2007 13.8207 10.5668 13.8152 10.9541 13.8091C11.5936 13.7995 12.3177 13.7886 12.8032 13.3032C13.2886 12.8177 13.2995 12.0936 13.3091 11.4541C13.3152 11.0668 13.3207 10.7041 13.423 10.4532C13.5334 10.1866 13.8082 9.90023 14.0741 9.62273C14.5077 9.17 15 8.65727 15 8C15 7.34273 14.5077 6.83 14.0741 6.37727ZM13.4836 9.05682C13.1652 9.38818 12.8359 9.73182 12.6655 10.1409C12.5032 10.5323 12.4964 10.9945 12.4895 11.4418C12.482 11.9491 12.4739 12.4741 12.2236 12.725C11.9734 12.9759 11.4477 12.9834 10.9405 12.9909C10.4932 12.9977 10.0309 13.0045 9.63955 13.1668C9.23046 13.3359 8.88955 13.6652 8.55477 13.985C8.19682 14.3259 7.82659 14.6832 7.49864 14.6832C7.17068 14.6832 6.80046 14.328 6.44182 13.985C6.11046 13.6666 5.76682 13.3373 5.35773 13.1668C4.96636 13.0045 4.50409 12.9977 4.05682 12.9909C3.54955 12.9834 3.02455 12.9752 2.77364 12.725C2.52273 12.4748 2.51523 11.9491 2.50773 11.4418C2.50091 10.9945 2.49409 10.5323 2.33182 10.1409C2.16273 9.73182 1.83341 9.39091 1.51364 9.05614C1.17341 8.69818 0.818182 8.32795 0.818182 8C0.818182 7.67205 1.17341 7.30182 1.51636 6.94318C1.83477 6.61182 2.16409 6.26818 2.33455 5.85909C2.49682 5.46773 2.50364 5.00545 2.51045 4.55818C2.51795 4.05091 2.52614 3.52591 2.77636 3.275C3.02659 3.02409 3.55227 3.01659 4.05955 3.00909C4.50682 3.00227 4.96909 2.99545 5.36046 2.83318C5.76955 2.66409 6.11045 2.33477 6.44523 2.015C6.80182 1.67341 7.17205 1.31818 7.5 1.31818C7.82795 1.31818 8.19818 1.67341 8.55682 2.01636C8.88818 2.33477 9.23182 2.66409 9.64091 2.83455C10.0323 2.99682 10.4945 3.00364 10.9418 3.01045C11.4491 3.01795 11.9741 3.02614 12.225 3.27636C12.4759 3.52659 12.4834 4.05227 12.4909 4.55955C12.4977 5.00682 12.5045 5.46909 12.6668 5.86046C12.8359 6.26955 13.1652 6.61045 13.485 6.94523C13.8259 7.30318 14.1832 7.67341 14.1832 8.00136C14.1832 8.32932 13.8266 8.69818 13.4836 9.05682ZM10.5164 6.07455C10.593 6.15125 10.636 6.25523 10.636 6.36364C10.636 6.47205 10.593 6.57602 10.5164 6.65273L6.69818 10.4709C6.62148 10.5475 6.5175 10.5905 6.40909 10.5905C6.30068 10.5905 6.1967 10.5475 6.12 10.4709L4.48364 8.83455C4.41138 8.757 4.37203 8.65443 4.3739 8.54844C4.37577 8.44246 4.41871 8.34134 4.49366 8.26639C4.56861 8.19144 4.66973 8.1485 4.77572 8.14663C4.8817 8.14476 4.98427 8.1841 5.06182 8.25636L6.40909 9.60295L9.93818 6.07455C10.0149 5.99794 10.1189 5.95491 10.2273 5.95491C10.3357 5.95491 10.4397 5.99794 10.5164 6.07455Z" fill="#3A3886"/>
</svg>
