<svg width="16" height="16" viewBox="0 0 16 16" fill="none" xmlns="http://www.w3.org/2000/svg">
<path d="M16 0.510638V3.91489C16 4.05032 15.9462 4.18021 15.8504 4.27597C15.7547 4.37173 15.6248 4.42553 15.4894 4.42553C15.3539 4.42553 15.224 4.37173 15.1283 4.27597C15.0325 4.18021 14.9787 4.05032 14.9787 3.91489V1.02128H12.0851C11.9497 1.02128 11.8198 0.967477 11.724 0.871714C11.6283 0.775951 11.5745 0.646068 11.5745 0.510638C11.5745 0.375209 11.6283 0.245326 11.724 0.149562C11.8198 0.0537992 11.9497 0 12.0851 0H15.4894C15.6248 0 15.7547 0.0537992 15.8504 0.149562C15.9462 0.245326 16 0.375209 16 0.510638ZM3.91489 14.9787H1.02128V12.0851C1.02128 11.9497 0.967477 11.8198 0.871714 11.724C0.775951 11.6283 0.646068 11.5745 0.510638 11.5745C0.375209 11.5745 0.245326 11.6283 0.149562 11.724C0.0537992 11.8198 0 11.9497 0 12.0851V15.4894C0 15.6248 0.0537992 15.7547 0.149562 15.8504C0.245326 15.9462 0.375209 16 0.510638 16H3.91489C4.05032 16 4.18021 15.9462 4.27597 15.8504C4.37173 15.7547 4.42553 15.6248 4.42553 15.4894C4.42553 15.3539 4.37173 15.224 4.27597 15.1283C4.18021 15.0325 4.05032 14.9787 3.91489 14.9787ZM15.4894 11.5745C15.3539 11.5745 15.224 11.6283 15.1283 11.724C15.0325 11.8198 14.9787 11.9497 14.9787 12.0851V14.9787H12.0851C11.9497 14.9787 11.8198 15.0325 11.724 15.1283C11.6283 15.224 11.5745 15.3539 11.5745 15.4894C11.5745 15.6248 11.6283 15.7547 11.724 15.8504C11.8198 15.9462 11.9497 16 12.0851 16H15.4894C15.6248 16 15.7547 15.9462 15.8504 15.8504C15.9462 15.7547 16 15.6248 16 15.4894V12.0851C16 11.9497 15.9462 11.8198 15.8504 11.724C15.7547 11.6283 15.6248 11.5745 15.4894 11.5745ZM0.510638 4.42553C0.646068 4.42553 0.775951 4.37173 0.871714 4.27597C0.967477 4.18021 1.02128 4.05032 1.02128 3.91489V1.02128H3.91489C4.05032 1.02128 4.18021 0.967477 4.27597 0.871714C4.37173 0.775951 4.42553 0.646068 4.42553 0.510638C4.42553 0.375209 4.37173 0.245326 4.27597 0.149562C4.18021 0.0537992 4.05032 0 3.91489 0H0.510638C0.375209 0 0.245326 0.0537992 0.149562 0.149562C0.0537992 0.245326 0 0.375209 0 0.510638V3.91489C0 4.05032 0.0537992 4.18021 0.149562 4.27597C0.245326 4.37173 0.375209 4.42553 0.510638 4.42553ZM3.91489 3.40426H12.0851C12.2205 3.40426 12.3504 3.45805 12.4462 3.55382C12.5419 3.64958 12.5957 3.77946 12.5957 3.91489V12.0851C12.5957 12.2205 12.5419 12.3504 12.4462 12.4462C12.3504 12.5419 12.2205 12.5957 12.0851 12.5957H3.91489C3.77946 12.5957 3.64958 12.5419 3.55382 12.4462C3.45805 12.3504 3.40426 12.2205 3.40426 12.0851V3.91489C3.40426 3.77946 3.45805 3.64958 3.55382 3.55382C3.64958 3.45805 3.77946 3.40426 3.91489 3.40426ZM4.42553 11.5745H11.5745V4.42553H4.42553V11.5745Z" fill="#3A3886"/>
</svg>
