<svg width="16" height="16" viewBox="0 0 16 16" fill="none" xmlns="http://www.w3.org/2000/svg">
<path d="M2.87282 6.326L0.149342 3.60476C0.0537136 3.50909 0 3.37941 0 3.2442C0 3.10899 0.0537136 2.9793 0.149342 2.88363L2.87282 0.162396C2.91957 0.112266 2.97595 0.072058 3.03859 0.0441708C3.10123 0.0162836 3.16885 0.00128817 3.23741 7.94065e-05C3.30598 -0.00112936 3.37409 0.0114731 3.43767 0.0371351C3.50126 0.0627971 3.55902 0.100993 3.60751 0.149444C3.656 0.197894 3.69423 0.255608 3.71991 0.319141C3.74559 0.382673 3.7582 0.450724 3.757 0.519233C3.75579 0.587742 3.74078 0.655306 3.71287 0.717894C3.68496 0.780482 3.64472 0.836812 3.59455 0.883524L1.23278 3.2442L3.59455 5.60487C3.64472 5.65158 3.68496 5.70791 3.71287 5.7705C3.74078 5.83309 3.75579 5.90065 3.757 5.96916C3.7582 6.03767 3.74559 6.10572 3.71991 6.16925C3.69423 6.23279 3.656 6.2905 3.60751 6.33895C3.55902 6.3874 3.50126 6.4256 3.43767 6.45126C3.37409 6.47692 3.30598 6.48952 3.23741 6.48832C3.16885 6.48711 3.10123 6.47211 3.03859 6.44422C2.97595 6.41634 2.91957 6.37613 2.87282 6.326ZM6.27717 6.326C6.37292 6.42155 6.50271 6.47522 6.63803 6.47522C6.77336 6.47522 6.90315 6.42155 6.9989 6.326L9.72238 3.60476C9.81801 3.50909 9.87172 3.37941 9.87172 3.2442C9.87172 3.10899 9.81801 2.9793 9.72238 2.88363L6.9989 0.162396C6.95215 0.112266 6.89577 0.072058 6.83313 0.0441708C6.77049 0.0162836 6.70287 0.00128817 6.63431 7.94065e-05C6.56574 -0.00112936 6.49763 0.0114731 6.43405 0.0371351C6.37046 0.0627971 6.3127 0.100993 6.26421 0.149444C6.21572 0.197894 6.17749 0.255608 6.15181 0.319141C6.12613 0.382673 6.11351 0.450724 6.11472 0.519233C6.11593 0.587742 6.13094 0.655306 6.15885 0.717894C6.18676 0.780482 6.227 0.836812 6.27717 0.883524L8.63894 3.2442L6.27717 5.60487C6.18155 5.70054 6.12783 5.83022 6.12783 5.96544C6.12783 6.10065 6.18155 6.23033 6.27717 6.326ZM14.8085 1.37335H12.7659C12.6304 1.37335 12.5005 1.4271 12.4048 1.52279C12.309 1.61848 12.2552 1.74826 12.2552 1.88358C12.2552 2.0189 12.309 2.14868 12.4048 2.24437C12.5005 2.34005 12.6304 2.39381 12.7659 2.39381H14.8085C14.8536 2.39381 14.8969 2.41173 14.9288 2.44362C14.9608 2.47552 14.9787 2.51878 14.9787 2.56389V14.8095C14.9787 14.8546 14.9608 14.8978 14.9288 14.9297C14.8969 14.9616 14.8536 14.9795 14.8085 14.9795H2.55281C2.50767 14.9795 2.46437 14.9616 2.43245 14.9297C2.40053 14.8978 2.3826 14.8546 2.3826 14.8095V9.36698C2.3826 9.23166 2.3288 9.10188 2.23303 9.00619C2.13726 8.91051 2.00738 8.85675 1.87194 8.85675C1.73651 8.85675 1.60662 8.91051 1.51086 9.00619C1.41509 9.10188 1.36129 9.23166 1.36129 9.36698V14.8095C1.36129 15.1252 1.48683 15.428 1.71028 15.6513C1.93373 15.8746 2.2368 16 2.55281 16H14.8085C15.1245 16 15.4276 15.8746 15.651 15.6513C15.8745 15.428 16 15.1252 16 14.8095V2.56389C16 2.24814 15.8745 1.94532 15.651 1.72205C15.4276 1.49878 15.1245 1.37335 14.8085 1.37335Z" fill="#3A3886"/>
</svg>
