<svg width="16" height="15" viewBox="0 0 16 15" fill="none" xmlns="http://www.w3.org/2000/svg">
<path d="M14.902 4.28641H11.6659C11.832 4.18469 11.9893 4.07003 12.1365 3.94358C12.3584 3.75067 12.5371 3.5152 12.6615 3.25186C12.786 2.98852 12.8534 2.70297 12.8596 2.41306C12.8692 2.09414 12.812 1.77667 12.6915 1.48007C12.571 1.18348 12.3896 0.914024 12.1586 0.688202C11.9276 0.46238 11.6518 0.28495 11.3481 0.16678C11.0443 0.0486111 10.719 -0.00780965 10.3922 0.000974278C10.095 0.00704695 9.80237 0.0728381 9.53247 0.194238C9.26258 0.315637 9.02124 0.490036 8.82353 0.706541C8.46022 1.12487 8.18084 1.60617 8 2.12533C7.81954 1.60656 7.54071 1.12553 7.17804 0.707306C6.98022 0.490475 6.73866 0.315823 6.46848 0.194284C6.19829 0.0727443 5.9053 0.00693448 5.60784 0.000974278C5.28077 -0.00822934 4.95522 0.0478551 4.65116 0.165788C4.3471 0.283721 4.07093 0.461015 3.8396 0.686799C3.60827 0.912583 3.42664 1.1821 3.30587 1.47881C3.1851 1.77552 3.12772 2.09318 3.13726 2.4123C3.14348 2.70221 3.21091 2.98775 3.33533 3.25109C3.45975 3.51443 3.6385 3.74991 3.86039 3.94281C4.00739 4.06945 4.16478 4.18411 4.33098 4.28564H1.09804C0.953777 4.28564 0.810928 4.31338 0.677657 4.36727C0.544385 4.42116 0.423304 4.50014 0.321331 4.59971C0.219358 4.69928 0.138494 4.81747 0.0833583 4.94754C0.0282228 5.07761 -0.000102765 5.21701 2.80138e-07 5.35777V7.80659C2.80138e-07 8.09073 0.115686 8.36324 0.321609 8.56415C0.527531 8.76507 0.806821 8.87795 1.09804 8.87795H1.2549V13.9286C1.2549 14.2128 1.37059 14.4853 1.57651 14.6862C1.78243 14.8871 2.06172 15 2.35294 15H13.6471C13.9383 15 14.2176 14.8871 14.4235 14.6862C14.6294 14.4853 14.7451 14.2128 14.7451 13.9286V8.87795H14.902C15.1932 8.87795 15.4725 8.76507 15.6784 8.56415C15.8843 8.36324 16 8.09073 16 7.80659V5.35777C16 5.07363 15.8843 4.80112 15.6784 4.6002C15.4725 4.39928 15.1932 4.28641 14.902 4.28641ZM8.60941 3.44463C8.78588 2.51714 9.10275 1.7802 9.52628 1.31339C9.63961 1.19135 9.77748 1.09337 9.93131 1.02557C10.0851 0.957768 10.2516 0.921588 10.4204 0.919282H10.4635C10.6587 0.919304 10.8518 0.95752 11.0315 1.03167C11.2112 1.10581 11.3739 1.21439 11.5098 1.35096C11.6458 1.48753 11.7523 1.64932 11.823 1.82676C11.8937 2.0042 11.9272 2.19368 11.9216 2.38398C11.9189 2.54883 11.8815 2.71137 11.8116 2.86147C11.7417 3.01156 11.6408 3.14599 11.5153 3.25638C10.6745 3.98031 9.24863 4.19688 8.49726 4.25963C8.51686 4.03847 8.54902 3.75685 8.60941 3.44463ZM4.50588 1.33635C4.77964 1.07022 5.15003 0.920325 5.53647 0.919282H5.57961C5.74856 0.921879 5.91515 0.958419 6.06898 1.02662C6.22282 1.09482 6.3606 1.19322 6.47373 1.31568C7.21569 2.13604 7.43765 3.52728 7.50196 4.26039C7.27529 4.24126 6.98667 4.20835 6.6698 4.15096C5.71922 3.98031 4.96392 3.66961 4.48549 3.25561C4.35979 3.1455 4.25874 3.01125 4.1887 2.86126C4.11865 2.71127 4.08111 2.54879 4.07843 2.38398C4.07302 2.19019 4.10813 1.99735 4.18162 1.81723C4.25511 1.63711 4.36544 1.47349 4.50588 1.33635ZM0.941177 7.80659V5.35777C0.941177 5.31718 0.957703 5.27825 0.987121 5.24955C1.01654 5.22084 1.05644 5.20472 1.09804 5.20472H7.52941V7.95964H1.09804C1.05644 7.95964 1.01654 7.94352 0.987121 7.91481C0.957703 7.88611 0.941177 7.84718 0.941177 7.80659ZM2.19608 13.9286V8.87795H7.52941V14.0817H2.35294C2.31134 14.0817 2.27144 14.0656 2.24202 14.0369C2.21261 14.0082 2.19608 13.9692 2.19608 13.9286ZM13.8039 13.9286C13.8039 13.9692 13.7874 14.0082 13.758 14.0369C13.7286 14.0656 13.6887 14.0817 13.6471 14.0817H8.47059V8.87795H13.8039V13.9286ZM15.0588 7.80659C15.0588 7.84718 15.0423 7.88611 15.0129 7.91481C14.9835 7.94352 14.9436 7.95964 14.902 7.95964H8.47059V5.20472H14.902C14.9436 5.20472 14.9835 5.22084 15.0129 5.24955C15.0423 5.27825 15.0588 5.31718 15.0588 5.35777V7.80659Z" fill="#8280FF"/>
</svg>
