<svg width="25" height="25" viewBox="0 0 18 20" fill="none" xmlns="http://www.w3.org/2000/svg">
<path d="M9 0C7.13064 0 5.33784 0.776313 4.01601 2.15816C2.69417 3.54001 1.95157 5.41419 1.95157 7.36842V11.0821C1.95172 11.2454 1.91552 11.4065 1.84585 11.5526L0.116966 15.1663C0.0325126 15.3429 -0.00736574 15.539 0.00111898 15.7362C0.0096037 15.9334 0.0661697 16.1251 0.165445 16.293C0.264719 16.4609 0.403407 16.5995 0.568335 16.6956C0.733262 16.7917 0.918955 16.8421 1.10777 16.8421H16.8922C17.081 16.8421 17.2667 16.7917 17.4317 16.6956C17.5966 16.5995 17.7353 16.4609 17.8346 16.293C17.9338 16.1251 17.9904 15.9334 17.9989 15.7362C18.0074 15.539 17.9675 15.3429 17.883 15.1663L16.1552 11.5526C16.0851 11.4066 16.0486 11.2455 16.0484 11.0821V7.36842C16.0484 5.41419 15.3058 3.54001 13.984 2.15816C12.6622 0.776313 10.8694 0 9 0ZM9 20C8.37505 20.0003 7.76539 19.798 7.25503 19.421C6.74467 19.0439 6.35874 18.5107 6.15042 17.8947H11.8496C11.6413 18.5107 11.2553 19.0439 10.745 19.421C10.2346 19.798 9.62495 20.0003 9 20Z" fill="#007AFF"/>
</svg>
