<svg width="16" height="16" viewBox="0 0 16 16" fill="none" xmlns="http://www.w3.org/2000/svg">
<path d="M15.4894 0H4.59574C4.46031 0 4.33043 0.0537992 4.23467 0.149562C4.13891 0.245326 4.08511 0.375209 4.08511 0.510638V4.08511H0.510638C0.375209 4.08511 0.245326 4.13891 0.149562 4.23467C0.0537992 4.33043 0 4.46031 0 4.59574V15.4894C0 15.6248 0.0537992 15.7547 0.149562 15.8504C0.245326 15.9462 0.375209 16 0.510638 16H11.4043C11.5397 16 11.6696 15.9462 11.7653 15.8504C11.8611 15.7547 11.9149 15.6248 11.9149 15.4894V11.9149H15.4894C15.6248 11.9149 15.7547 11.8611 15.8504 11.7653C15.9462 11.6696 16 11.5397 16 11.4043V0.510638C16 0.375209 15.9462 0.245326 15.8504 0.149562C15.7547 0.0537992 15.6248 0 15.4894 0ZM10.8936 14.9787H1.02128V5.10638H10.8936V14.9787ZM14.9787 10.8936H11.9149V4.59574C11.9149 4.46031 11.8611 4.33043 11.7653 4.23467C11.6696 4.13891 11.5397 4.08511 11.4043 4.08511H5.10638V1.02128H14.9787V10.8936Z" fill="#3A3886"/>
</svg>
