<svg width="16" height="16" viewBox="0 0 16 16" fill="none" xmlns="http://www.w3.org/2000/svg">
<path d="M14.8085 0H1.19149C0.875487 0 0.572427 0.125532 0.348979 0.348979C0.125532 0.572427 0 0.875487 0 1.19149V14.8085C0 15.1245 0.125532 15.4276 0.348979 15.651C0.572427 15.8745 0.875487 16 1.19149 16H14.8085C15.1245 16 15.4276 15.8745 15.651 15.651C15.8745 15.4276 16 15.1245 16 14.8085V1.19149C16 0.875487 15.8745 0.572427 15.651 0.348979C15.4276 0.125532 15.1245 0 14.8085 0ZM1.02128 14.8085V1.19149C1.02128 1.14635 1.03921 1.10305 1.07113 1.07113C1.10305 1.03921 1.14635 1.02128 1.19149 1.02128H14.8085C14.8537 1.02128 14.8969 1.03921 14.9289 1.07113C14.9608 1.10305 14.9787 1.14635 14.9787 1.19149V8.18723L12.5872 5.79574C12.4766 5.68509 12.3452 5.59732 12.2007 5.53743C12.0561 5.47755 11.9012 5.44672 11.7447 5.44672C11.5882 5.44672 11.4333 5.47755 11.2887 5.53743C11.1441 5.59732 11.0128 5.68509 10.9021 5.79574L1.71915 14.9787H1.19149C1.14635 14.9787 1.10305 14.9608 1.07113 14.9289C1.03921 14.8969 1.02128 14.8537 1.02128 14.8085ZM14.8085 14.9787H3.1634L11.6238 6.5183C11.6396 6.50247 11.6584 6.48992 11.6791 6.48135C11.6997 6.47279 11.7219 6.46838 11.7443 6.46838C11.7666 6.46838 11.7888 6.47279 11.8094 6.48135C11.8301 6.48992 11.8489 6.50247 11.8647 6.5183L14.9787 9.63149V14.8085C14.9787 14.8537 14.9608 14.8969 14.9289 14.9289C14.8969 14.9608 14.8537 14.9787 14.8085 14.9787ZM5.2766 7.14894C5.64691 7.14894 6.00891 7.03912 6.31681 6.83339C6.62472 6.62765 6.8647 6.33523 7.00641 5.99311C7.14813 5.65098 7.1852 5.27452 7.11296 4.91132C7.04071 4.54812 6.86239 4.2145 6.60054 3.95265C6.33869 3.6908 6.00507 3.51248 5.64187 3.44023C5.27867 3.36799 4.90221 3.40507 4.56008 3.54678C4.21796 3.68849 3.92554 3.92847 3.7198 4.23638C3.51407 4.54428 3.40426 4.90628 3.40426 5.2766C3.40426 5.77317 3.60152 6.24941 3.95265 6.60054C4.30378 6.95167 4.78002 7.14894 5.2766 7.14894ZM5.2766 4.42553C5.44492 4.42553 5.60946 4.47545 5.74942 4.56896C5.88938 4.66248 5.99846 4.7954 6.06288 4.95091C6.12729 5.10642 6.14415 5.27754 6.11131 5.44263C6.07847 5.60772 5.99741 5.75937 5.87839 5.87839C5.75937 5.99741 5.60772 6.07847 5.44263 6.11131C5.27754 6.14415 5.10642 6.12729 4.95091 6.06288C4.7954 5.99846 4.66248 5.88938 4.56896 5.74942C4.47545 5.60946 4.42553 5.44492 4.42553 5.2766C4.42553 5.05088 4.5152 4.83441 4.6748 4.6748C4.83441 4.5152 5.05088 4.42553 5.2766 4.42553Z" fill="#3A3886"/>
</svg>
