<svg width="26" height="22" viewBox="0 0 26 22" fill="none" xmlns="http://www.w3.org/2000/svg">
<path d="M23 21.5H3C2.46957 21.5 1.96086 21.2893 1.58579 20.9142C1.21071 20.5391 1 20.0304 1 19.5V5.5C1 4.96957 1.21071 4.46086 1.58579 4.08579C1.96086 3.71071 2.46957 3.5 3 3.5H7L9 0.5H17L19 3.5H23C23.5304 3.5 24.0391 3.71071 24.4142 4.08579C24.7893 4.46086 25 4.96957 25 5.5V19.5C25 20.0304 24.7893 20.5391 24.4142 20.9142C24.0391 21.2893 23.5304 21.5 23 21.5Z" stroke="#8280FF" stroke-linecap="round" stroke-linejoin="round"/>
<path d="M13 16.5C15.4853 16.5 17.5 14.4853 17.5 12C17.5 9.51472 15.4853 7.5 13 7.5C10.5147 7.5 8.5 9.51472 8.5 12C8.5 14.4853 10.5147 16.5 13 16.5Z" stroke="#8280FF" stroke-linecap="round" stroke-linejoin="round"/>
</svg>
