<svg width="16" height="16" viewBox="0 0 16 16" fill="none" xmlns="http://www.w3.org/2000/svg">
<path d="M8.78432 12.0784C8.78432 12.2336 8.73832 12.3852 8.65213 12.5142C8.56595 12.6432 8.44346 12.7437 8.30015 12.803C8.15683 12.8624 7.99913 12.8779 7.84699 12.8477C7.69485 12.8174 7.5551 12.7427 7.44541 12.633C7.33572 12.5233 7.26102 12.3836 7.23076 12.2314C7.2005 12.0793 7.21603 11.9216 7.27539 11.7783C7.33475 11.635 7.43528 11.5125 7.56426 11.4263C7.69324 11.3401 7.84488 11.2941 8 11.2941C8.20801 11.2941 8.40751 11.3767 8.5546 11.5238C8.70168 11.6709 8.78432 11.8704 8.78432 12.0784ZM8 3.7647C6.35294 3.7647 5.01961 4.96078 5.01961 6.43137V6.7451C5.01961 6.8699 5.06919 6.9896 5.15744 7.07785C5.2457 7.1661 5.36539 7.21568 5.4902 7.21568C5.61501 7.21568 5.7347 7.1661 5.82295 7.07785C5.91121 6.9896 5.96079 6.8699 5.96079 6.7451V6.43137C5.96079 5.48 6.8753 4.70588 8 4.70588C9.12471 4.70588 10.0392 5.48 10.0392 6.43137C10.0392 7.38274 9.12471 8.15686 8 8.15686C7.87519 8.15686 7.7555 8.20644 7.66725 8.29469C7.57899 8.38295 7.52941 8.50264 7.52941 8.62745V9.2549C7.52941 9.37971 7.57899 9.4994 7.66725 9.58766C7.7555 9.67591 7.87519 9.72549 8 9.72549C8.12481 9.72549 8.24451 9.67591 8.33276 9.58766C8.42101 9.4994 8.47059 9.37971 8.47059 9.2549V9.0651C9.89098 8.86274 10.9804 7.75843 10.9804 6.43137C10.9804 4.96078 9.64706 3.7647 8 3.7647ZM16 8C16 9.58225 15.5308 11.129 14.6518 12.4446C13.7727 13.7602 12.5233 14.7855 11.0615 15.391C9.59966 15.9965 7.99113 16.155 6.43928 15.8463C4.88743 15.5376 3.46197 14.7757 2.34315 13.6569C1.22433 12.538 0.462403 11.1126 0.153721 9.56072C-0.15496 8.00887 0.00346614 6.40034 0.608967 4.93853C1.21447 3.47672 2.23985 2.22729 3.55544 1.34824C4.87103 0.469192 6.41775 0 8 0C10.121 0.00249086 12.1544 0.846145 13.6541 2.3459C15.1539 3.84565 15.9975 5.87903 16 8ZM15.0588 8C15.0588 6.6039 14.6448 5.23914 13.8692 4.07833C13.0936 2.91751 11.9911 2.01276 10.7013 1.4785C9.41146 0.944232 7.99217 0.804443 6.62289 1.07681C5.25362 1.34918 3.99585 2.02146 3.00866 3.00866C2.02147 3.99585 1.34918 5.25361 1.07681 6.62289C0.804447 7.99217 0.944235 9.41146 1.4785 10.7013C2.01277 11.9911 2.91751 13.0936 4.07833 13.8692C5.23915 14.6448 6.6039 15.0588 8 15.0588C9.87148 15.0567 11.6657 14.3124 12.989 12.989C14.3124 11.6657 15.0567 9.87148 15.0588 8Z" fill="#3A3886"/>
</svg>
