<svg width="14" height="18" viewBox="0 0 14 18" fill="none" xmlns="http://www.w3.org/2000/svg">
<path d="M10.093 11.2453C10.093 11.3729 10.0416 11.4953 9.94998 11.5855C9.8584 11.6757 9.73418 11.7264 9.60465 11.7264H4.39535C4.26582 11.7264 4.14161 11.6757 4.05002 11.5855C3.95843 11.4953 3.90698 11.3729 3.90698 11.2453C3.90698 11.1177 3.95843 10.9953 4.05002 10.9051C4.14161 10.8148 4.26582 10.7642 4.39535 10.7642H9.60465C9.73418 10.7642 9.8584 10.8148 9.94998 10.9051C10.0416 10.9953 10.093 11.1177 10.093 11.2453ZM9.60465 8.19812H4.39535C4.26582 8.19812 4.14161 8.24881 4.05002 8.33904C3.95843 8.42927 3.90698 8.55165 3.90698 8.67925C3.90698 8.80686 3.95843 8.92923 4.05002 9.01946C4.14161 9.10969 4.26582 9.16038 4.39535 9.16038H9.60465C9.73418 9.16038 9.8584 9.10969 9.94998 9.01946C10.0416 8.92923 10.093 8.80686 10.093 8.67925C10.093 8.55165 10.0416 8.42927 9.94998 8.33904C9.8584 8.24881 9.73418 8.19812 9.60465 8.19812ZM14 2.90567V16.3774C14 16.6751 13.8799 16.9606 13.6662 17.1712C13.4525 17.3817 13.1627 17.5 12.8605 17.5H1.13953C0.837311 17.5 0.547466 17.3817 0.333762 17.1712C0.120058 16.9606 0 16.6751 0 16.3774V2.90567C0 2.60793 0.120058 2.32238 0.333762 2.11184C0.547466 1.90131 0.837311 1.78303 1.13953 1.78303H4.165C4.51581 1.38057 4.95077 1.05755 5.44009 0.8361C5.9294 0.61465 6.46152 0.5 7 0.5C7.53848 0.5 8.0706 0.61465 8.55991 0.8361C9.04923 1.05755 9.48419 1.38057 9.835 1.78303H12.8605C13.1627 1.78303 13.4525 1.90131 13.6662 2.11184C13.8799 2.32238 14 2.60793 14 2.90567ZM4.23256 4.18869V4.34907H9.76744V4.18869C9.76744 3.4656 9.47587 2.77213 8.95688 2.26082C8.43788 1.74952 7.73397 1.46228 7 1.46228C6.26603 1.46228 5.56212 1.74952 5.04312 2.26082C4.52413 2.77213 4.23256 3.4656 4.23256 4.18869ZM13.0233 2.90567C13.0233 2.86314 13.0061 2.82234 12.9756 2.79227C12.945 2.76219 12.9036 2.74529 12.8605 2.74529H10.4455C10.643 3.20159 10.7446 3.69261 10.7442 4.18869V4.8302C10.7442 4.9578 10.6927 5.08018 10.6011 5.17041C10.5096 5.26064 10.3853 5.31133 10.2558 5.31133H3.74419C3.61466 5.31133 3.49044 5.26064 3.39886 5.17041C3.30727 5.08018 3.25581 4.9578 3.25581 4.8302V4.18869C3.25535 3.69261 3.35697 3.20159 3.55453 2.74529H1.13953C1.09636 2.74529 1.05495 2.76219 1.02442 2.79227C0.993895 2.82234 0.976744 2.86314 0.976744 2.90567V16.3774C0.976744 16.4199 0.993895 16.4607 1.02442 16.4908C1.05495 16.5208 1.09636 16.5377 1.13953 16.5377H12.8605C12.9036 16.5377 12.945 16.5208 12.9756 16.4908C13.0061 16.4607 13.0233 16.4199 13.0233 16.3774V2.90567Z" fill="#3A3886"/>
</svg>
