<svg width="7" height="10" viewBox="0 0 7 10" fill="none" xmlns="http://www.w3.org/2000/svg">
<path d="M7 7.00155C7 7.35703 6.95269 7.67903 6.85806 7.96754C6.76343 8.25605 6.63145 8.51108 6.46211 8.73261C6.29776 8.95415 6.09854 9.14477 5.86446 9.30448C5.63536 9.46419 5.38136 9.59557 5.10245 9.69861C4.82355 9.80165 4.52472 9.87893 4.20598 9.93045C3.89221 9.97682 3.54109 10 3.15261 10H0.582711C0.418356 10 0.278904 9.95106 0.164354 9.85317C0.0547848 9.75013 0 9.58527 0 9.35858V0.641422C0 0.414735 0.0547848 0.252447 0.164354 0.154559C0.278904 0.0515198 0.418356 0 0.582711 0H3.01067C3.60334 0 4.10388 0.0515198 4.51227 0.154559C4.92565 0.257599 5.27179 0.414735 5.55069 0.625966C5.83458 0.832045 6.05123 1.0948 6.20064 1.41422C6.35005 1.73364 6.42476 2.10974 6.42476 2.5425C6.42476 2.78465 6.39488 3.01391 6.33511 3.23029C6.27535 3.44152 6.18819 3.63472 6.07364 3.80989C5.95909 3.98506 5.81715 4.13962 5.64781 4.27357C5.48346 4.40752 5.2942 4.51571 5.08004 4.59815C5.35397 4.64966 5.60548 4.73982 5.83458 4.86862C6.06866 4.99742 6.27037 5.16486 6.4397 5.37094C6.61402 5.57187 6.75098 5.80886 6.85059 6.08192C6.9502 6.35497 7 6.66151 7 7.00155ZM4.45998 2.7898C4.45998 2.58887 4.4301 2.40855 4.37033 2.24884C4.31057 2.08913 4.22092 1.95775 4.10139 1.85471C3.98186 1.74652 3.82995 1.66409 3.64568 1.60742C3.46638 1.55075 3.22483 1.52241 2.92102 1.52241H1.92743V4.11901H3.02561C3.3095 4.11901 3.53611 4.08552 3.70544 4.01855C3.87478 3.94642 4.01423 3.85111 4.1238 3.73261C4.23835 3.60896 4.32302 3.46728 4.3778 3.30757C4.43259 3.14271 4.45998 2.97012 4.45998 2.7898ZM4.96051 7.0711C4.96051 6.83926 4.92316 6.63318 4.84845 6.45286C4.77375 6.26739 4.66418 6.11283 4.51974 5.98918C4.37531 5.86553 4.19104 5.77022 3.96692 5.70325C3.7428 5.63627 3.45144 5.60278 3.09285 5.60278H1.92743V8.44668H3.34685C3.62078 8.44668 3.84988 8.41834 4.03415 8.36167C4.22341 8.29984 4.38527 8.21226 4.51974 8.09892C4.6592 7.98042 4.76628 7.83617 4.84098 7.66615C4.92067 7.49098 4.96051 7.29263 4.96051 7.0711Z" fill="black"/>
</svg>
