<svg width="33" height="32" viewBox="0 0 33 32" fill="none" xmlns="http://www.w3.org/2000/svg">
<g clip-path="url(#clip0_380_2092)">
<path d="M12.5 19H20.5" stroke="black" stroke-linecap="round" stroke-linejoin="round"/>
<path d="M12.5 15H20.5" stroke="black" stroke-linecap="round" stroke-linejoin="round"/>
<path d="M20.5 5H25.5C25.7652 5 26.0196 5.10536 26.2071 5.29289C26.3946 5.48043 26.5 5.73478 26.5 6V27C26.5 27.2652 26.3946 27.5196 26.2071 27.7071C26.0196 27.8946 25.7652 28 25.5 28H7.5C7.23478 28 6.98043 27.8946 6.79289 27.7071C6.60536 27.5196 6.5 27.2652 6.5 27V6C6.5 5.73478 6.60536 5.48043 6.79289 5.29289C6.98043 5.10536 7.23478 5 7.5 5H12.5" stroke="black" stroke-linecap="round" stroke-linejoin="round"/>
<path d="M11.5 9V8C11.5 6.67392 12.0268 5.40215 12.9645 4.46447C13.9021 3.52678 15.1739 3 16.5 3C17.8261 3 19.0979 3.52678 20.0355 4.46447C20.9732 5.40215 21.5 6.67392 21.5 8V9H11.5Z" stroke="black" stroke-linecap="round" stroke-linejoin="round"/>
</g>
<defs>
<clipPath id="clip0_380_2092">
<rect width="32" height="32" fill="white" transform="translate(0.5)"/>
</clipPath>
</defs>
</svg>
