<svg width="20" height="21" viewBox="0 0 20 21" fill="none" xmlns="http://www.w3.org/2000/svg">
<path d="M5.41016 2.06641C2.42578 2.625 0.398438 3.02344 0.316406 3.06641C0.246094 3.10156 0.144531 3.19531 0.09375 3.26953L0 3.41016V10.4961C0 17.5703 0 17.582 0.0820312 17.7109C0.125 17.7812 0.214844 17.875 0.285156 17.918C0.429688 18.0039 10.3242 19.875 10.6484 19.875C10.7891 19.875 10.8789 19.8477 10.9883 19.7773C11.2422 19.6016 11.25 19.5703 11.25 18.4102V17.375H15.4219C19.5117 17.375 19.5938 17.375 19.7188 17.2969C19.7891 17.2539 19.8789 17.1641 19.9219 17.0938C20 16.9648 20 16.8828 20 10.5C20 4.11719 20 4.03516 19.9219 3.90625C19.8789 3.83594 19.7891 3.74609 19.7188 3.70312C19.5938 3.625 19.5117 3.625 15.4219 3.625H11.25V2.57812C11.25 1.60547 11.2461 1.52734 11.1719 1.40625C11.0508 1.21094 10.8789 1.125 10.6055 1.12891C10.4766 1.13281 8.14062 1.55078 5.41016 2.06641ZM10 10.5039V18.4766L9.89453 18.4531C9.83203 18.4414 7.89453 18.0781 5.58594 17.6484C3.27734 17.2148 1.35547 16.8555 1.32031 16.8438C1.25391 16.8242 1.25 16.4883 1.25 10.4961C1.25 7.01953 1.25391 4.17188 1.26172 4.16797C1.33203 4.14844 9.88281 2.53906 9.93359 2.53516C9.99609 2.53125 10 2.93359 10 10.5039ZM18.75 10.5V16.125H15H11.25V15.5V14.875H12.2969C13.2695 14.875 13.3477 14.8711 13.4688 14.7969C13.6562 14.6797 13.75 14.5039 13.75 14.25C13.75 13.9961 13.6562 13.8203 13.4688 13.7031C13.3477 13.6289 13.2695 13.625 12.2969 13.625H11.25V13V12.375H12.2969C13.2695 12.375 13.3477 12.3711 13.4688 12.2969C13.6562 12.1797 13.75 12.0039 13.75 11.75C13.75 11.4961 13.6562 11.3203 13.4688 11.2031C13.3477 11.1289 13.2695 11.125 12.2969 11.125H11.25V10.5V9.875H12.2969C13.2695 9.875 13.3477 9.87109 13.4688 9.79688C13.6562 9.67969 13.75 9.50391 13.75 9.25C13.75 8.99609 13.6562 8.82031 13.4688 8.70312C13.3477 8.62891 13.2695 8.625 12.2969 8.625H11.25V8V7.375H12.2969C13.2695 7.375 13.3477 7.37109 13.4688 7.29688C13.6562 7.17969 13.75 7.00391 13.75 6.75C13.75 6.49609 13.6562 6.32031 13.4688 6.20312C13.3477 6.12891 13.2695 6.125 12.2969 6.125H11.25V5.5V4.875H15H18.75V10.5Z" fill="#8280FF"/>
<path d="M7.80469 6.81287C7.74609 6.84412 7.30078 7.38318 6.8125 8.01209C6.32422 8.63709 5.89062 9.19177 5.84766 9.23865L5.77344 9.32459L4.96094 8.3949C4.51562 7.88709 4.10156 7.44959 4.04688 7.42224C3.98828 7.3949 3.85156 7.37537 3.73828 7.37537C3.35938 7.37537 3.125 7.61365 3.125 8.00037C3.12891 8.11755 3.14844 8.25427 3.17578 8.30115C3.21484 8.37537 3.45703 8.65662 4.71875 10.098L4.96875 10.3793L4.08984 11.5043C3.60938 12.1215 3.19531 12.6683 3.17188 12.7152C3.10547 12.8363 3.11328 13.1801 3.18359 13.3129C3.21484 13.3754 3.30859 13.473 3.38672 13.5277C3.57031 13.6527 3.90234 13.6644 4.08203 13.5551C4.14844 13.5121 4.56641 13.0082 5.01953 12.4261L5.83594 11.3754L6.78125 12.4535C7.30078 13.0472 7.77344 13.5511 7.82812 13.5785C7.88672 13.6058 8.02344 13.6254 8.13672 13.6254C8.51562 13.6254 8.75 13.3871 8.75 13.0004C8.74609 12.8832 8.72656 12.7465 8.69922 12.6996C8.67188 12.6527 8.20703 12.1058 7.66406 11.4847C7.11719 10.8597 6.67578 10.3363 6.67969 10.3168C6.67969 10.3011 7.12891 9.71521 7.67188 9.01599C8.21484 8.31677 8.67969 7.7074 8.70312 7.66052C8.73047 7.61365 8.75 7.48084 8.75 7.36755C8.75 6.98084 8.51172 6.75037 8.125 6.75037C8.00781 6.75427 7.86328 6.77771 7.80469 6.81287Z" fill="#8280FF"/>
<path d="M15.2812 6.20312C15.0938 6.32031 15 6.49609 15 6.75C15 7.00391 15.0938 7.17969 15.2812 7.29688C15.3984 7.36719 15.4805 7.375 16.25 7.375C17.0195 7.375 17.1016 7.36719 17.2188 7.29688C17.4062 7.17969 17.5 7.00391 17.5 6.75C17.5 6.49609 17.4062 6.32031 17.2188 6.20312C17.1016 6.13281 17.0195 6.125 16.25 6.125C15.4805 6.125 15.3984 6.13281 15.2812 6.20312Z" fill="#8280FF"/>
<path d="M15.2812 8.70312C15.0938 8.82031 15 8.99609 15 9.25C15 9.50391 15.0938 9.67969 15.2812 9.79688C15.3984 9.86719 15.4805 9.875 16.25 9.875C17.0195 9.875 17.1016 9.86719 17.2188 9.79688C17.4062 9.67969 17.5 9.50391 17.5 9.25C17.5 8.99609 17.4062 8.82031 17.2188 8.70312C17.1016 8.63281 17.0195 8.625 16.25 8.625C15.4805 8.625 15.3984 8.63281 15.2812 8.70312Z" fill="#8280FF"/>
<path d="M15.2812 11.2031C15.0938 11.3203 15 11.4961 15 11.75C15 12.0039 15.0938 12.1797 15.2812 12.2969C15.3984 12.3672 15.4805 12.375 16.25 12.375C17.0195 12.375 17.1016 12.3672 17.2188 12.2969C17.4062 12.1797 17.5 12.0039 17.5 11.75C17.5 11.4961 17.4062 11.3203 17.2188 11.2031C17.1016 11.1328 17.0195 11.125 16.25 11.125C15.4805 11.125 15.3984 11.1328 15.2812 11.2031Z" fill="#8280FF"/>
<path d="M15.2812 13.7031C15.0938 13.8203 15 13.9961 15 14.25C15 14.5039 15.0938 14.6797 15.2812 14.7969C15.3984 14.8672 15.4805 14.875 16.25 14.875C17.0195 14.875 17.1016 14.8672 17.2188 14.7969C17.4062 14.6797 17.5 14.5039 17.5 14.25C17.5 13.9961 17.4062 13.8203 17.2188 13.7031C17.1016 13.6328 17.0195 13.625 16.25 13.625C15.4805 13.625 15.3984 13.6328 15.2812 13.7031Z" fill="#8280FF"/>
</svg>
