<svg width="20" height="21" viewBox="0 0 20 21" fill="none" xmlns="http://www.w3.org/2000/svg">
<path d="M17.5 12.375C17.5 12.5408 17.4342 12.6997 17.3169 12.8169C17.1997 12.9342 17.0408 13 16.875 13H15V14.25H16.25C16.4158 14.25 16.5747 14.3158 16.6919 14.4331C16.8092 14.5503 16.875 14.7092 16.875 14.875C16.875 15.0408 16.8092 15.1997 16.6919 15.3169C16.5747 15.4342 16.4158 15.5 16.25 15.5H15V16.75C15 16.9158 14.9342 17.0747 14.8169 17.1919C14.6997 17.3092 14.5408 17.375 14.375 17.375C14.2092 17.375 14.0503 17.3092 13.9331 17.1919C13.8158 17.0747 13.75 16.9158 13.75 16.75V12.375C13.75 12.2092 13.8158 12.0503 13.9331 11.9331C14.0503 11.8158 14.2092 11.75 14.375 11.75H16.875C17.0408 11.75 17.1997 11.8158 17.3169 11.9331C17.4342 12.0503 17.5 12.2092 17.5 12.375ZM7.1875 13.9375C7.1875 14.5177 6.95703 15.0741 6.5468 15.4843C6.13656 15.8945 5.58016 16.125 5 16.125H4.375V16.75C4.375 16.9158 4.30915 17.0747 4.19194 17.1919C4.07473 17.3092 3.91576 17.375 3.75 17.375C3.58424 17.375 3.42527 17.3092 3.30806 17.1919C3.19085 17.0747 3.125 16.9158 3.125 16.75V12.375C3.125 12.2092 3.19085 12.0503 3.30806 11.9331C3.42527 11.8158 3.58424 11.75 3.75 11.75H5C5.58016 11.75 6.13656 11.9805 6.5468 12.3907C6.95703 12.8009 7.1875 13.3573 7.1875 13.9375ZM5.9375 13.9375C5.9375 13.6889 5.83873 13.4504 5.66291 13.2746C5.4871 13.0988 5.24864 13 5 13H4.375V14.875H5C5.24864 14.875 5.4871 14.7762 5.66291 14.6004C5.83873 14.4246 5.9375 14.1861 5.9375 13.9375ZM12.8125 14.5625C12.8125 15.3084 12.5162 16.0238 11.9887 16.5512C11.4613 17.0787 10.7459 17.375 10 17.375H8.75C8.58424 17.375 8.42527 17.3092 8.30806 17.1919C8.19085 17.0747 8.125 16.9158 8.125 16.75V12.375C8.125 12.2092 8.19085 12.0503 8.30806 11.9331C8.42527 11.8158 8.58424 11.75 8.75 11.75H10C10.7459 11.75 11.4613 12.0463 11.9887 12.5738C12.5162 13.1012 12.8125 13.8166 12.8125 14.5625ZM11.5625 14.5625C11.5625 14.1481 11.3979 13.7507 11.1049 13.4576C10.8118 13.1646 10.4144 13 10 13H9.375V16.125H10C10.4144 16.125 10.8118 15.9604 11.1049 15.6674C11.3979 15.3743 11.5625 14.9769 11.5625 14.5625ZM3.125 9.25V3.625C3.125 3.29348 3.2567 2.97554 3.49112 2.74112C3.72554 2.5067 4.04348 2.375 4.375 2.375H11.875C11.9571 2.37494 12.0384 2.39105 12.1143 2.42241C12.1902 2.45378 12.2591 2.49979 12.3172 2.55781L16.6922 6.93281C16.7502 6.9909 16.7962 7.05985 16.8276 7.13572C16.859 7.21159 16.8751 7.2929 16.875 7.375V9.25C16.875 9.41576 16.8092 9.57473 16.6919 9.69194C16.5747 9.80915 16.4158 9.875 16.25 9.875C16.0842 9.875 15.9253 9.80915 15.8081 9.69194C15.6908 9.57473 15.625 9.41576 15.625 9.25V8H11.875C11.7092 8 11.5503 7.93415 11.4331 7.81694C11.3158 7.69973 11.25 7.54076 11.25 7.375V3.625H4.375V9.25C4.375 9.41576 4.30915 9.57473 4.19194 9.69194C4.07473 9.80915 3.91576 9.875 3.75 9.875C3.58424 9.875 3.42527 9.80915 3.30806 9.69194C3.19085 9.57473 3.125 9.41576 3.125 9.25ZM12.5 6.75H14.7414L12.5 4.50859V6.75Z" fill="#8280FF"/>
</svg>
