<svg width="31" height="16" viewBox="0 0 31 16" fill="none" xmlns="http://www.w3.org/2000/svg">
<path d="M6.12689 6.45518H9.78248L7.98489 1.32493H7.95468L6.12689 6.45518ZM7.1994 0H8.7855L13 11H11.4139L10.2356 7.68767H5.67372L4.46526 11H3L7.1994 0Z" fill="#7F7F7D"/>
<rect y="12" width="16.5" height="4" fill="#FF5959"/>
<path fill-rule="evenodd" clip-rule="evenodd" d="M24.7699 5.92385C25.0881 5.65867 25.561 5.70167 25.8262 6.01987L27.75 8.32847L29.6739 6.01987C29.939 5.70167 30.4119 5.65867 30.7302 5.92385C31.0484 6.18902 31.0914 6.66194 30.8262 6.98015L28.3262 9.98015C28.1837 10.1511 27.9726 10.25 27.75 10.25C27.5274 10.25 27.3163 10.1511 27.1739 9.98015L24.6739 6.98015C24.4087 6.66194 24.4517 6.18902 24.7699 5.92385Z" fill="#7F7F7D"/>
</svg>
