<svg width="31" height="30" viewBox="0 0 31 30" fill="none" xmlns="http://www.w3.org/2000/svg">
<rect x="0.5" width="30" height="30" rx="15" fill="#8280FF"/>
<path fill-rule="evenodd" clip-rule="evenodd" d="M20.3496 18.6938H10.5795C8.64945 18.6938 6.93182 17.2809 6.74713 15.3601C6.53473 13.1623 8.26159 11.3061 10.4225 11.3061H21.8364C23.0461 11.3061 24.1451 12.1742 24.2651 13.3747C24.4036 14.7599 23.3232 15.9234 21.9657 15.9234H12.2694C11.7615 15.9234 11.3459 15.5079 11.3459 15C11.3459 14.4921 11.7615 14.0765 12.2694 14.0765H20.3496C20.7283 14.0765 21.0422 13.7625 21.0422 13.3839C21.0422 13.0053 20.7283 12.6913 20.3496 12.6913H12.3987C11.189 12.6913 10.09 13.5594 9.96999 14.7599C9.83147 16.1451 10.9119 17.3086 12.2694 17.3086H21.8087C23.7387 17.3086 25.4564 15.8957 25.641 13.9749C25.8534 11.7679 24.1266 9.92096 21.9657 9.92096H10.6349C7.98456 9.92096 5.61127 11.8602 5.36194 14.5013C5.0849 17.5395 7.44895 20.079 10.4225 20.079H20.3496C20.7283 20.079 21.0422 19.765 21.0422 19.3864C21.0422 19.0078 20.7283 18.6938 20.3496 18.6938Z" fill="white"/>
</svg>
