<svg width="42" height="40" viewBox="0 0 42 40" fill="none" xmlns="http://www.w3.org/2000/svg">
<rect y="0.250854" width="41.7527" height="39.4982" rx="19.7491" fill="#8280FF"/>
<path d="M23.5 11.023V28.9705C23.5023 29.1048 23.4697 29.2374 23.4055 29.3554C23.3412 29.4734 23.2475 29.5727 23.1334 29.6436C23.0038 29.7207 22.854 29.757 22.7035 29.7476C22.5529 29.7382 22.4087 29.6837 22.2897 29.5911L16.1425 24.8099C16.0979 24.7747 16.0619 24.7298 16.0373 24.6786C16.0126 24.6275 15.9998 24.5714 16 24.5146V15.4846C16.0002 15.4275 16.0133 15.3713 16.0385 15.3201C16.0637 15.2689 16.1002 15.2242 16.1453 15.1893L22.2925 10.408C22.4272 10.3036 22.5935 10.2482 22.7639 10.251C22.9343 10.2537 23.0987 10.3144 23.23 10.423C23.3162 10.4971 23.3851 10.5893 23.4318 10.6929C23.4785 10.7966 23.5017 10.9093 23.5 11.023ZM14.125 15.4996H11.5C11.1022 15.4996 10.7206 15.6576 10.4393 15.9389C10.158 16.2202 10 16.6017 10 16.9996V22.9996C10 23.3974 10.158 23.7789 10.4393 24.0602C10.7206 24.3415 11.1022 24.4996 11.5 24.4996H14.125C14.2245 24.4996 14.3198 24.4601 14.3902 24.3897C14.4605 24.3194 14.5 24.224 14.5 24.1246V15.8746C14.5 15.7751 14.4605 15.6797 14.3902 15.6094C14.3198 15.5391 14.2245 15.4996 14.125 15.4996ZM26.0097 17.4533C25.9356 17.5184 25.8751 17.5975 25.8316 17.6859C25.7882 17.7744 25.7625 17.8706 25.7563 17.969C25.75 18.0674 25.7632 18.1661 25.7951 18.2594C25.827 18.3527 25.877 18.4387 25.9422 18.5127C26.3039 18.9235 26.5035 19.4522 26.5035 19.9996C26.5035 20.547 26.3039 21.0756 25.9422 21.4864C25.8752 21.56 25.8236 21.6462 25.7902 21.7399C25.7569 21.8337 25.7425 21.9331 25.748 22.0324C25.7535 22.1318 25.7786 22.229 25.822 22.3185C25.8655 22.408 25.9262 22.488 26.0009 22.5538C26.0755 22.6196 26.1625 22.6699 26.2567 22.7018C26.351 22.7336 26.4506 22.7464 26.5498 22.7394C26.6491 22.7324 26.7459 22.7057 26.8347 22.6608C26.9236 22.616 27.0026 22.554 27.0672 22.4783C27.6704 21.7935 28.0032 20.9122 28.0032 19.9996C28.0032 19.0869 27.6704 18.2056 27.0672 17.5208C27.0021 17.4466 26.923 17.386 26.8344 17.3424C26.7458 17.2989 26.6495 17.2732 26.551 17.2669C26.4525 17.2607 26.3538 17.2739 26.2604 17.3059C26.167 17.3379 26.0809 17.388 26.0069 17.4533H26.0097ZM29.8431 14.9999C29.7786 14.9227 29.6992 14.8594 29.6097 14.8136C29.5202 14.7677 29.4223 14.7404 29.322 14.7331C29.2217 14.7258 29.121 14.7388 29.0258 14.7713C28.9306 14.8038 28.8429 14.8551 28.7679 14.9221C28.693 14.9891 28.6323 15.0706 28.5894 15.1616C28.5465 15.2525 28.5224 15.3512 28.5185 15.4517C28.5145 15.5522 28.5308 15.6525 28.5664 15.7465C28.602 15.8406 28.6561 15.9265 28.7256 15.9993C29.7097 17.0993 30.2538 18.5236 30.2538 19.9996C30.2538 21.4756 29.7097 22.8998 28.7256 23.9999C28.6561 24.0726 28.602 24.1585 28.5664 24.2526C28.5308 24.3467 28.5145 24.4469 28.5185 24.5474C28.5224 24.6479 28.5465 24.7466 28.5894 24.8376C28.6323 24.9286 28.693 25.01 28.7679 25.077C28.8429 25.1441 28.9306 25.1954 29.0258 25.2278C29.121 25.2603 29.2217 25.2733 29.322 25.266C29.4223 25.2588 29.5202 25.2314 29.6097 25.1856C29.6992 25.1398 29.7786 25.0764 29.8431 24.9993C31.0728 23.6242 31.7527 21.8443 31.7527 19.9996C31.7527 18.1549 31.0728 16.3749 29.8431 14.9999Z" fill="white"/>
</svg>
