<svg width="40" height="40" viewBox="0 0 40 40" fill="none" xmlns="http://www.w3.org/2000/svg">
<rect width="40" height="40" rx="20" fill="white"/>
<path d="M30 22.6087V29.5652C30 29.6805 29.9542 29.7911 29.8727 29.8727C29.7911 29.9542 29.6805 30 29.5652 30H10.4348C10.3195 30 10.2089 29.9542 10.1273 29.8727C10.0458 29.7911 10 29.6805 10 29.5652V22.6087C10 22.4934 10.0458 22.3828 10.1273 22.3013C10.2089 22.2197 10.3195 22.1739 10.4348 22.1739C10.5501 22.1739 10.6607 22.2197 10.7422 22.3013C10.8238 22.3828 10.8696 22.4934 10.8696 22.6087V29.1304H29.1304V22.6087C29.1304 22.4934 29.1762 22.3828 29.2578 22.3013C29.3393 22.2197 29.4499 22.1739 29.5652 22.1739C29.6805 22.1739 29.7911 22.2197 29.8727 22.3013C29.9542 22.3828 30 22.4934 30 22.6087ZM19.6924 22.9163C19.7328 22.9567 19.7807 22.9888 19.8335 23.0107C19.8863 23.0326 19.9429 23.0438 20 23.0438C20.0571 23.0438 20.1137 23.0326 20.1665 23.0107C20.2193 22.9888 20.2672 22.9567 20.3076 22.9163L24.6554 18.5685C24.6958 18.5281 24.7279 18.4801 24.7497 18.4273C24.7716 18.3746 24.7829 18.318 24.7829 18.2609C24.7829 18.2037 24.7716 18.1472 24.7497 18.0944C24.7279 18.0416 24.6958 17.9937 24.6554 17.9533C24.615 17.9129 24.5671 17.8808 24.5143 17.859C24.4615 17.8371 24.405 17.8258 24.3478 17.8258C24.2907 17.8258 24.2341 17.8371 24.1813 17.859C24.1286 17.8808 24.0806 17.9129 24.0402 17.9533L20.4348 21.5587V10.4348C20.4348 10.3195 20.389 10.2089 20.3074 10.1273C20.2259 10.0458 20.1153 10 20 10C19.8847 10 19.7741 10.0458 19.6926 10.1273C19.611 10.2089 19.5652 10.3195 19.5652 10.4348V21.5587L15.9598 17.9533C15.8782 17.8717 15.7675 17.8258 15.6522 17.8258C15.5368 17.8258 15.4261 17.8717 15.3446 17.9533C15.263 18.0348 15.2171 18.1455 15.2171 18.2609C15.2171 18.3762 15.263 18.4869 15.3446 18.5685L19.6924 22.9163Z" fill="#8280FF"/>
</svg>
