<svg width="41" height="40" viewBox="0 0 41 40" fill="none" xmlns="http://www.w3.org/2000/svg">
<rect x="0.5" width="40" height="40" rx="20" fill="#8280FF"/>
<path d="M13.9139 29.7535C12.7939 29.7535 12.0839 29.3735 11.6339 28.9235C10.7539 28.0435 10.1339 26.1735 12.1139 22.2035L12.9839 20.4735C13.0939 20.2435 13.0939 19.7635 12.9839 19.5335L12.1139 17.8035C10.1239 13.8335 10.7539 11.9535 11.6339 11.0835C12.5039 10.2035 14.3839 9.5735 18.3439 11.5635L26.9039 15.8435C29.0339 16.9035 30.2039 18.3835 30.2039 20.0035C30.2039 21.6235 29.0339 23.1035 26.9139 24.1635L18.3539 28.4435C16.4139 29.4135 14.9739 29.7535 13.9139 29.7535ZM13.9139 11.7535C13.3739 11.7535 12.9539 11.8835 12.6939 12.1435C11.9639 12.8635 12.2539 14.7335 13.4539 17.1235L14.3239 18.8635C14.6439 19.5135 14.6439 20.4935 14.3239 21.1435L13.4539 22.8735C12.2539 25.2735 11.9639 27.1335 12.6939 27.8535C13.4139 28.5835 15.2839 28.2935 17.6839 27.0935L26.2439 22.8135C27.8139 22.0335 28.7039 21.0035 28.7039 19.9935C28.7039 18.9835 27.8039 17.9535 26.2339 17.1735L17.6739 12.9035C16.1539 12.1435 14.8439 11.7535 13.9139 11.7535Z" fill="white"/>
</svg>
