<svg width="20" height="21" viewBox="0 0 20 21" fill="none" xmlns="http://www.w3.org/2000/svg">
<path d="M2.91699 16.1253C2.57533 16.1253 2.29199 15.842 2.29199 15.5003V6.33366C2.29199 2.65866 3.40866 1.54199 7.08366 1.54199H12.917C16.592 1.54199 17.7087 2.65866 17.7087 6.33366V14.667C17.7087 14.8003 17.7087 14.9253 17.7003 15.0587C17.6753 15.4003 17.367 15.667 17.0337 15.642C16.692 15.617 16.4253 15.317 16.4503 14.9753C16.4587 14.8753 16.4587 14.767 16.4587 14.667V6.33366C16.4587 3.35866 15.9003 2.79199 12.917 2.79199H7.08366C4.10033 2.79199 3.54199 3.35866 3.54199 6.33366V15.5003C3.54199 15.842 3.25866 16.1253 2.91699 16.1253Z" fill="#8280FF"/>
<path d="M14.167 19.4583H5.83366C3.88366 19.4583 2.29199 17.8667 2.29199 15.9167V15.375C2.29199 13.7167 3.64199 12.375 5.29199 12.375H17.0837C17.4253 12.375 17.7087 12.6583 17.7087 13V15.9167C17.7087 17.8667 16.117 19.4583 14.167 19.4583ZM5.29199 13.625C4.32533 13.625 3.54199 14.4083 3.54199 15.375V15.9167C3.54199 17.1833 4.56699 18.2083 5.83366 18.2083H14.167C15.4337 18.2083 16.4587 17.1833 16.4587 15.9167V13.625H5.29199Z" fill="#8280FF"/>
<path d="M13.3337 6.95801H6.66699C6.32533 6.95801 6.04199 6.67467 6.04199 6.33301C6.04199 5.99134 6.32533 5.70801 6.66699 5.70801H13.3337C13.6753 5.70801 13.9587 5.99134 13.9587 6.33301C13.9587 6.67467 13.6753 6.95801 13.3337 6.95801Z" fill="#8280FF"/>
<path d="M10.8337 9.875H6.66699C6.32533 9.875 6.04199 9.59167 6.04199 9.25C6.04199 8.90833 6.32533 8.625 6.66699 8.625H10.8337C11.1753 8.625 11.4587 8.90833 11.4587 9.25C11.4587 9.59167 11.1753 9.875 10.8337 9.875Z" fill="#8280FF"/>
</svg>
