<svg width="8" height="12" viewBox="0 0 8 12" fill="none" xmlns="http://www.w3.org/2000/svg">
<path d="M8 6.16767C8 6.71735 7.9117 7.20929 7.7351 7.64349C7.5585 8.07769 7.29864 8.44491 6.95553 8.74515C6.61242 9.04539 6.18858 9.27404 5.68401 9.43109C5.17944 9.58814 4.59918 9.66667 3.94324 9.66667C3.32766 9.66667 2.77515 9.59738 2.28571 9.45881C1.79628 9.31561 1.38253 9.10082 1.04447 8.81444C0.706402 8.52805 0.446547 8.17238 0.264901 7.74742C0.0883002 7.31784 0 6.81666 0 6.24389V0.791005C0 0.744814 0.0151372 0.703242 0.0454115 0.666289C0.0756859 0.629336 0.128666 0.599311 0.204352 0.576216C0.285084 0.55312 0.388521 0.534644 0.514664 0.520786C0.640807 0.506929 0.802271 0.5 0.999054 0.5C1.19079 0.5 1.34973 0.506929 1.47588 0.520786C1.60202 0.534644 1.70293 0.55312 1.77862 0.576216C1.8543 0.599311 1.90728 0.629336 1.93756 0.666289C1.97288 0.703242 1.99054 0.744814 1.99054 0.791005V6.08453C1.99054 6.4402 2.03847 6.74968 2.13434 7.01298C2.23021 7.27165 2.36645 7.48644 2.54305 7.65734C2.72469 7.82825 2.93914 7.95759 3.18638 8.04535C3.43866 8.1285 3.7187 8.17007 4.02649 8.17007C4.33933 8.17007 4.61936 8.12619 4.8666 8.03842C5.11384 7.95066 5.32324 7.82363 5.4948 7.65734C5.66635 7.48644 5.79754 7.27858 5.88836 7.03376C5.98423 6.78433 6.03217 6.50256 6.03217 6.18846V0.791005C6.03217 0.744814 6.0473 0.703242 6.07758 0.666289C6.10785 0.629336 6.16083 0.599311 6.23652 0.576216C6.3122 0.55312 6.41312 0.534643 6.53926 0.520786C6.67045 0.506929 6.83191 0.5 7.02365 0.5C7.21539 0.5 7.37181 0.506929 7.4929 0.520786C7.61905 0.534643 7.71996 0.55312 7.79565 0.576216C7.87133 0.599311 7.92431 0.629336 7.95459 0.666289C7.98486 0.703242 8 0.744814 8 0.791005V6.16767Z" fill="black"/>
<path d="M0 10.5833H8V11.5H0V10.5833Z" fill="black"/>
</svg>
