<svg width="14" height="14" viewBox="0 0 14 14" fill="none" xmlns="http://www.w3.org/2000/svg">
<path d="M14 7C14 7.08072 13.9679 7.15813 13.9109 7.21521C13.8538 7.27228 13.7764 7.30435 13.6957 7.30435H7.30435V13.6957C7.30435 13.7764 7.27228 13.8538 7.21521 13.9109C7.15813 13.9679 7.08072 14 7 14C6.91928 14 6.84187 13.9679 6.78479 13.9109C6.72772 13.8538 6.69565 13.7764 6.69565 13.6957V7.30435H0.304348C0.22363 7.30435 0.146218 7.27228 0.0891415 7.21521C0.0320652 7.15813 0 7.08072 0 7C0 6.91928 0.0320652 6.84187 0.0891415 6.78479C0.146218 6.72772 0.22363 6.69565 0.304348 6.69565H6.69565V0.304348C6.69565 0.22363 6.72772 0.146218 6.78479 0.0891415C6.84187 0.0320652 6.91928 0 7 0C7.08072 0 7.15813 0.0320652 7.21521 0.0891415C7.27228 0.146218 7.30435 0.22363 7.30435 0.304348V6.69565H13.6957C13.7764 6.69565 13.8538 6.72772 13.9109 6.78479C13.9679 6.84187 14 6.91928 14 7Z" fill="black"/>
</svg>
