<svg width="16" height="16" viewBox="0 0 16 16" fill="none" xmlns="http://www.w3.org/2000/svg">
<path d="M12.4545 12.4545V14.3636C12.4545 14.5324 12.3875 14.6943 12.2682 14.8136C12.1488 14.933 11.987 15 11.8182 15H1.63636C1.46759 15 1.30573 14.933 1.18639 14.8136C1.06705 14.6943 1 14.5324 1 14.3636V4.18182C1 4.01304 1.06705 3.85118 1.18639 3.73184C1.30573 3.6125 1.46759 3.54545 1.63636 3.54545H3.54545M5.50923 12.4545L11.6859 6.27704C11.745 6.21787 11.8152 6.17094 11.8925 6.13891C11.9697 6.10689 12.0525 6.0904 12.1362 6.0904C12.2198 6.0904 12.3026 6.10689 12.3799 6.13891C12.4571 6.17094 12.5273 6.21787 12.5864 6.27704L14.9998 8.69125M4.18182 1H14.3636C14.7151 1 15 1.28491 15 1.63636V11.8182C15 12.1696 14.7151 12.4545 14.3636 12.4545H4.18182C3.83036 12.4545 3.54545 12.1696 3.54545 11.8182V1.63636C3.54545 1.28491 3.83036 1 4.18182 1ZM8.63636 4.81818C8.63636 5.52109 8.06654 6.09091 7.36364 6.09091C6.66073 6.09091 6.09091 5.52109 6.09091 4.81818C6.09091 4.11527 6.66073 3.54545 7.36364 3.54545C8.06654 3.54545 8.63636 4.11527 8.63636 4.81818Z" stroke="black" stroke-linecap="round" stroke-linejoin="round"/>
</svg>
