<svg width="21" height="22" viewBox="0 0 21 22" fill="none" xmlns="http://www.w3.org/2000/svg">
<path d="M16.5 13V21M20.5 17H12.5M8.5 5C8.5 7.20914 6.70914 9 4.5 9C2.29086 9 0.5 7.20914 0.5 5C0.5 2.79086 2.29086 1 4.5 1C6.70914 1 8.5 2.79086 8.5 5ZM20.5 5C20.5 7.20914 18.7091 9 16.5 9C14.2909 9 12.5 7.20914 12.5 5C12.5 2.79086 14.2909 1 16.5 1C18.7091 1 20.5 2.79086 20.5 5ZM8.5 17C8.5 19.2091 6.70914 21 4.5 21C2.29086 21 0.5 19.2091 0.5 17C0.5 14.7909 2.29086 13 4.5 13C6.70914 13 8.5 14.7909 8.5 17Z" stroke="black" stroke-linecap="round" stroke-linejoin="round"/>
</svg>
