<svg width="18" height="18" viewBox="0 0 18 18" fill="none" xmlns="http://www.w3.org/2000/svg">
<path d="M17.9589 3.34663L16.3937 0.216196C16.3612 0.151185 16.3112 0.096521 16.2493 0.0583344C16.1874 0.0201477 16.1162 -5.19458e-05 16.0435 1.00322e-07H1.95652C1.88383 -5.19458e-05 1.81255 0.0201477 1.75069 0.0583344C1.68883 0.096521 1.63884 0.151185 1.6063 0.216196L0.0410872 3.34663C0.0139805 3.40102 -8.66069e-05 3.46097 4.01175e-07 3.52174V16.8261C4.01175e-07 17.1374 0.12368 17.436 0.343831 17.6562C0.563983 17.8763 0.862572 18 1.17391 18H16.8261C17.1374 18 17.436 17.8763 17.6562 17.6562C17.8763 17.436 18 17.1374 18 16.8261V3.52174C18.0001 3.46097 17.986 3.40102 17.9589 3.34663ZM2.19815 0.782609H15.8018L16.9758 3.13043H1.02424L2.19815 0.782609ZM16.8261 17.2174H1.17391C1.07013 17.2174 0.970603 17.1762 0.897219 17.1028C0.823836 17.0294 0.782609 16.9299 0.782609 16.8261V3.91304H17.2174V16.8261C17.2174 16.9299 17.1762 17.0294 17.1028 17.1028C17.0294 17.1762 16.9299 17.2174 16.8261 17.2174ZM12.4073 9.50576C12.4807 9.57919 12.522 9.67877 12.522 9.78261C12.522 9.88645 12.4807 9.98603 12.4073 10.0595C12.3339 10.1329 12.2343 10.1741 12.1304 10.1741C12.0266 10.1741 11.927 10.1329 11.8536 10.0595L9.3913 7.59717V14.4783C9.3913 14.582 9.35008 14.6816 9.27669 14.755C9.20331 14.8283 9.10378 14.8696 9 14.8696C8.89622 14.8696 8.79669 14.8283 8.72331 14.755C8.64992 14.6816 8.6087 14.582 8.6087 14.4783V7.59717L6.14641 10.0595C6.07299 10.1329 5.9734 10.1741 5.86957 10.1741C5.76573 10.1741 5.66614 10.1329 5.59272 10.0595C5.51929 9.98603 5.47804 9.88645 5.47804 9.78261C5.47804 9.67877 5.51929 9.57919 5.59272 9.50576L8.72315 6.37533C8.75949 6.33894 8.80265 6.31008 8.85015 6.29039C8.89766 6.2707 8.94858 6.26056 9 6.26056C9.05142 6.26056 9.10234 6.2707 9.14985 6.29039C9.19735 6.31008 9.24051 6.33894 9.27685 6.37533L12.4073 9.50576Z" fill="black"/>
</svg>
