<svg width="20" height="20" viewBox="0 0 20 20" fill="none" xmlns="http://www.w3.org/2000/svg">
<path d="M13.483 7.083L10.566 10L13.483 12.917C13.5581 12.9921 13.6002 13.0939 13.6002 13.2C13.6002 13.3061 13.5581 13.4079 13.483 13.483C13.4079 13.5581 13.3061 13.6002 13.2 13.6002C13.0939 13.6002 12.9921 13.5581 12.917 13.483L10 10.566L7.083 13.483C7.00795 13.5581 6.90615 13.6002 6.8 13.6002C6.69386 13.6002 6.59206 13.5581 6.517 13.483C6.44195 13.4079 6.39978 13.3061 6.39978 13.2C6.39978 13.0939 6.44195 12.9921 6.517 12.917L9.434 10L6.517 7.083C6.44195 7.00794 6.39978 6.90614 6.39978 6.8C6.39978 6.69385 6.44195 6.59205 6.517 6.517C6.59206 6.44194 6.69386 6.39978 6.8 6.39978C6.90615 6.39978 7.00795 6.44194 7.083 6.517L10 9.434L12.917 6.517C12.9542 6.47983 12.9983 6.45035 13.0468 6.43024C13.0954 6.41013 13.1474 6.39978 13.2 6.39978C13.2526 6.39978 13.3046 6.41013 13.3532 6.43024C13.4017 6.45035 13.4458 6.47983 13.483 6.517C13.5202 6.55416 13.5496 6.59828 13.5698 6.64684C13.5899 6.6954 13.6002 6.74744 13.6002 6.8C13.6002 6.85256 13.5899 6.9046 13.5698 6.95316C13.5496 7.00171 13.5202 7.04583 13.483 7.083ZM20 10C20 11.9778 19.4135 13.9112 18.3147 15.5557C17.2159 17.2002 15.6541 18.4819 13.8268 19.2388C11.9996 19.9957 9.98891 20.1937 8.0491 19.8078C6.10929 19.422 4.32746 18.4696 2.92894 17.0711C1.53041 15.6725 0.578004 13.8907 0.192152 11.9509C-0.1937 10.0111 0.00433268 8.00043 0.761209 6.17316C1.51809 4.3459 2.79981 2.78412 4.4443 1.6853C6.08879 0.58649 8.02219 0 10 0C12.6513 0.0029116 15.1931 1.05741 17.0679 2.93215C18.9426 4.80688 19.9971 7.34873 20 10ZM19.2 10C19.2 8.18041 18.6604 6.40168 17.6495 4.88875C16.6386 3.37582 15.2018 2.19663 13.5207 1.50031C11.8396 0.803982 9.9898 0.621791 8.20517 0.976775C6.42055 1.33176 4.78126 2.20797 3.49462 3.49462C2.20798 4.78126 1.33176 6.42054 0.97678 8.20517C0.621796 9.98979 0.803986 11.8396 1.50031 13.5207C2.19664 15.2018 3.37583 16.6386 4.88876 17.6495C6.40169 18.6604 8.18042 19.2 10 19.2C12.4392 19.1973 14.7777 18.2272 16.5025 16.5025C18.2272 14.7777 19.1974 12.4392 19.2 10Z" fill="white"/>
</svg>
