<svg width="20" height="14" viewBox="0 0 20 14" fill="none" xmlns="http://www.w3.org/2000/svg">
<path d="M19.9709 6.86145C19.9416 6.79645 19.2364 5.24586 17.6579 3.67987C16.1958 2.22934 13.6811 0.5 10 0.5C6.31889 0.5 3.80418 2.22934 2.34208 3.67987C0.7636 5.24586 0.0584125 6.79645 0.0291016 6.86145C0.00990544 6.90531 0 6.95261 0 7.00043C0 7.04824 0.00990544 7.09555 0.0291016 7.13941C0.0584125 7.20526 0.7636 8.755 2.34208 10.321C3.80763 11.7749 6.31975 13.5 10 13.5C13.6802 13.5 16.1958 11.7715 17.6579 10.321C19.2364 8.755 19.9416 7.20526 19.9709 7.13941C19.9901 7.09555 20 7.04824 20 7.00043C20 6.95261 19.9901 6.90531 19.9709 6.86145ZM17.1519 9.85487C15.163 11.822 12.7552 12.8158 9.99655 12.8158C7.23787 12.8158 4.83351 11.8194 2.84123 9.85487C1.99353 9.01615 1.28062 8.05332 0.727392 7C1.28165 5.94644 1.99574 4.98359 2.84468 4.14513C4.83696 2.18059 7.24132 1.18421 10 1.18421C12.7587 1.18421 15.163 2.18059 17.1553 4.14513C18.0042 4.98368 18.7182 5.94651 19.2726 7C18.7183 8.05355 18.0042 9.01639 17.1553 9.85487H17.1519ZM10 3.23684C9.24978 3.23684 8.51641 3.45755 7.89262 3.87105C7.26884 4.28455 6.78265 4.87227 6.49556 5.5599C6.20846 6.24753 6.13334 7.00417 6.2797 7.73416C6.42606 8.46414 6.78733 9.13467 7.31781 9.66095C7.8483 10.1872 8.52418 10.5456 9.25999 10.6909C9.99579 10.8361 10.7585 10.7615 11.4516 10.4767C12.1447 10.1919 12.7371 9.70955 13.1539 9.0907C13.5707 8.47185 13.7932 7.74428 13.7932 7C13.792 6.0023 13.392 5.04578 12.6809 4.3403C11.9698 3.63481 11.0057 3.23797 10 3.23684ZM10 10.0789C9.38618 10.0789 8.78615 9.89837 8.27578 9.56005C7.76541 9.22173 7.36763 8.74087 7.13273 8.17826C6.89783 7.61566 6.83637 6.99658 6.95612 6.39933C7.07587 5.80207 7.37145 5.25345 7.80549 4.82286C8.23952 4.39226 8.79251 4.09902 9.39453 3.98021C9.99656 3.86141 10.6206 3.92238 11.1877 4.15542C11.7548 4.38846 12.2395 4.7831 12.5805 5.28943C12.9215 5.79576 13.1035 6.39104 13.1035 7C13.1035 7.81659 12.7765 8.59973 12.1945 9.17714C11.6125 9.75456 10.8231 10.0789 10 10.0789Z" fill="#8280FF"/>
</svg>
