<svg width="14" height="14" viewBox="0 0 14 14" fill="none" xmlns="http://www.w3.org/2000/svg">
<path d="M13.5 1.67002V4.86794C13.5 4.93862 13.4702 5.0064 13.4172 5.05638C13.3642 5.10636 13.2923 5.13443 13.2174 5.13443H9.82609C9.75113 5.13443 9.67925 5.10636 9.62625 5.05638C9.57325 5.0064 9.54348 4.93862 9.54348 4.86794C9.54348 4.79726 9.57325 4.72948 9.62625 4.6795C9.67925 4.62952 9.75113 4.60145 9.82609 4.60145H12.5349L11.0194 3.17171C9.91493 2.13032 8.41962 1.54147 6.85776 1.53286C5.29589 1.52426 3.79339 2.09659 2.67609 3.12574C2.64955 3.15024 2.61816 3.16957 2.5837 3.18262C2.54924 3.19568 2.5124 3.20221 2.47526 3.20184C2.43813 3.20147 2.40144 3.1942 2.36728 3.18046C2.33313 3.16672 2.30217 3.14676 2.2762 3.12174C2.25022 3.09672 2.22972 3.06712 2.21587 3.03463C2.20203 3.00213 2.1951 2.96739 2.1955 2.93237C2.19589 2.89735 2.20359 2.86275 2.21817 2.83055C2.23274 2.79834 2.2539 2.76915 2.28043 2.74465C3.5042 1.61746 5.14987 0.990627 6.86054 1.00011C8.57121 1.00958 10.209 1.65461 11.4186 2.79529L12.9348 4.22436V1.67002C12.9348 1.59934 12.9646 1.53156 13.0176 1.48158C13.0706 1.4316 13.1424 1.40353 13.2174 1.40353C13.2923 1.40353 13.3642 1.4316 13.4172 1.48158C13.4702 1.53156 13.5 1.59934 13.5 1.67002ZM11.3239 10.874C10.2178 11.8984 8.72836 12.4707 7.17804 12.467H7.14484C5.58131 12.4625 4.0836 11.873 2.9806 10.8281L1.46511 9.39833H4.17391C4.24887 9.39833 4.32075 9.37025 4.37375 9.32027C4.42675 9.27029 4.45652 9.20251 4.45652 9.13183C4.45652 9.06115 4.42675 8.99337 4.37375 8.94339C4.32075 8.89342 4.24887 8.86534 4.17391 8.86534H0.782609C0.707656 8.86534 0.635774 8.89342 0.582774 8.94339C0.529775 8.99337 0.5 9.06115 0.5 9.13183V12.3298C0.5 12.4004 0.529775 12.4682 0.582774 12.5182C0.635774 12.5682 0.707656 12.5962 0.782609 12.5962C0.857561 12.5962 0.929444 12.5682 0.982443 12.5182C1.03544 12.4682 1.06522 12.4004 1.06522 12.3298V9.77541L2.58141 11.2045C3.78895 12.3492 5.42906 12.995 7.1413 13H7.17734C8.87552 13.0038 10.507 12.3769 11.7189 11.2551C11.7454 11.2306 11.7666 11.2014 11.7811 11.1692C11.7957 11.137 11.8034 11.1024 11.8038 11.0674C11.8042 11.0324 11.7973 10.9976 11.7834 10.9651C11.7696 10.9327 11.7491 10.9031 11.7231 10.878C11.6971 10.853 11.6662 10.8331 11.632 10.8193C11.5979 10.8056 11.5612 10.7983 11.524 10.7979C11.4869 10.7976 11.45 10.8041 11.4156 10.8171C11.3811 10.8302 11.3497 10.8495 11.3232 10.874H11.3239Z" fill="#3A3886" stroke="#3A3886"/>
</svg>
