<svg width="22" height="22" viewBox="0 0 22 22" fill="none" xmlns="http://www.w3.org/2000/svg">
<path d="M1 5V20.0775C1.00055 20.322 1.08172 20.5562 1.22577 20.7291C1.36982 20.9019 1.56503 20.9993 1.76875 21H20.2594C20.4558 21 20.6442 20.9064 20.7831 20.7397C20.922 20.573 21 20.347 21 20.1112V6C21 5.73478 20.9122 5.48043 20.7559 5.29289C20.5996 5.10536 20.3877 5 20.1667 5H1ZM1 5V2C1 1.73478 1.0878 1.48043 1.24408 1.29289C1.40036 1.10536 1.61232 1 1.83333 1H7.32188C7.54259 1.00012 7.75426 1.10532 7.91042 1.2925L11 5M8.5 13H13.5M11 10V16" stroke="#FFA500" stroke-linecap="round" stroke-linejoin="round"/>
</svg>
