<svg width="18" height="18" viewBox="0 0 18 18" fill="none" xmlns="http://www.w3.org/2000/svg">
<path d="M18 1.95569V6.65158C18 6.75536 17.9621 6.8549 17.8945 6.92829C17.827 7.00167 17.7354 7.0429 17.6399 7.0429H13.3185C13.223 7.0429 13.1314 7.00167 13.0639 6.92829C12.9964 6.8549 12.9584 6.75536 12.9584 6.65158C12.9584 6.54779 12.9964 6.44826 13.0639 6.37487C13.1314 6.30148 13.223 6.26025 13.3185 6.26025H16.7126L13.6363 3.19717L13.6246 3.18543C12.5736 2.04356 11.2361 1.26357 9.77948 0.942906C8.32282 0.62224 6.8115 0.775114 5.43433 1.38243C4.05716 1.98974 2.87521 3.02457 2.03612 4.35764C1.19704 5.6907 0.738038 7.26288 0.716458 8.87778C0.694877 10.4927 1.11168 12.0787 1.91478 13.4377C2.71789 14.7966 3.8717 15.8683 5.23206 16.5188C6.59242 17.1694 8.09902 17.3699 9.56363 17.0953C11.0282 16.8207 12.3859 16.0833 13.4671 14.975C13.5366 14.9037 13.6293 14.8653 13.7249 14.8682C13.8204 14.8711 13.911 14.9152 13.9767 14.9907C14.0423 15.0662 14.0777 15.167 14.075 15.2708C14.0723 15.3746 14.0317 15.4731 13.9622 15.5444C12.4279 17.1263 10.392 18.0056 8.27698 18H8.16355C6.80727 17.9788 5.47654 17.596 4.28827 16.8851C3.1 16.1743 2.09058 15.1572 1.34869 13.9232C0.606795 12.6893 0.155144 11.2762 0.03342 9.80815C-0.0883045 8.34011 0.123623 6.86205 0.650581 5.50385C1.17754 4.14564 2.0034 2.94886 3.05559 2.01865C4.10779 1.08845 5.35412 0.453295 6.68507 0.169C8.01602 -0.115296 9.39085 -0.0400305 10.6888 0.388182C11.9867 0.816394 13.168 1.58445 14.1288 2.62486L17.2798 5.76034V1.95569C17.2798 1.85191 17.3177 1.75237 17.3853 1.67898C17.4528 1.6056 17.5444 1.56437 17.6399 1.56437C17.7354 1.56437 17.827 1.6056 17.8945 1.67898C17.9621 1.75237 18 1.85191 18 1.95569Z" fill="white"/>
</svg>
