<svg width="16" height="16" viewBox="0 0 16 16" fill="none" xmlns="http://www.w3.org/2000/svg">
<path d="M5.65741 10.3389L10.3388 5.6575M6.82776 4.2026L9.02655 2.00822C9.68681 1.35863 10.577 0.996258 11.5032 1.00003C12.4295 1.0038 13.3167 1.37341 13.9716 2.02835C14.6266 2.6833 14.9962 3.5705 15 4.49672C15.0037 5.42294 14.6414 6.31313 13.9918 6.97338L11.793 9.1685M4.20264 6.82784L2.00823 9.02662C1.35864 9.68687 0.996258 10.5771 1.00003 11.5033C1.0038 12.4295 1.37342 13.3167 2.02836 13.9716C2.68331 14.6266 3.57053 14.9962 4.49676 15C5.42299 15.0037 6.31318 14.6414 6.97344 13.9918L9.16859 11.793" stroke="black" stroke-linecap="round" stroke-linejoin="round"/>
</svg>
