<svg width="18" height="14" viewBox="0 0 18 14" fill="none" xmlns="http://www.w3.org/2000/svg">
<path d="M17.0364 4.66667C17.1593 4.66667 17.2773 4.60994 17.3642 4.50896C17.4512 4.40797 17.5 4.27101 17.5 4.12821V1.25641C17.5 0.92319 17.386 0.603617 17.1831 0.367994C16.9803 0.132371 16.7051 0 16.4182 0H1.58182C1.2949 0 1.01974 0.132371 0.816857 0.367994C0.613977 0.603617 0.5 0.92319 0.5 1.25641V4.12821C0.5 4.27101 0.548847 4.40797 0.635796 4.50896C0.722745 4.60994 0.840672 4.66667 0.963636 4.66667C1.49648 4.66667 2.0075 4.9125 2.38428 5.35008C2.76106 5.78767 2.97273 6.38116 2.97273 7C2.97273 7.61884 2.76106 8.21233 2.38428 8.64992C2.0075 9.0875 1.49648 9.33333 0.963636 9.33333C0.840672 9.33333 0.722745 9.39006 0.635796 9.49104C0.548847 9.59203 0.5 9.72899 0.5 9.87179V12.7436C0.5 13.0768 0.613977 13.3964 0.816857 13.632C1.01974 13.8676 1.2949 14 1.58182 14H16.4182C16.7051 14 16.9803 13.8676 17.1831 13.632C17.386 13.3964 17.5 13.0768 17.5 12.7436V9.87179C17.5 9.72899 17.4512 9.59203 17.3642 9.49104C17.2773 9.39006 17.1593 9.33333 17.0364 9.33333C16.5035 9.33333 15.9925 9.0875 15.6157 8.64992C15.2389 8.21233 15.0273 7.61884 15.0273 7C15.0273 6.38116 15.2389 5.78767 15.6157 5.35008C15.9925 4.9125 16.5035 4.66667 17.0364 4.66667ZM1.42727 12.7436V10.3681C2.1176 10.2408 2.7462 9.83169 3.20005 9.21431C3.6539 8.59694 3.90324 7.81178 3.90324 7C3.90324 6.18822 3.6539 5.40306 3.20005 4.78569C2.7462 4.16831 2.1176 3.7592 1.42727 3.63192V1.25641C1.42727 1.20881 1.44356 1.16315 1.47254 1.12949C1.50152 1.09583 1.54083 1.07692 1.58182 1.07692H6.06364V12.9231H1.58182C1.54083 12.9231 1.50152 12.9042 1.47254 12.8705C1.44356 12.8368 1.42727 12.7912 1.42727 12.7436ZM16.5727 10.3681V12.7436C16.5727 12.7912 16.5564 12.8368 16.5275 12.8705C16.4985 12.9042 16.4592 12.9231 16.4182 12.9231H6.99091V1.07692H16.4182C16.4592 1.07692 16.4985 1.09583 16.5275 1.12949C16.5564 1.16315 16.5727 1.20881 16.5727 1.25641V3.63192C15.8824 3.7592 15.2538 4.16831 14.8 4.78569C14.3461 5.40306 14.0968 6.18822 14.0968 7C14.0968 7.81178 14.3461 8.59694 14.8 9.21431C15.2538 9.83169 15.8824 10.2408 16.5727 10.3681Z" fill="#3A3886"/>
</svg>
