<svg width="16" height="14" viewBox="0 0 16 14" fill="none" xmlns="http://www.w3.org/2000/svg">
<path d="M14.1538 0H1.84615C1.35652 0 0.886947 0.184375 0.540726 0.512563C0.194505 0.840752 0 1.28587 0 1.75V9.91667C0 10.3808 0.194505 10.8259 0.540726 11.1541C0.886947 11.4823 1.35652 11.6667 1.84615 11.6667H7.38462V12.8333H5.53846C5.37525 12.8333 5.21873 12.8948 5.10332 13.0042C4.98791 13.1136 4.92308 13.262 4.92308 13.4167C4.92308 13.5714 4.98791 13.7197 5.10332 13.8291C5.21873 13.9385 5.37525 14 5.53846 14H10.4615C10.6247 14 10.7813 13.9385 10.8967 13.8291C11.0121 13.7197 11.0769 13.5714 11.0769 13.4167C11.0769 13.262 11.0121 13.1136 10.8967 13.0042C10.7813 12.8948 10.6247 12.8333 10.4615 12.8333H8.61539V11.6667H14.1538C14.6435 11.6667 15.1131 11.4823 15.4593 11.1541C15.8055 10.8259 16 10.3808 16 9.91667V1.75C16 1.28587 15.8055 0.840752 15.4593 0.512563C15.1131 0.184375 14.6435 0 14.1538 0ZM14.1538 10.5H1.84615C1.68294 10.5 1.52642 10.4385 1.41101 10.3291C1.2956 10.2197 1.23077 10.0714 1.23077 9.91667V8.75H14.7692V9.91667C14.7692 10.0714 14.7044 10.2197 14.589 10.3291C14.4736 10.4385 14.3171 10.5 14.1538 10.5Z" fill="white"/>
</svg>
