<svg width="29" height="26" viewBox="0 0 29 26" fill="none" xmlns="http://www.w3.org/2000/svg">
<path d="M8 18H2C1.73478 18 1.48043 17.8946 1.29289 17.7071C1.10536 17.5196 1 17.2652 1 17V9C1 8.73478 1.10536 8.48043 1.29289 8.29289C1.48043 8.10536 1.73478 8 2 8H8M8 18L17 25V1L8 8M8 18V8M22 10.3562C22.6433 11.0866 22.9982 12.0266 22.9982 13C22.9982 13.9733 22.6433 14.9133 22 15.6437M25.707 7C27.1829 8.65007 27.9988 10.7862 27.9988 13C27.9988 15.2138 27.1829 17.3499 25.707 19" stroke="#007AFF" stroke-linecap="round" stroke-linejoin="round"/>
</svg>
