<svg width="210" height="28" viewBox="0 0 210 28" fill="none" xmlns="http://www.w3.org/2000/svg">
<path d="M0 1.5C0 0.671572 0.671573 0 1.5 0C2.32843 0 3 0.671573 3 1.5V26.5C3 27.3284 2.32843 28 1.5 28C0.671573 28 0 27.3284 0 26.5V1.5Z" fill="#007AFF"/>
<path d="M9 7.5C9 6.67157 9.67157 6 10.5 6C11.3284 6 12 6.67157 12 7.5V19.5C12 20.3284 11.3284 21 10.5 21C9.67157 21 9 20.3284 9 19.5V7.5Z" fill="#007AFF"/>
<path d="M18 10.5C18 9.67157 18.6716 9 19.5 9C20.3284 9 21 9.67157 21 10.5V17.5C21 18.3284 20.3284 19 19.5 19C18.6716 19 18 18.3284 18 17.5V10.5Z" fill="#007AFF"/>
<path d="M27 2.5C27 1.67157 27.6716 1 28.5 1C29.3284 1 30 1.67157 30 2.5V24.5C30 25.3284 29.3284 26 28.5 26C27.6716 26 27 25.3284 27 24.5V2.5Z" fill="#007AFF"/>
<path d="M36 7.5C36 6.67157 36.6716 6 37.5 6C38.3284 6 39 6.67157 39 7.5V19.5C39 20.3284 38.3284 21 37.5 21C36.6716 21 36 20.3284 36 19.5V7.5Z" fill="#007AFF"/>
<path d="M45 10.5C45 9.67157 45.6716 9 46.5 9C47.3284 9 48 9.67157 48 10.5V17.5C48 18.3284 47.3284 19 46.5 19C45.6716 19 45 18.3284 45 17.5V10.5Z" fill="#007AFF"/>
<path d="M54 10.5C54 9.67157 54.6716 9 55.5 9C56.3284 9 57 9.67157 57 10.5V17.5C57 18.3284 56.3284 19 55.5 19C54.6716 19 54 18.3284 54 17.5V10.5Z" fill="#007AFF"/>
<path d="M63 7.5C63 6.67157 63.6716 6 64.5 6C65.3284 6 66 6.67157 66 7.5V19.5C66 20.3284 65.3284 21 64.5 21C63.6716 21 63 20.3284 63 19.5V7.5Z" fill="#007AFF"/>
<path d="M72 1.5C72 0.671572 72.6716 0 73.5 0C74.3284 0 75 0.671573 75 1.5V26.5C75 27.3284 74.3284 28 73.5 28C72.6716 28 72 27.3284 72 26.5V1.5Z" fill="#007AFF"/>
<path d="M81 10.5C81 9.67157 81.6716 9 82.5 9C83.3284 9 84 9.67157 84 10.5V17.5C84 18.3284 83.3284 19 82.5 19C81.6716 19 81 18.3284 81 17.5V10.5Z" fill="#007AFF"/>
<path d="M90 7.5C90 6.67157 90.6716 6 91.5 6C92.3284 6 93 6.67157 93 7.5V19.5C93 20.3284 92.3284 21 91.5 21C90.6716 21 90 20.3284 90 19.5V7.5Z" fill="#007AFF"/>
<path d="M99 10.5C99 9.67157 99.6716 9 100.5 9C101.328 9 102 9.67157 102 10.5V17.5C102 18.3284 101.328 19 100.5 19C99.6716 19 99 18.3284 99 17.5V10.5Z" fill="#007AFF"/>
<path d="M117 2.5C117 1.67157 117.672 1 118.5 1C119.328 1 120 1.67157 120 2.5V24.5C120 25.3284 119.328 26 118.5 26C117.672 26 117 25.3284 117 24.5V2.5Z" fill="#007AFF"/>
<path d="M126 10.5C126 9.67157 126.672 9 127.5 9C128.328 9 129 9.67157 129 10.5V17.5C129 18.3284 128.328 19 127.5 19C126.672 19 126 18.3284 126 17.5V10.5Z" fill="#007AFF"/>
<path d="M135 11.5C135 10.6716 135.672 10 136.5 10C137.328 10 138 10.6716 138 11.5V16.5C138 17.3284 137.328 18 136.5 18C135.672 18 135 17.3284 135 16.5V11.5Z" fill="#007AFF"/>
<path d="M144 7.5C144 6.67157 144.672 6 145.5 6C146.328 6 147 6.67157 147 7.5V19.5C147 20.3284 146.328 21 145.5 21C144.672 21 144 20.3284 144 19.5V7.5Z" fill="#007AFF"/>
<path d="M153 10.5C153 9.67157 153.672 9 154.5 9C155.328 9 156 9.67157 156 10.5V17.5C156 18.3284 155.328 19 154.5 19C153.672 19 153 18.3284 153 17.5V10.5Z" fill="#007AFF"/>
<path d="M162 5.5C162 4.67157 162.672 4 163.5 4C164.328 4 165 4.67157 165 5.5V22.5C165 23.3284 164.328 24 163.5 24C162.672 24 162 23.3284 162 22.5V5.5Z" fill="#007AFF"/>
<path d="M171 7.5C171 6.67157 171.672 6 172.5 6C173.328 6 174 6.67157 174 7.5V19.5C174 20.3284 173.328 21 172.5 21C171.672 21 171 20.3284 171 19.5V7.5Z" fill="#007AFF"/>
<path d="M180 10.5C180 9.67157 180.672 9 181.5 9C182.328 9 183 9.67157 183 10.5V17.5C183 18.3284 182.328 19 181.5 19C180.672 19 180 18.3284 180 17.5V10.5Z" fill="#007AFF"/>
<path d="M189 11.5C189 10.6716 189.672 10 190.5 10C191.328 10 192 10.6716 192 11.5V16.5C192 17.3284 191.328 18 190.5 18C189.672 18 189 17.3284 189 16.5V11.5Z" fill="#007AFF"/>
<path d="M198 13.5C198 12.6716 198.672 12 199.5 12C200.328 12 201 12.6716 201 13.5V14.5C201 15.3284 200.328 16 199.5 16C198.672 16 198 15.3284 198 14.5V13.5Z" fill="#007AFF"/>
<path d="M207 13.5C207 12.6716 207.672 12 208.5 12C209.328 12 210 12.6716 210 13.5C210 14.3284 209.328 15 208.5 15C207.672 15 207 14.3284 207 13.5Z" fill="#007AFF"/>
<path d="M108 5.5C108 4.67157 108.672 4 109.5 4C110.328 4 111 4.67157 111 5.5V22.5C111 23.3284 110.328 24 109.5 24C108.672 24 108 23.3284 108 22.5V5.5Z" fill="#007AFF"/>
</svg>
