<svg width="14" height="14" viewBox="0 0 14 14" fill="none" xmlns="http://www.w3.org/2000/svg">
<path d="M5.90253 10.764C5.93352 10.795 5.95811 10.8317 5.97488 10.8722C5.99165 10.9127 6.00029 10.956 6.00029 10.9999C6.00029 11.0437 5.99165 11.087 5.97488 11.1275C5.95811 11.168 5.93352 11.2047 5.90253 11.2357L3.23593 13.9022C3.20498 13.9332 3.16821 13.9578 3.12775 13.9746C3.08728 13.9914 3.04391 14 3.00011 14C2.9563 14 2.91293 13.9914 2.87246 13.9746C2.832 13.9578 2.79524 13.9332 2.76428 13.9022L0.0976826 11.2357C0.0351374 11.1731 -1.74361e-09 11.0883 0 10.9999C1.74361e-09 10.9114 0.0351377 10.8266 0.0976829 10.764C0.160228 10.7015 0.245058 10.6663 0.33351 10.6663C0.421962 10.6663 0.506792 10.7015 0.569337 10.764L2.66678 12.8614V0.333583C2.66678 0.245181 2.7019 0.1604 2.76441 0.0978897C2.82692 0.0353799 2.9117 0.000262251 3.00011 0.000262251C3.08851 0.000262251 3.17329 0.0353799 3.2358 0.0978897C3.29831 0.1604 3.33343 0.245181 3.33343 0.333583V12.8614L5.43087 10.764C5.46183 10.733 5.49859 10.7084 5.53906 10.6917C5.57952 10.6749 5.6229 10.6663 5.6667 10.6663C5.71051 10.6663 5.75388 10.6749 5.79434 10.6917C5.83481 10.7084 5.87157 10.733 5.90253 10.764ZM13.9023 2.76433L11.2357 0.0977584C11.2048 0.0667675 11.168 0.0421822 11.1275 0.0254081C11.0871 0.00863398 11.0437 0 10.9999 0C10.9561 0 10.9127 0.00863398 10.8722 0.0254081C10.8318 0.0421822 10.795 0.0667675 10.7641 0.0977584L8.09747 2.76433C8.03493 2.82687 7.99979 2.9117 7.99979 3.00015C7.99979 3.0886 8.03493 3.17343 8.09747 3.23597C8.16002 3.29852 8.24485 3.33366 8.3333 3.33366C8.42175 3.33366 8.50658 3.29852 8.56913 3.23597L10.6666 1.13855V13.6664C10.6666 13.7548 10.7017 13.8396 10.7642 13.9021C10.8267 13.9646 10.9115 13.9997 10.9999 13.9997C11.0883 13.9997 11.1731 13.9646 11.2356 13.9021C11.2981 13.8396 11.3332 13.7548 11.3332 13.6664V1.13855L13.4307 3.23597C13.4616 3.26694 13.4984 3.29151 13.5389 3.30827C13.5793 3.32503 13.6227 3.33366 13.6665 3.33366C13.7103 3.33366 13.7537 3.32503 13.7941 3.30827C13.8346 3.29151 13.8713 3.26694 13.9023 3.23597C13.9333 3.20501 13.9579 3.16824 13.9746 3.12778C13.9914 3.08731 14 3.04395 14 3.00015C14 2.95635 13.9914 2.91299 13.9746 2.87252C13.9579 2.83206 13.9333 2.79529 13.9023 2.76433Z" fill="black"/>
</svg>
