<svg width="16" height="12" viewBox="0 0 16 12" fill="none" xmlns="http://www.w3.org/2000/svg">
<path d="M10.5675 5.65116L7.07726 3.41861C7.01151 3.37652 6.93509 3.35236 6.85614 3.34871C6.7772 3.34505 6.6987 3.36204 6.62904 3.39786C6.55938 3.43368 6.50116 3.48699 6.46062 3.55208C6.42007 3.61718 6.39872 3.69161 6.39884 3.76745V8.23255C6.39872 8.30839 6.42007 8.38282 6.46062 8.44792C6.50116 8.51301 6.55938 8.56632 6.62904 8.60214C6.6987 8.63796 6.7772 8.65495 6.85614 8.65129C6.93509 8.64764 7.01151 8.62348 7.07726 8.58139L10.5675 6.34884C10.6275 6.31065 10.6767 6.25882 10.7108 6.19795C10.7448 6.13708 10.7627 6.06908 10.7627 6C10.7627 5.93092 10.7448 5.86292 10.7108 5.80205C10.6767 5.74118 10.6275 5.68935 10.5675 5.65116ZM7.27141 7.45046V4.54954L9.53863 6L7.27141 7.45046ZM15.5899 1.9535C15.5268 1.71818 15.4063 1.5006 15.2384 1.31866C15.0706 1.13672 14.8601 0.995632 14.6243 0.906989C12.1432 -0.0146372 8.16361 1.39116e-05 7.99855 1.39116e-05C7.83349 1.39116e-05 3.85384 -0.0146372 1.36993 0.906989C1.13467 0.995995 0.924754 1.13725 0.757403 1.31916C0.590052 1.50108 0.470035 1.71847 0.407199 1.9535C0.221778 2.6435 0 3.90698 0 6C0 8.09302 0.221778 9.3565 0.407199 10.0465C0.470327 10.2818 0.590785 10.4994 0.758662 10.6813C0.926539 10.8633 1.13704 11.0044 1.37284 11.093C3.85384 12.0146 7.83276 12 7.99855 12H8.05017C8.55263 12 12.2676 11.9693 14.6272 11.093C14.863 11.0044 15.0735 10.8633 15.2413 10.6813C15.4092 10.4994 15.5297 10.2818 15.5928 10.0465C15.7782 9.3579 16 8.0979 16 6C16 3.9021 15.7789 2.6435 15.5899 1.9535ZM14.745 9.8372C14.717 9.94444 14.6628 10.0438 14.5869 10.127C14.5111 10.2102 14.4157 10.2749 14.3087 10.3158C11.9818 11.176 8.04072 11.1628 7.99855 11.1628C7.95637 11.1628 4.02036 11.1767 1.6906 10.3137C1.58356 10.2728 1.48818 10.2081 1.41233 10.1249C1.33648 10.0417 1.28232 9.94234 1.25432 9.83511C1.07908 9.19395 0.872569 8.0079 0.872569 6C0.872569 3.9921 1.07908 2.80605 1.25214 2.1628C1.28014 2.05557 1.3343 1.95625 1.41015 1.87304C1.486 1.78983 1.58138 1.7251 1.68842 1.6842C3.93092 0.855361 7.67351 0.837221 7.98109 0.837221H7.99855C8.03781 0.837221 11.9767 0.823268 14.3065 1.68629C14.4135 1.72719 14.5089 1.79192 14.5848 1.87513C14.6606 1.95834 14.7148 2.05766 14.7428 2.16489C14.9158 2.80605 15.1223 3.9921 15.1223 6.00209C15.1223 8.01209 14.918 9.19395 14.745 9.8372Z" fill="#3A3886"/>
</svg>
