<svg width="30" height="22" viewBox="0 0 30 22" fill="none" xmlns="http://www.w3.org/2000/svg">
<path fill-rule="evenodd" clip-rule="evenodd" d="M19.3967 1.50943C17.6855 1.43721 15.9867 1.82892 14.4799 2.64309C12.9732 3.45726 11.7145 4.66362 10.8372 6.13451C9.95988 7.60539 9.4965 9.28609 9.49609 10.9987C9.49603 11.2749 9.27212 11.4987 8.99598 11.4986C8.71983 11.4986 8.49603 11.2747 8.49609 10.9985C8.49637 9.83232 8.69086 8.67954 9.0669 7.58614C8.34374 7.46626 7.60414 7.46935 6.87954 7.59661C5.97177 7.75604 5.1083 8.10669 4.3464 8.6253C3.5845 9.14391 2.9416 9.81862 2.46035 10.6047C1.97911 11.3907 1.67054 12.2701 1.5551 13.1845C1.43966 14.0989 1.51999 15.0274 1.79078 15.9084C2.06156 16.7893 2.51661 17.6026 3.12571 18.2943C3.73481 18.986 4.48405 19.5403 5.3237 19.9203C6.16336 20.3004 7.07423 20.4975 7.99589 20.4986H12.9953C13.2714 20.4986 13.4953 20.7225 13.4953 20.9986C13.4953 21.2748 13.2714 21.4986 12.9953 21.4986H7.99527C6.93182 21.4973 5.8802 21.2699 4.91136 20.8314C3.94253 20.3929 3.07803 19.7533 2.37522 18.9552C1.67241 18.1571 1.14736 17.2187 0.834913 16.2022C0.522468 15.1856 0.429771 14.1143 0.56297 13.0592C0.69617 12.0042 1.05222 10.9895 1.6075 10.0825C2.16278 9.17554 2.90459 8.39703 3.7837 7.79864C4.66282 7.20024 5.65914 6.79564 6.70655 6.61169C7.61454 6.45222 8.54293 6.46172 9.44527 6.63843C9.60385 6.29126 9.7817 5.95198 9.97838 5.62225C10.9481 3.99653 12.3392 2.66319 14.0045 1.76331C15.6699 0.863438 17.5476 0.430501 19.4388 0.510316C21.3301 0.590132 23.1646 1.17973 24.7482 2.21672C26.3318 3.25372 27.6057 4.69953 28.4349 6.40116C29.2642 8.10279 29.618 9.99695 29.459 11.8832C29.2999 13.7694 28.6339 15.5776 27.5314 17.1164C26.429 18.6551 24.931 19.8672 23.1961 20.6244C22.943 20.7348 22.6483 20.6192 22.5378 20.3661C22.4274 20.113 22.543 19.8183 22.7961 19.7079C24.3658 19.0228 25.7211 17.9261 26.7185 16.5339C27.716 15.1417 28.3186 13.5058 28.4625 11.7992C28.6064 10.0926 28.2863 8.37881 27.536 6.83924C26.7857 5.29966 25.6332 3.99155 24.2004 3.05332C22.7676 2.11509 21.1078 1.58164 19.3967 1.50943ZM17.6425 10.6451C17.8378 10.4498 18.1544 10.4498 18.3496 10.6451L22.3496 14.6451C22.5449 14.8403 22.5449 15.1569 22.3496 15.3522C22.1544 15.5474 21.8378 15.5474 21.6425 15.3522L18.4961 12.2057V20.9986C18.4961 21.2748 18.2722 21.4986 17.9961 21.4986C17.72 21.4986 17.4961 21.2748 17.4961 20.9986V12.2057L14.3496 15.3522C14.1544 15.5474 13.8378 15.5474 13.6425 15.3522C13.4473 15.1569 13.4473 14.8403 13.6425 14.6451L17.6425 10.6451Z" fill="#007AFF"/>
</svg>
