<svg width="13" height="12" viewBox="0 0 13 12" fill="none" xmlns="http://www.w3.org/2000/svg">
<path d="M12.5 0.897755V3.95938C12.5 4.09471 12.4473 4.2245 12.3536 4.3202C12.2598 4.41589 12.1326 4.46965 12 4.46965H9C8.86739 4.46965 8.74021 4.41589 8.64645 4.3202C8.55268 4.2245 8.5 4.09471 8.5 3.95938C8.5 3.82405 8.55268 3.69426 8.64645 3.59857C8.74021 3.50287 8.86739 3.44911 9 3.44911H10.7931L9.87875 2.51595C8.94948 1.56328 7.6878 1.0258 6.37063 1.0215H6.3425C5.03636 1.01837 3.78151 1.54011 2.84937 2.47386C2.75389 2.56482 2.62731 2.61405 2.49672 2.61099C2.36612 2.60793 2.24189 2.55284 2.15059 2.4575C2.05929 2.36215 2.00817 2.23414 2.00818 2.10082C2.00819 1.96751 2.05932 1.8395 2.15062 1.74417C3.28033 0.617359 4.79988 -0.0093287 6.37952 0.000104982C7.95916 0.00953866 9.47142 0.654333 10.5881 1.79456L11.5 2.72772V0.897755C11.5 0.762423 11.5527 0.632634 11.6464 0.536939C11.7402 0.441245 11.8674 0.387484 12 0.387484C12.1326 0.387484 12.2598 0.441245 12.3536 0.536939C12.4473 0.632634 12.5 0.762423 12.5 0.897755ZM10.1506 9.52708C9.20927 10.4655 7.94337 10.9873 6.62747 10.9795C5.31156 10.9716 4.05175 10.4346 3.12125 9.48498L2.20688 8.55182H4C4.13261 8.55182 4.25979 8.49806 4.35355 8.40237C4.44732 8.30667 4.5 8.17688 4.5 8.04155C4.5 7.90622 4.44732 7.77643 4.35355 7.68073C4.25979 7.58504 4.13261 7.53128 4 7.53128H1C0.867392 7.53128 0.740215 7.58504 0.646447 7.68073C0.552679 7.77643 0.5 7.90622 0.5 8.04155V11.1032C0.5 11.2385 0.552679 11.3683 0.646447 11.464C0.740215 11.5597 0.867392 11.6134 1 11.6134C1.13261 11.6134 1.25979 11.5597 1.35355 11.464C1.44732 11.3683 1.5 11.2385 1.5 11.1032V9.27322L2.41438 10.2064C3.52951 11.3501 5.044 11.9953 6.625 12H6.65812C8.22568 12.0041 9.73171 11.3778 10.85 10.2568C10.9413 10.1614 10.9924 10.0334 10.9924 9.90011C10.9925 9.7668 10.9413 9.63878 10.85 9.54344C10.7587 9.44809 10.6345 9.393 10.5039 9.38994C10.3733 9.38689 10.2467 9.43611 10.1512 9.52708H10.1506Z" fill="#3A3886"/>
</svg>
