<svg width="20" height="20" viewBox="0 0 20 20" fill="none" xmlns="http://www.w3.org/2000/svg">
<path d="M20 12.6087V19.5652C20 19.6805 19.9542 19.7911 19.8727 19.8727C19.7911 19.9542 19.6805 20 19.5652 20H0.434783C0.319471 20 0.208883 19.9542 0.127345 19.8727C0.0458074 19.7911 0 19.6805 0 19.5652V12.6087C0 12.4934 0.0458074 12.3828 0.127345 12.3013C0.208883 12.2197 0.319471 12.1739 0.434783 12.1739C0.550094 12.1739 0.660683 12.2197 0.74222 12.3013C0.823758 12.3828 0.869565 12.4934 0.869565 12.6087V19.1304H19.1304V12.6087C19.1304 12.4934 19.1762 12.3828 19.2578 12.3013C19.3393 12.2197 19.4499 12.1739 19.5652 12.1739C19.6805 12.1739 19.7911 12.2197 19.8727 12.3013C19.9542 12.3828 20 12.4934 20 12.6087ZM9.69239 12.9163C9.73277 12.9567 9.78072 12.9888 9.8335 13.0107C9.88629 13.0326 9.94286 13.0438 10 13.0438C10.0571 13.0438 10.1137 13.0326 10.1665 13.0107C10.2193 12.9888 10.2672 12.9567 10.3076 12.9163L14.6554 8.56848C14.6958 8.52808 14.7279 8.48013 14.7497 8.42735C14.7716 8.37457 14.7829 8.318 14.7829 8.26087C14.7829 8.20374 14.7716 8.14717 14.7497 8.09439C14.7279 8.04161 14.6958 7.99366 14.6554 7.95326C14.615 7.91286 14.5671 7.88082 14.5143 7.85896C14.4615 7.8371 14.405 7.82584 14.3478 7.82584C14.2907 7.82584 14.2341 7.8371 14.1813 7.85896C14.1286 7.88082 14.0806 7.91286 14.0402 7.95326L10.4348 11.5587V0.434783C10.4348 0.319471 10.389 0.208883 10.3074 0.127345C10.2259 0.0458074 10.1153 0 10 0C9.88469 0 9.7741 0.0458074 9.69256 0.127345C9.61102 0.208883 9.56522 0.319471 9.56522 0.434783V11.5587L5.95978 7.95326C5.8782 7.87168 5.76755 7.82584 5.65217 7.82584C5.5368 7.82584 5.42615 7.87168 5.34456 7.95326C5.26298 8.03484 5.21715 8.14549 5.21715 8.26087C5.21715 8.37624 5.26298 8.4869 5.34456 8.56848L9.69239 12.9163Z" fill="#8280FF"/>
</svg>
