<svg width="23" height="20" viewBox="0 0 23 20" fill="none" xmlns="http://www.w3.org/2000/svg">
<path d="M13.6846 0.556966C13.5872 0.510952 13.4785 0.49223 13.3707 0.502933C13.2629 0.513635 13.1603 0.553331 13.0747 0.617505L6.28368 5.71577H1.85088C1.4926 5.71577 1.149 5.85315 0.895663 6.09767C0.642324 6.3422 0.5 6.67386 0.5 7.01967V12.9804C0.5 13.3262 0.642324 13.6579 0.895663 13.9024C1.149 14.1469 1.4926 14.2843 1.85088 14.2843H6.28368L13.0747 19.3826C13.1603 19.4467 13.2628 19.4864 13.3706 19.4971C13.4784 19.5078 13.5871 19.4891 13.6844 19.4431C13.7817 19.3971 13.8637 19.3256 13.9211 19.2369C13.9784 19.1482 14.0088 19.0457 14.0088 18.9411V1.05897C14.0088 0.954394 13.9784 0.851908 13.9211 0.763164C13.8638 0.67442 13.7819 0.602979 13.6846 0.556966ZM1.65789 12.9804V7.01967C1.65789 6.97027 1.67823 6.92289 1.71442 6.88796C1.75061 6.85303 1.7997 6.8334 1.85088 6.8334H5.90351V13.1667H1.85088C1.7997 13.1667 1.75061 13.147 1.71442 13.1121C1.67823 13.0772 1.65789 13.0298 1.65789 12.9804ZM12.8509 17.7983L7.0614 13.4526V6.54748L12.8509 2.20175V17.7983ZM17.7266 7.66045C18.3165 8.30679 18.642 9.13863 18.642 10C18.642 10.8614 18.3165 11.6933 17.7266 12.3396C17.6763 12.3946 17.6152 12.4396 17.5469 12.4718C17.4786 12.5041 17.4044 12.5231 17.3285 12.5277C17.2526 12.5322 17.1766 12.5224 17.1046 12.4986C17.0327 12.4748 16.9663 12.4375 16.9093 12.389C16.8523 12.3404 16.8057 12.2815 16.7723 12.2156C16.7389 12.1496 16.7192 12.078 16.7145 12.0048C16.7097 11.9315 16.72 11.8581 16.7446 11.7886C16.7693 11.7192 16.8079 11.6551 16.8582 11.6001C17.2617 11.1579 17.4843 10.5888 17.4843 9.99956C17.4843 9.41028 17.2617 8.84123 16.8582 8.39902C16.7618 8.2872 16.7143 8.1435 16.726 7.99846C16.7376 7.85342 16.8074 7.71848 16.9204 7.62231C17.0335 7.52614 17.181 7.47632 17.3315 7.48344C17.4821 7.49057 17.6238 7.55407 17.7266 7.66045ZM22.5 10C22.5013 11.7872 21.8189 13.5118 20.5837 14.8431C20.5336 14.8997 20.4722 14.9461 20.4033 14.9795C20.3344 15.0129 20.2592 15.0327 20.1822 15.0377C20.1052 15.0427 20.028 15.0328 19.955 15.0085C19.8821 14.9843 19.8149 14.9462 19.7574 14.8966C19.6999 14.8469 19.6533 14.7867 19.6203 14.7194C19.5872 14.6521 19.5685 14.5791 19.5651 14.5047C19.5617 14.4303 19.5738 14.356 19.6005 14.2861C19.6273 14.2163 19.6683 14.1523 19.7211 14.098C20.7654 12.971 21.3427 11.512 21.3427 10C21.3427 8.48801 20.7654 7.02903 19.7211 5.90204C19.6683 5.84771 19.6273 5.78374 19.6005 5.71391C19.5738 5.64407 19.5617 5.56977 19.5651 5.49537C19.5685 5.42098 19.5872 5.34799 19.6203 5.28069C19.6533 5.21339 19.6999 5.15314 19.7574 5.10348C19.8149 5.05382 19.8821 5.01575 19.955 4.99152C20.028 4.96728 20.1052 4.95736 20.1822 4.96234C20.2592 4.96732 20.3344 4.98711 20.4033 5.02053C20.4722 5.05395 20.5336 5.10033 20.5837 5.15695C21.8189 6.48823 22.5013 8.2129 22.5 10Z" fill="#3A3886"/>
</svg>
