<svg width="19" height="28" viewBox="0 0 19 28" fill="none" xmlns="http://www.w3.org/2000/svg">
<path d="M9.5 22.5V27.5M9.5 22.5C11.8869 22.5 14.1761 21.5518 15.864 19.864C17.5518 18.1761 18.5 15.8869 18.5 13.5M9.5 22.5C7.11305 22.5 4.82387 21.5518 3.13604 19.864C1.44821 18.1761 0.5 15.8869 0.5 13.5M9.5 0.5C12.2614 0.5 14.5 2.73858 14.5 5.5V13.5C14.5 16.2614 12.2614 18.5 9.5 18.5C6.73858 18.5 4.5 16.2614 4.5 13.5V5.5C4.5 2.73858 6.73858 0.5 9.5 0.5Z" stroke="black" stroke-linecap="round" stroke-linejoin="round"/>
</svg>
