<svg width="15" height="14" viewBox="0 0 15 14" fill="none" xmlns="http://www.w3.org/2000/svg">
<path d="M14.2071 3.48505L11.0151 0.292928C10.9223 0.200059 10.812 0.126391 10.6907 0.0761299C10.5694 0.0258691 10.4393 0 10.308 0C10.1767 0 10.0467 0.0258691 9.92533 0.0761299C9.80401 0.126391 9.69377 0.200059 9.60092 0.292928L0.792842 9.10074C0.699801 9.19346 0.626026 9.30368 0.575767 9.42504C0.525507 9.54641 0.499758 9.67652 0.500002 9.80788V13C0.500002 13.2652 0.605353 13.5196 0.792878 13.7071C0.980404 13.8946 1.23474 14 1.49995 14H4.69191C4.82326 14.0002 4.95336 13.9745 5.07472 13.9242C5.19608 13.874 5.30629 13.8002 5.39901 13.7071L11.553 7.55289L11.8822 8.8686L9.19665 11.5543C9.15635 11.594 9.12431 11.6413 9.10237 11.6934C9.08044 11.7456 9.06904 11.8016 9.06885 11.8581C9.06865 11.9147 9.07966 11.9708 9.10123 12.0231C9.1228 12.0753 9.15452 12.1229 9.19454 12.1628C9.23457 12.2028 9.28211 12.2345 9.33443 12.256C9.38675 12.2775 9.44281 12.2884 9.49938 12.2882C9.55595 12.2879 9.61191 12.2765 9.66403 12.2545C9.71615 12.2325 9.7634 12.2004 9.80305 12.16L12.66 9.30288C12.7124 9.25055 12.7503 9.18554 12.7701 9.11418C12.7899 9.04283 12.7908 8.96757 12.7729 8.89574L12.2601 6.84575L14.2071 4.89933C14.3 4.80647 14.3736 4.69623 14.4239 4.5749C14.4741 4.45357 14.5 4.32352 14.5 4.19219C14.5 4.06086 14.4741 3.93082 14.4239 3.80949C14.3736 3.68816 14.3 3.57791 14.2071 3.48505ZM1.3571 13V10.6064L3.8941 13.1429H1.49995C1.46206 13.1429 1.42573 13.1278 1.39894 13.101C1.37215 13.0742 1.3571 13.0379 1.3571 13ZM4.92832 12.965L1.53423 9.57145L7.78531 3.32077L11.1794 6.71432L4.92832 12.965ZM13.6007 4.29291L11.7851 6.10861L8.3917 2.71434L10.2066 0.899353C10.2199 0.886071 10.2356 0.875534 10.253 0.868345C10.2703 0.861156 10.2889 0.857455 10.3077 0.857455C10.3264 0.857455 10.345 0.861156 10.3624 0.868345C10.3797 0.875534 10.3955 0.886071 10.4087 0.899353L13.6007 4.09076C13.614 4.10403 13.6245 4.11979 13.6317 4.13713C13.6389 4.15447 13.6426 4.17306 13.6426 4.19184C13.6426 4.21061 13.6389 4.2292 13.6317 4.24654C13.6245 4.26388 13.614 4.27964 13.6007 4.29291Z" fill="#3A3886"/>
</svg>
