<svg width="20" height="20" viewBox="0 0 20 20" fill="none" xmlns="http://www.w3.org/2000/svg">
<path d="M19.6341 5.02189L14.9789 0.366733C14.8628 0.250201 14.7248 0.157739 14.5729 0.0946498C14.4209 0.0315604 14.258 -0.000915527 14.0935 -0.000915527C13.929 -0.000915527 13.7661 0.0315604 13.6142 0.0946498C13.4622 0.157739 13.3243 0.250201 13.2081 0.366733L0.365619 13.2124C0.131517 13.4468 1.54623e-05 13.7645 0 14.0958V18.7509C0 19.0824 0.131694 19.4004 0.366111 19.6348C0.600528 19.8692 0.918465 20.0009 1.24998 20.0009H5.90512C6.0692 20.0013 6.23173 19.9692 6.38334 19.9064C6.53495 19.8437 6.67263 19.7515 6.78844 19.6353L16.0248 10.3989L16.6216 12.7947L12.6227 16.7947C12.5824 16.833 12.5501 16.8789 12.5278 16.9299C12.5055 16.9808 12.4936 17.0357 12.4928 17.0913C12.4921 17.1469 12.5024 17.2021 12.5233 17.2537C12.5443 17.3052 12.5753 17.352 12.6146 17.3914C12.6538 17.4307 12.7006 17.4618 12.7521 17.4828C12.8036 17.5038 12.8588 17.5143 12.9144 17.5136C12.97 17.513 13.0249 17.5012 13.0759 17.479C13.1269 17.4568 13.1729 17.4246 13.2113 17.3843L17.3779 13.2176C17.4289 13.1668 17.4659 13.1037 17.4853 13.0343C17.5046 12.9649 17.5056 12.8917 17.4883 12.8218L16.7112 9.71768L19.6341 6.79479C19.7509 6.67863 19.8436 6.54051 19.9069 6.38838C19.9702 6.23625 20.0028 6.07311 20.0028 5.90834C20.0028 5.74358 19.9702 5.58044 19.9069 5.42831C19.8436 5.27618 19.7509 5.13806 19.6341 5.02189ZM0.83332 18.7509V14.7572L5.24471 19.1676H1.24998C1.13948 19.1676 1.0335 19.1237 0.955358 19.0455C0.877219 18.9674 0.83332 18.8614 0.83332 18.7509ZM6.2499 18.9947L1.00623 13.751L10.4165 4.34065L15.6612 9.58435L6.2499 18.9947ZM19.0445 6.20001L16.2498 8.99477L11.0061 3.75107L13.8008 0.95631C13.8395 0.91757 13.8855 0.886838 13.9361 0.86587C13.9866 0.844902 14.0409 0.834109 14.0956 0.834109C14.1504 0.834109 14.2046 0.844902 14.2552 0.86587C14.3058 0.886838 14.3517 0.91757 14.3904 0.95631L19.0445 5.61147C19.1224 5.68958 19.1662 5.79541 19.1662 5.90574C19.1662 6.01607 19.1224 6.1219 19.0445 6.20001Z" fill="#3A3886"/>
</svg>
