<svg width="43" height="40" viewBox="0 0 43 40" fill="none" xmlns="http://www.w3.org/2000/svg">
<path d="M21.6289 0.25C17.5002 0.25 13.4643 1.40832 10.0314 3.57847C6.59851 5.74863 3.92291 8.83316 2.34293 12.442C0.762951 16.0508 0.349557 20.0219 1.15502 23.853C1.96049 27.6842 3.94864 31.2033 6.86806 33.9654C9.78748 36.7274 13.507 38.6084 17.5564 39.3705C21.6058 40.1326 25.803 39.7414 29.6174 38.2466C33.4318 36.7518 36.6921 34.2204 38.9858 30.9725C41.2796 27.7246 42.5039 23.9062 42.5039 20C42.4981 14.7637 40.2969 9.74339 36.3833 6.04075C32.4698 2.3381 27.1635 0.25553 21.6289 0.25ZM29.1881 25.0021C29.3373 25.1432 29.4556 25.3108 29.5363 25.4952C29.6171 25.6796 29.6586 25.8773 29.6586 26.0769C29.6586 26.2765 29.6171 26.4742 29.5363 26.6586C29.4556 26.8431 29.3373 27.0106 29.1881 27.1518C29.0389 27.2929 28.8618 27.4049 28.6668 27.4813C28.4719 27.5577 28.263 27.597 28.052 27.597C27.841 27.597 27.6321 27.5577 27.4371 27.4813C27.2422 27.4049 27.0651 27.2929 26.9159 27.1518L21.6289 22.1478L16.3419 27.1518C16.1927 27.2929 16.0156 27.4049 15.8207 27.4813C15.6257 27.5577 15.4168 27.597 15.2058 27.597C14.9948 27.597 14.7859 27.5577 14.591 27.4813C14.3961 27.4049 14.2189 27.2929 14.0698 27.1518C13.9206 27.0106 13.8022 26.8431 13.7215 26.6586C13.6407 26.4742 13.5992 26.2765 13.5992 26.0769C13.5992 25.8773 13.6407 25.6796 13.7215 25.4952C13.8022 25.3108 13.9206 25.1432 14.0698 25.0021L19.3588 20L14.0698 14.9979C13.7684 14.7129 13.5992 14.3262 13.5992 13.9231C13.5992 13.5199 13.7684 13.1333 14.0698 12.8482C14.3711 12.5631 14.7797 12.403 15.2058 12.403C15.6319 12.403 16.0406 12.5631 16.3419 12.8482L21.6289 17.8522L26.9159 12.8482C27.0651 12.7071 27.2422 12.5951 27.4371 12.5187C27.6321 12.4423 27.841 12.403 28.052 12.403C28.263 12.403 28.4719 12.4423 28.6668 12.5187C28.8618 12.5951 29.0389 12.7071 29.1881 12.8482C29.3373 12.9894 29.4556 13.1569 29.5363 13.3414C29.6171 13.5258 29.6586 13.7235 29.6586 13.9231C29.6586 14.1227 29.6171 14.3204 29.5363 14.5048C29.4556 14.6892 29.3373 14.8568 29.1881 14.9979L23.8991 20L29.1881 25.0021Z" fill="#8280FF"/>
</svg>
