<svg width="20" height="21" viewBox="0 0 20 21" fill="none" xmlns="http://www.w3.org/2000/svg">
<path d="M10.25 0.75C8.32164 0.75 6.43657 1.32183 4.83319 2.39317C3.22982 3.46452 1.98013 4.98726 1.24218 6.76884C0.504224 8.55042 0.311142 10.5108 0.687348 12.4021C1.06355 14.2934 1.99215 16.0307 3.35571 17.3943C4.71927 18.7579 6.45656 19.6865 8.34787 20.0627C10.2392 20.4389 12.1996 20.2458 13.9812 19.5078C15.7627 18.7699 17.2855 17.5202 18.3568 15.9168C19.4282 14.3134 20 12.4284 20 10.5C19.9973 7.91498 18.9692 5.43661 17.1413 3.60872C15.3134 1.78084 12.835 0.75273 10.25 0.75ZM9.875 5.25C10.0975 5.25 10.315 5.31598 10.5 5.4396C10.685 5.56321 10.8292 5.73891 10.9144 5.94448C10.9995 6.15005 11.0218 6.37625 10.9784 6.59448C10.935 6.81271 10.8278 7.01316 10.6705 7.1705C10.5132 7.32783 10.3127 7.43498 10.0945 7.47838C9.87625 7.52179 9.65005 7.49951 9.44449 7.41436C9.23892 7.32922 9.06322 7.18502 8.9396 7.00002C8.81598 6.81501 8.75 6.5975 8.75 6.375C8.75 6.07663 8.86853 5.79048 9.07951 5.5795C9.29049 5.36853 9.57664 5.25 9.875 5.25ZM11 15.75C10.6022 15.75 10.2206 15.592 9.93934 15.3107C9.65804 15.0294 9.5 14.6478 9.5 14.25V10.5C9.30109 10.5 9.11033 10.421 8.96967 10.2803C8.82902 10.1397 8.75 9.94891 8.75 9.75C8.75 9.55109 8.82902 9.36032 8.96967 9.21967C9.11033 9.07902 9.30109 9 9.5 9C9.89783 9 10.2794 9.15804 10.5607 9.43934C10.842 9.72064 11 10.1022 11 10.5V14.25C11.1989 14.25 11.3897 14.329 11.5303 14.4697C11.671 14.6103 11.75 14.8011 11.75 15C11.75 15.1989 11.671 15.3897 11.5303 15.5303C11.3897 15.671 11.1989 15.75 11 15.75Z" fill="white"/>
</svg>
