<svg width="15" height="16" viewBox="0 0 15 16" fill="none" xmlns="http://www.w3.org/2000/svg">
<path d="M11.7 9.4V15M14.5 12.2H8.9M6.1 3.8C6.1 5.3464 4.8464 6.6 3.3 6.6C1.7536 6.6 0.5 5.3464 0.5 3.8C0.5 2.2536 1.7536 1 3.3 1C4.8464 1 6.1 2.2536 6.1 3.8ZM14.5 3.8C14.5 5.3464 13.2464 6.6 11.7 6.6C10.1536 6.6 8.9 5.3464 8.9 3.8C8.9 2.2536 10.1536 1 11.7 1C13.2464 1 14.5 2.2536 14.5 3.8ZM6.1 12.2C6.1 13.7464 4.8464 15 3.3 15C1.7536 15 0.5 13.7464 0.5 12.2C0.5 10.6536 1.7536 9.4 3.3 9.4C4.8464 9.4 6.1 10.6536 6.1 12.2Z" stroke="#3A3886" stroke-linecap="round" stroke-linejoin="round"/>
</svg>
