<svg width="19" height="19" viewBox="0 0 19 19" fill="none" xmlns="http://www.w3.org/2000/svg">
<path d="M18.5 9.5C18.5 9.69891 18.421 9.88968 18.2803 10.0303C18.1397 10.171 17.9489 10.25 17.75 10.25H10.25V17.75C10.25 17.9489 10.171 18.1397 10.0303 18.2803C9.88968 18.421 9.69891 18.5 9.5 18.5C9.30109 18.5 9.11032 18.421 8.96967 18.2803C8.82902 18.1397 8.75 17.9489 8.75 17.75V10.25H1.25C1.05109 10.25 0.860322 10.171 0.71967 10.0303C0.579018 9.88968 0.5 9.69891 0.5 9.5C0.5 9.30109 0.579018 9.11032 0.71967 8.96967C0.860322 8.82902 1.05109 8.75 1.25 8.75H8.75V1.25C8.75 1.05109 8.82902 0.860322 8.96967 0.71967C9.11032 0.579018 9.30109 0.5 9.5 0.5C9.69891 0.5 9.88968 0.579018 10.0303 0.71967C10.171 0.860322 10.25 1.05109 10.25 1.25V8.75H17.75C17.9489 8.75 18.1397 8.82902 18.2803 8.96967C18.421 9.11032 18.5 9.30109 18.5 9.5Z" fill="#007AFF"/>
</svg>
